<svg width="34" height="25" viewBox="0 0 34 25" fill="none" xmlns="http://www.w3.org/2000/svg">
<path d="M7.16457 13.5873L23.4602 13.2189L18.5711 17.6905C18.3425 17.9 18.2362 18.1657 18.2757 18.4293C18.3152 18.6929 18.4972 18.9328 18.7816 19.0962C19.066 19.2595 19.4296 19.333 19.7924 19.3004C20.1552 19.2678 20.4874 19.1318 20.716 18.9224L27.4504 12.7686C27.4955 12.7199 27.5357 12.6688 27.5706 12.6159C27.5695 12.5659 27.5688 12.5359 27.6639 12.4837C27.7236 12.3677 27.7534 12.2449 27.7519 12.1216C27.7478 11.9984 27.7125 11.8771 27.6476 11.7639C27.6465 11.7139 27.6458 11.6839 27.5485 11.6361C27.5112 11.5848 27.4687 11.5356 27.4214 11.4889L20.4158 5.64578C20.2841 5.53585 20.1203 5.44875 19.936 5.39067C19.7518 5.3326 19.5516 5.30499 19.3497 5.30979C19.0287 5.31659 18.7194 5.40498 18.4756 5.55961C18.3383 5.64668 18.2257 5.75236 18.144 5.87058C18.0623 5.9888 18.0133 6.11725 17.9996 6.24857C17.986 6.37989 18.0081 6.5115 18.0646 6.63585C18.121 6.76021 18.2108 6.87488 18.3288 6.97329L23.415 11.2194L7.11936 11.5878C6.75496 11.5961 6.40786 11.7093 6.15442 11.9026C5.90098 12.0959 5.76197 12.3535 5.76797 12.6186C5.77396 12.8838 5.92447 13.1348 6.18638 13.3164C6.4483 13.4981 6.80016 13.5955 7.16457 13.5873Z" fill="white"/>
</svg>
