<svg width="25" height="25" viewBox="0 0 25 25" fill="none" xmlns="http://www.w3.org/2000/svg">
<path d="M17.2444 18.0944C17.7748 18.0871 18.2864 18.2909 18.6665 18.6608C19.0467 19.0307 19.2643 19.5365 19.2716 20.0669C19.2788 20.5973 19.0751 21.1088 18.7052 21.489C18.3352 21.8691 17.8295 22.0868 17.2991 22.094C16.7687 22.1012 16.2572 21.8975 15.877 21.5276C15.4968 21.1577 15.2792 20.6519 15.2719 20.1215C15.2568 19.0116 16.1345 18.1095 17.2444 18.0944ZM1.02734 2.31445L4.29704 2.26978L5.26427 4.25675L20.0529 4.0547C20.3181 4.05107 20.5739 4.15295 20.7639 4.3379C20.954 4.52286 21.0628 4.77575 21.0665 5.04094C21.0688 5.21093 21.0211 5.38159 20.9533 5.54254L17.462 12.0608C17.1304 12.6754 16.4762 13.1044 15.7263 13.1147L8.27696 13.2164L7.39931 14.8586L7.37095 14.979C7.37186 15.0453 7.39906 15.1085 7.44658 15.1547C7.4941 15.201 7.55805 15.2264 7.62434 15.2255L19.2033 15.0673L19.2306 17.0671L7.23171 17.2311C6.70132 17.2383 6.18978 17.0346 5.80962 16.6647C5.42946 16.2948 5.21182 15.789 5.20457 15.2586C5.19979 14.9086 5.28527 14.5774 5.43143 14.2954L6.75783 11.8271L3.05448 4.28694L1.05467 4.31427L1.02734 2.31445ZM7.24537 18.231C7.77575 18.2237 8.28729 18.4275 8.66745 18.7974C9.04761 19.1673 9.26526 19.6731 9.2725 20.2035C9.27975 20.7339 9.07601 21.2454 8.70609 21.6256C8.33618 22.0057 7.8304 22.2234 7.30001 22.2306C6.76963 22.2379 6.25809 22.0341 5.87793 21.6642C5.49777 21.2943 5.28012 20.7885 5.27288 20.2581C5.25771 19.1482 6.13547 18.2462 7.24537 18.231ZM16.1489 11.1087L18.8603 6.07118L6.22151 6.24386L8.6496 11.2112L16.1489 11.1087Z" fill="#E9EFF1"/>
</svg>
