<svg width="34" height="26" viewBox="0 0 34 26" fill="none" xmlns="http://www.w3.org/2000/svg">
<path d="M7.31796 13.898L23.6079 13.3327L18.7732 17.8631C18.5472 18.0753 18.4442 18.3423 18.4868 18.6054C18.5295 18.8685 18.7143 19.1061 19.0007 19.266C19.2871 19.4259 19.6515 19.495 20.0139 19.458C20.3762 19.4211 20.7068 19.2811 20.9329 19.0689L27.5924 12.8342C27.6369 12.7849 27.6765 12.7334 27.7108 12.68C27.7091 12.63 27.708 12.6 27.8024 12.5467C27.8607 12.43 27.8891 12.3069 27.8861 12.1836C27.8805 12.0605 27.8437 11.9396 27.7775 11.8272C27.7757 11.7772 27.7747 11.7472 27.6768 11.7006C27.6389 11.6497 27.5958 11.6011 27.548 11.555L20.4723 5.7969C20.3392 5.68857 20.1744 5.60346 19.9894 5.54761C19.8045 5.49177 19.604 5.46658 19.4022 5.47382C19.0813 5.4845 18.7731 5.57662 18.5311 5.73419C18.395 5.82291 18.2836 5.92994 18.2033 6.04914C18.1231 6.16834 18.0756 6.29737 18.0636 6.42885C18.0515 6.56032 18.0752 6.69165 18.1331 6.81532C18.1911 6.93899 18.2823 7.05256 18.4015 7.14953L23.5386 11.3339L7.24859 11.8992C6.88431 11.9118 6.53861 12.0292 6.28753 12.2256C6.03644 12.422 5.90056 12.6812 5.90975 12.9462C5.91895 13.2113 6.07248 13.4605 6.33657 13.639C6.60066 13.8175 6.95368 13.9106 7.31796 13.898Z" fill="white"/>
</svg>
