<svg width="27" height="20" viewBox="0 0 27 20" fill="none" xmlns="http://www.w3.org/2000/svg">
<path d="M20.5382 8.66949L7.77065 8.79613L11.6445 5.3422C11.8257 5.18043 11.9115 4.97333 11.8832 4.76647C11.8549 4.5596 11.7148 4.36992 11.4936 4.23915C11.2725 4.10837 10.9884 4.04722 10.7039 4.06914C10.4195 4.09106 10.1579 4.19426 9.97675 4.35603L4.64077 9.10919C4.60493 9.14693 4.57293 9.18652 4.54505 9.22764C4.54544 9.26681 4.54567 9.2903 4.4707 9.33022C4.4228 9.42051 4.3982 9.51637 4.39814 9.61295C4.40011 9.70951 4.42661 9.80486 4.4763 9.89419C4.47669 9.93335 4.47692 9.95685 4.55266 9.99527C4.58136 10.0358 4.61413 10.0748 4.65072 10.1118L10.0799 14.7582C10.182 14.8456 10.3095 14.9155 10.4532 14.9628C10.597 15.0101 10.7535 15.0337 10.9116 15.0319C11.1632 15.0298 11.4063 14.9637 11.5988 14.845C11.7072 14.7781 11.7965 14.6965 11.8616 14.6047C11.9268 14.5129 11.9665 14.4128 11.9785 14.31C11.9904 14.2073 11.9745 14.104 11.9315 14.0061C11.8885 13.9081 11.8193 13.8174 11.7278 13.7391L7.78618 10.3627L20.5537 10.2361C20.8392 10.2333 21.1122 10.148 21.3126 9.99911C21.5131 9.85021 21.6245 9.64985 21.6225 9.44211C21.6204 9.23437 21.505 9.03626 21.3017 8.89137C21.0983 8.74647 20.8237 8.66666 20.5382 8.66949Z" fill="#4B7F8B"/>
</svg>
