<svg width="428" height="406" viewBox="0 0 428 406" fill="none" xmlns="http://www.w3.org/2000/svg">
<path d="M428 310.509H0V310.711H428V310.509Z" fill="#EBEBEB"/>
<path d="M270.212 316.039H248.418V316.241H270.212V316.039Z" fill="#EBEBEB"/>
<path d="M389.857 320.432H338.215V320.634H389.857V320.432Z" fill="#EBEBEB"/>
<path d="M243.78 316.136H190.426V316.338H243.78V316.136Z" fill="#EBEBEB"/>
<path d="M155.826 322.21H144.664V322.412H155.826V322.21Z" fill="#EBEBEB"/>
<path d="M217.501 322.21H166.672V322.412H217.501V322.21Z" fill="#EBEBEB"/>
<path d="M77.8195 318.783H44.9062V318.985H77.8195V318.783Z" fill="#EBEBEB"/>
<path d="M202.871 274.294H37.5862C36.2914 274.292 35.0504 273.802 34.1356 272.933C33.2208 272.064 32.707 270.885 32.707 269.657V49.2561C32.7183 48.0348 33.2371 46.8672 34.1506 46.0066C35.0642 45.1461 36.2988 44.6622 37.5862 44.6602H202.871C204.168 44.6602 205.411 45.1486 206.327 46.0182C207.244 46.8877 207.759 48.067 207.759 49.2967V269.657C207.759 270.887 207.244 272.066 206.327 272.936C205.411 273.805 204.168 274.294 202.871 274.294ZM37.5862 44.8226C36.3482 44.8247 35.1616 45.2928 34.2869 46.124C33.4123 46.9552 32.921 48.0816 32.921 49.2561V269.657C32.921 270.832 33.4123 271.958 34.2869 272.789C35.1616 273.621 36.3482 274.089 37.5862 274.091H202.871C204.11 274.089 205.298 273.621 206.174 272.79C207.05 271.959 207.543 270.832 207.545 269.657V49.2561C207.543 48.0809 207.05 46.9545 206.174 46.1235C205.298 45.2925 204.11 44.8247 202.871 44.8226H37.5862Z" fill="#EBEBEB"/>
<path d="M388.033 274.294H222.739C221.444 274.292 220.202 273.802 219.286 272.933C218.37 272.064 217.854 270.886 217.852 269.657V49.2561C217.865 48.0341 218.386 46.8664 219.301 46.0061C220.216 45.1458 221.451 44.6622 222.739 44.6602H388.033C389.319 44.6644 390.551 45.1492 391.463 46.0095C392.375 46.8698 392.892 48.0363 392.904 49.2561V269.657C392.904 270.884 392.391 272.061 391.478 272.93C390.565 273.799 389.326 274.289 388.033 274.294ZM222.739 44.8226C221.5 44.8247 220.313 45.2925 219.437 46.1235C218.561 46.9545 218.068 48.0809 218.066 49.2561V269.657C218.068 270.832 218.561 271.959 219.437 272.79C220.313 273.621 221.5 274.089 222.739 274.091H388.033C389.272 274.089 390.459 273.621 391.335 272.79C392.211 271.959 392.704 270.832 392.707 269.657V49.2561C392.704 48.0809 392.211 46.9545 391.335 46.1235C390.459 45.2925 389.272 44.8247 388.033 44.8226H222.739Z" fill="#EBEBEB"/>
<path d="M167.741 240.084H110.903L107.453 202.326H164.292L167.741 240.084Z" fill="#E6E6E6"/>
<path d="M170.687 240.084H113.848L110.398 202.326H167.237L170.687 240.084Z" fill="#F0F0F0"/>
<path d="M121.619 231.972L119.719 210.43H159.463L161.363 231.972H121.619Z" fill="white"/>
<path d="M180.524 240.084H173.855V310.509H180.524V240.084Z" fill="#E6E6E6"/>
<path d="M182.627 240.084H177.996V310.509H182.627V240.084Z" fill="#F0F0F0"/>
<path d="M118.078 247.855H182.629V240.085H118.078V247.855Z" fill="#F0F0F0"/>
<path d="M120.352 247.855H113.684V310.509H120.352V247.855Z" fill="#E6E6E6"/>
<path d="M122.459 247.855H117.828V310.509H122.459V247.855Z" fill="#F0F0F0"/>
<path d="M72.887 247.855H66.2188V310.509H72.887V247.855Z" fill="#E6E6E6"/>
<path d="M74.9942 247.855H70.3633V310.509H74.9942V247.855Z" fill="#F0F0F0"/>
<path d="M138.321 247.855H131.652V310.509H138.321V247.855Z" fill="#E6E6E6"/>
<path d="M140.42 247.855H135.789V310.509H140.42V247.855Z" fill="#F0F0F0"/>
<path d="M118.075 240.084H66.2188V247.855H118.075V240.084Z" fill="#E6E6E6"/>
<path d="M311.446 64.4814H110.859V170.415H311.446V64.4814Z" fill="#E0E0E0"/>
<path d="M322.464 64.4814H111.871V170.415H322.464V64.4814Z" fill="#F5F5F5"/>
<path d="M319.023 167.15V67.7451L115.313 67.7451V167.15H319.023Z" fill="white"/>
<path d="M197.797 167.15L236.257 67.7451H172.784L134.324 167.15H197.797Z" fill="#F5F5F5"/>
<path d="M258.889 167.15L297.349 67.7451H249.464L211.004 167.15H258.889Z" fill="#F5F5F5"/>
<path d="M375.02 209.334H357.969V310.509H375.02V209.334Z" fill="#E6E6E6"/>
<path d="M370.535 310.509H375.021V302.722H365.836L370.535 310.509Z" fill="#FAFAFA"/>
<path d="M217.809 209.334H200.758V310.509H217.809V209.334Z" fill="#E6E6E6"/>
<path d="M375.023 209.334H213.898V308.406H375.023V209.334Z" fill="#FAFAFA"/>
<path d="M371.975 241.302H216.953V213.32H371.975V241.302ZM217.809 240.49H371.119V214.132H217.809V240.49Z" fill="#E6E6E6"/>
<path d="M344.686 226.905H247.248C242.728 226.905 238.371 223.446 235.264 217.405L234.973 216.828H356.953L356.662 217.405C353.529 223.446 349.249 226.905 344.686 226.905ZM236.377 217.616C239.27 222.999 243.224 226.069 247.248 226.069H344.686C348.727 226.069 352.664 222.999 355.557 217.616H236.377Z" fill="#E6E6E6"/>
<path d="M218.384 310.509H213.898V302.722H223.083L218.384 310.509Z" fill="#FAFAFA"/>
<path d="M371.975 272.832H216.953V244.883H371.975V272.832ZM217.809 272.02H371.119V245.695H217.809V272.02Z" fill="#E6E6E6"/>
<path d="M344.686 258.468H247.248C242.728 258.468 238.371 255.001 235.264 248.967L234.973 248.383H356.953L356.662 248.967C353.529 254.968 349.249 258.468 344.686 258.468ZM236.377 249.195C239.27 254.578 243.224 257.656 247.248 257.656H344.686C348.727 257.656 352.664 254.578 355.557 249.195H236.377Z" fill="#E6E6E6"/>
<path d="M371.975 304.419H216.953V276.438H371.975V304.419ZM217.809 303.607H371.119V277.25H217.809V303.607Z" fill="#E6E6E6"/>
<path d="M344.686 290.022H247.248C242.728 290.022 238.371 286.563 235.264 280.53L234.973 279.945H356.953L356.662 280.53C353.529 286.563 349.249 290.022 344.686 290.022ZM236.377 280.757C239.27 286.141 243.224 289.21 247.248 289.21H344.686C348.727 289.21 352.664 286.141 355.557 280.757H236.377Z" fill="#E6E6E6"/>
<path d="M103.56 222.716V224.681H102.242L101.146 240.085H85.0194L83.9323 224.681H82.6055V222.716H103.56Z" fill="#E6E6E6"/>
<path d="M98.253 184.495C96.9348 175.319 83.8808 172.705 67.3172 172.364C51.5582 172.047 46.5078 166.761 46.5078 166.761C46.5078 166.761 46.5592 188.173 69.2689 195.936C90.8315 203.293 99.5798 193.687 98.253 184.495Z" fill="#E6E6E6"/>
<path d="M90.2056 205.29C90.4795 201.522 96.8311 194.588 112.111 197.738C123.153 200.02 127.262 194.588 127.262 194.588C127.262 194.588 126.235 209.918 109.628 214.522C93.8522 218.899 89.7177 211.932 90.2056 205.29Z" fill="#E6E6E6"/>
<path d="M93.6885 228.497C93.7746 228.498 93.8597 228.481 93.9381 228.448C94.0165 228.414 94.0861 228.364 94.1422 228.303C95.2465 227.06 94.3391 224.088 93.0893 219.971C91.4801 214.693 89.477 208.116 91.1719 203.35C92.1114 200.832 93.209 198.37 94.4589 195.977C96.8557 191.17 98.9273 187.045 97.1981 182.676C97.1712 182.607 97.1299 182.543 97.0768 182.489C97.0237 182.434 96.9598 182.391 96.8888 182.36C96.8177 182.329 96.7409 182.312 96.6629 182.31C96.5849 182.307 96.5071 182.32 96.4341 182.346C96.3612 182.372 96.2944 182.412 96.2377 182.463C96.181 182.514 96.1355 182.575 96.1039 182.643C96.0723 182.71 96.0551 182.783 96.0534 182.858C96.0517 182.932 96.0654 183.005 96.0939 183.074C97.6433 186.964 95.7686 190.731 93.3889 195.506C92.1231 197.938 91.0084 200.437 90.0505 202.993C88.2444 208.092 90.2988 214.856 91.9509 220.28C92.9267 223.528 93.9368 226.776 93.2434 227.588C93.1884 227.644 93.1462 227.71 93.1197 227.783C93.0931 227.855 93.0828 227.932 93.0892 228.008C93.0956 228.085 93.1188 228.159 93.1571 228.226C93.1954 228.294 93.2482 228.353 93.3119 228.4C93.4213 228.474 93.5548 228.508 93.6885 228.497Z" fill="#E6E6E6"/>
<path d="M214.001 347.179C305.664 347.179 379.971 343.063 379.971 337.987C379.971 332.91 305.664 328.795 214.001 328.795C122.338 328.795 48.0312 332.91 48.0312 337.987C48.0312 343.063 122.338 347.179 214.001 347.179Z" fill="#F5F5F5"/>
<path d="M213.965 293.173H92.4128L85.7617 107.736H207.314L213.965 293.173Z" fill="#1E5F6E"/>
<path d="M220.032 287.416H98.48L91.8203 101.979H213.372L220.032 287.416Z" fill="#1E5F6E"/>
<path opacity="0.3" d="M220.032 287.416H98.48L91.8203 101.979H213.372L220.032 287.416Z" fill="white"/>
<path d="M179.306 178.286C192.321 165.727 191.767 145.192 178.069 132.418C164.372 119.645 142.717 119.471 129.702 132.03C116.687 144.589 117.241 165.124 130.939 177.898C144.637 190.671 166.291 190.845 179.306 178.286Z" fill="#1E5F6E"/>
<path d="M182.731 155.166C182.906 159.584 181.889 163.972 179.777 167.914C177.498 172.162 174.016 175.724 169.722 178.199C165.428 180.675 160.492 181.967 155.467 181.929C150.324 181.903 145.279 180.594 140.838 178.134C136.397 175.674 132.716 172.15 130.164 167.914C127.784 164.033 126.455 159.653 126.295 155.166C126.137 151.686 126.726 148.213 128.027 144.956C129.328 141.7 131.314 138.728 133.863 136.222C136.412 133.716 139.472 131.727 142.856 130.377C146.24 129.028 149.878 128.345 153.55 128.37C161.113 128.421 168.364 131.233 173.798 136.223C179.233 141.213 182.432 147.997 182.731 155.166Z" fill="white"/>
<path opacity="0.6" d="M179.758 167.914C177.479 172.162 173.997 175.724 169.703 178.199C165.409 180.675 160.473 181.967 155.448 181.929C150.305 181.903 145.26 180.594 140.819 178.134C136.378 175.674 132.696 172.15 130.145 167.914C137.384 163.232 145.95 160.744 154.712 160.777C163.615 160.795 172.319 163.275 179.758 167.914Z" fill="#1E5F6E"/>
<path opacity="0.6" d="M163.3 154.498C168.085 149.88 167.882 142.329 162.845 137.632C157.808 132.935 149.845 132.871 145.06 137.489C140.274 142.107 140.478 149.658 145.514 154.355C150.551 159.052 158.514 159.116 163.3 154.498Z" fill="#1E5F6E"/>
<path d="M195.613 220.263H118.077L117.555 205.647H195.091L195.613 220.263Z" fill="white"/>
<path d="M196.555 246.386H119.01L118.488 231.77H196.033L196.555 246.386Z" fill="white"/>
<path d="M166.629 233.783L147.943 236.219C147.765 236.238 147.592 236.292 147.437 236.378C147.282 236.463 147.147 236.578 147.041 236.715C146.935 236.853 146.86 237.009 146.821 237.175C146.781 237.341 146.779 237.513 146.813 237.68L149.27 249.56C149.35 249.909 149.565 250.216 149.872 250.422C150.18 250.628 150.557 250.717 150.93 250.672L169.617 248.236C169.795 248.215 169.966 248.159 170.12 248.073C170.275 247.986 170.408 247.87 170.513 247.732C170.619 247.595 170.693 247.438 170.731 247.272C170.77 247.106 170.772 246.934 170.738 246.767L168.29 234.887C168.21 234.539 167.994 234.232 167.687 234.028C167.379 233.823 167.002 233.736 166.629 233.783ZM161.262 245.817L157.838 246.247L157.504 242.414C157.152 242.27 156.841 242.047 156.598 241.764C156.355 241.481 156.187 241.147 156.109 240.79C156.046 240.514 156.045 240.228 156.106 239.951C156.167 239.674 156.289 239.412 156.463 239.183C156.637 238.953 156.86 238.761 157.118 238.618C157.375 238.475 157.662 238.386 157.958 238.354C158.566 238.28 159.181 238.425 159.682 238.76C160.183 239.096 160.533 239.597 160.663 240.165C160.737 240.508 160.715 240.864 160.597 241.196C160.48 241.529 160.272 241.826 159.995 242.057L161.262 245.817Z" fill="#1E5F6E"/>
<path d="M164.781 233.142C164.45 233.182 164.116 233.103 163.844 232.922C163.571 232.74 163.38 232.468 163.308 232.16L163.069 230.999C162.727 229.414 161.79 228.001 160.433 227.021C159.076 226.042 157.391 225.562 155.69 225.672C154.831 225.718 153.994 225.939 153.233 226.32C152.473 226.701 151.808 227.233 151.283 227.879C150.759 228.525 150.387 229.271 150.193 230.066C149.999 230.86 149.988 231.685 150.16 232.485L150.434 233.824C150.466 233.973 150.465 234.126 150.431 234.274C150.397 234.422 150.33 234.562 150.236 234.684C150.142 234.806 150.022 234.908 149.883 234.984C149.745 235.06 149.591 235.107 149.433 235.124C149.102 235.167 148.765 235.09 148.492 234.908C148.219 234.725 148.029 234.451 147.96 234.141L147.729 233.012C147.494 231.957 147.486 230.868 147.706 229.811C147.926 228.753 148.369 227.748 149.009 226.857C149.649 225.966 150.472 225.206 151.428 224.625C152.385 224.043 153.456 223.651 154.577 223.471C157.007 223.084 159.501 223.6 161.541 224.91C163.582 226.221 165.011 228.227 165.534 230.511L165.808 231.843C165.84 231.993 165.838 232.148 165.802 232.298C165.767 232.448 165.698 232.588 165.601 232.711C165.504 232.834 165.381 232.935 165.239 233.01C165.098 233.084 164.942 233.129 164.781 233.142Z" fill="#1E5F6E"/>
<path d="M183.757 266.856H133.279L132.945 257.34H183.415L183.757 266.856Z" fill="#1E5F6E"/>
<path d="M159.405 212.956C159.42 213.303 159.361 213.649 159.23 213.974C159.1 214.299 158.902 214.595 158.647 214.845C158.393 215.094 158.087 215.293 157.75 215.427C157.412 215.562 157.049 215.63 156.683 215.627C155.928 215.622 155.204 215.341 154.661 214.844C154.118 214.347 153.797 213.671 153.764 212.956C153.749 212.609 153.808 212.262 153.939 211.938C154.069 211.613 154.267 211.317 154.522 211.067C154.776 210.817 155.082 210.619 155.419 210.484C155.757 210.35 156.12 210.282 156.486 210.284C157.241 210.288 157.966 210.567 158.51 211.065C159.054 211.563 159.374 212.24 159.405 212.956Z" fill="#263238"/>
<path d="M147.232 212.956C147.249 213.303 147.19 213.65 147.06 213.975C146.931 214.3 146.732 214.597 146.477 214.847C146.223 215.097 145.917 215.295 145.579 215.429C145.24 215.564 144.877 215.631 144.51 215.627C143.756 215.622 143.034 215.341 142.492 214.844C141.95 214.346 141.631 213.67 141.6 212.956C141.585 212.609 141.644 212.262 141.775 211.938C141.905 211.613 142.103 211.317 142.358 211.067C142.612 210.817 142.918 210.619 143.255 210.484C143.593 210.35 143.956 210.282 144.322 210.284C145.077 210.288 145.801 210.568 146.343 211.066C146.885 211.563 147.204 212.24 147.232 212.956Z" fill="#263238"/>
<path d="M135.135 212.956C135.15 213.303 135.09 213.649 134.96 213.974C134.83 214.299 134.632 214.595 134.377 214.845C134.123 215.094 133.817 215.293 133.48 215.427C133.142 215.562 132.779 215.63 132.413 215.627C131.658 215.624 130.934 215.344 130.392 214.846C129.85 214.348 129.531 213.671 129.502 212.956C129.487 212.609 129.547 212.262 129.677 211.938C129.807 211.613 130.006 211.317 130.26 211.067C130.515 210.817 130.82 210.619 131.158 210.484C131.495 210.35 131.858 210.282 132.224 210.284C132.979 210.288 133.703 210.568 134.245 211.066C134.787 211.563 135.106 212.24 135.135 212.956Z" fill="#263238"/>
<path d="M171.533 212.956C171.548 213.303 171.488 213.649 171.358 213.974C171.228 214.299 171.029 214.595 170.775 214.845C170.52 215.095 170.215 215.293 169.877 215.427C169.54 215.562 169.177 215.63 168.81 215.627C168.056 215.624 167.332 215.344 166.79 214.846C166.247 214.348 165.929 213.671 165.9 212.956C165.887 212.61 165.949 212.265 166.081 211.942C166.213 211.619 166.412 211.325 166.668 211.077C166.923 210.83 167.229 210.634 167.566 210.502C167.903 210.37 168.266 210.304 168.631 210.309C169.38 210.314 170.098 210.592 170.637 211.084C171.177 211.577 171.498 212.246 171.533 212.956Z" fill="#263238"/>
<path d="M183.662 212.956C183.678 213.303 183.62 213.65 183.49 213.975C183.36 214.3 183.162 214.597 182.907 214.847C182.652 215.097 182.347 215.295 182.008 215.429C181.67 215.564 181.307 215.631 180.94 215.627C180.186 215.622 179.463 215.341 178.922 214.844C178.38 214.346 178.06 213.67 178.03 212.956C178.015 212.609 178.074 212.262 178.204 211.938C178.334 211.613 178.533 211.317 178.787 211.067C179.042 210.817 179.347 210.619 179.685 210.484C180.023 210.35 180.386 210.282 180.752 210.284C181.506 210.288 182.23 210.568 182.772 211.066C183.315 211.563 183.633 212.24 183.662 212.956Z" fill="#263238"/>
<path d="M285.827 141.515C286.965 143.252 287.916 144.909 288.891 146.638C289.867 148.368 290.749 150.106 291.614 151.884C293.378 155.485 294.837 159.213 295.979 163.033C296.133 163.512 296.245 164.023 296.373 164.519L296.561 165.274L296.655 165.647L296.767 166.264C296.96 167.664 296.87 169.086 296.501 170.454C295.91 172.578 295.012 174.614 293.831 176.504C291.718 179.938 289.165 183.11 286.229 185.947L282.626 183.365C284.434 180.211 286.044 176.957 287.445 173.621C288.069 172.151 288.509 170.617 288.755 169.05C288.833 168.571 288.81 168.082 288.686 167.612L288.344 166.622C288.207 166.216 288.078 165.81 287.916 165.396C286.614 162.046 285.107 158.771 283.405 155.587C281.693 152.339 279.852 149.091 278.012 145.989L285.827 141.515Z" fill="#FF8B7B"/>
<path d="M283.543 182.237L279.605 184.21L284.125 189.229C284.125 189.229 286.95 187.418 287.078 184.657L283.543 182.237Z" fill="#FF8B7B"/>
<path d="M274.324 187.304L279.161 190.95L284.125 189.228L279.606 184.21L274.324 187.304Z" fill="#FF8B7B"/>
<path d="M257.784 114.946C257.69 115.401 257.356 115.718 257.048 115.661C256.74 115.604 256.56 115.182 256.654 114.735C256.748 114.289 257.082 113.923 257.399 114.021C257.715 114.118 257.878 114.492 257.784 114.946Z" fill="#263238"/>
<path d="M257.4 115.726C256.538 116.997 255.495 118.151 254.301 119.152C254.583 119.429 254.925 119.646 255.303 119.786C255.681 119.926 256.087 119.987 256.492 119.964L257.4 115.726Z" fill="#FF5652"/>
<path d="M255.859 131.658V126.331L263.289 127.143C263.289 127.143 263.17 131.723 259.009 133.071L255.859 131.658Z" fill="#FF8B7B"/>
<path d="M258 122.498L263.23 123.927L263.325 127.183L255.895 126.331L258 122.498Z" fill="#FF8B7B"/>
<path opacity="0.2" d="M263.229 123.927L257.999 122.498L256.98 124.349C257.036 125.808 257.517 127.224 258.369 128.439C259.221 129.655 260.412 130.623 261.808 131.235C262.707 130.044 263.232 128.637 263.323 127.175L263.229 123.927Z" fill="black"/>
<path d="M260.061 112.778C260.116 112.777 260.17 112.761 260.215 112.732C260.261 112.703 260.297 112.662 260.319 112.615C260.342 112.567 260.35 112.515 260.342 112.463C260.334 112.412 260.311 112.363 260.275 112.324C259.975 112.002 259.597 111.752 259.174 111.597C258.751 111.442 258.295 111.385 257.844 111.43C257.771 111.442 257.705 111.482 257.662 111.539C257.618 111.597 257.601 111.669 257.613 111.739C257.626 111.809 257.667 111.873 257.728 111.915C257.788 111.957 257.864 111.976 257.939 111.966C258.296 111.933 258.656 111.981 258.99 112.107C259.323 112.233 259.62 112.432 259.856 112.689C259.882 112.716 259.914 112.738 259.949 112.753C259.984 112.769 260.023 112.777 260.061 112.778Z" fill="#263238"/>
<path d="M271.002 123.164C270.146 127.346 269.615 133.135 272.714 135.921C272.714 135.921 271.516 140.159 263.298 140.159C254.302 140.159 258.975 136.44 258.975 136.44C262.716 135.336 262.682 131.3 261.826 128.052L271.002 123.164Z" fill="#FF8B7B"/>
<path d="M274.382 138.714C275.186 137.642 275.152 134.24 274.296 133.639C272.918 132.673 267.003 132.445 259.051 134.183C259.907 137.48 258.066 139.201 258.066 139.201L274.382 138.714Z" fill="#1E5F6E"/>
<path d="M301.141 331.491C300.897 331.572 300.638 331.607 300.38 331.593C300.121 331.579 299.868 331.517 299.635 331.409C299.547 331.331 299.486 331.229 299.461 331.117C299.437 331.005 299.45 330.889 299.498 330.784C299.525 330.696 299.572 330.615 299.635 330.546C299.699 330.478 299.778 330.423 299.866 330.386C300.679 330.013 302.545 330.735 302.631 330.768C302.656 330.778 302.678 330.794 302.693 330.816C302.709 330.838 302.717 330.864 302.716 330.89C302.716 330.916 302.709 330.941 302.696 330.964C302.682 330.987 302.663 331.006 302.639 331.02C302.157 331.221 301.655 331.378 301.141 331.491ZM300.157 330.573C300.101 330.586 300.046 330.605 299.994 330.63C299.941 330.648 299.893 330.679 299.854 330.718C299.816 330.758 299.787 330.805 299.772 330.857C299.695 331.101 299.772 331.182 299.823 331.206C300.148 331.466 301.347 331.206 302.194 330.906C301.55 330.653 300.854 330.539 300.157 330.573Z" fill="#1E5F6E"/>
<path d="M302.605 331.028H302.536C301.851 330.841 300.396 329.859 300.379 329.217C300.378 329.115 300.414 329.016 300.481 328.936C300.548 328.857 300.642 328.801 300.747 328.779C300.849 328.743 300.957 328.728 301.065 328.737C301.173 328.745 301.278 328.776 301.372 328.827C302.177 329.217 302.69 330.792 302.707 330.865C302.719 330.885 302.726 330.908 302.726 330.93C302.726 330.953 302.719 330.976 302.707 330.995C302.694 331.008 302.678 331.018 302.66 331.023C302.642 331.029 302.623 331.03 302.605 331.028ZM300.893 329.006H300.824C300.653 329.063 300.653 329.144 300.653 329.185C300.653 329.566 301.629 330.338 302.365 330.646C302.185 330.192 301.791 329.29 301.269 329.022C301.153 328.972 301.021 328.966 300.901 329.006H300.893Z" fill="#1E5F6E"/>
<path d="M256.679 332.449C255.909 332.449 255.164 332.343 254.916 332.018C254.851 331.932 254.816 331.828 254.816 331.722C254.816 331.616 254.851 331.512 254.916 331.426C254.965 331.346 255.03 331.277 255.108 331.223C255.186 331.168 255.275 331.13 255.37 331.109C256.371 330.849 258.477 331.986 258.563 332.035C258.589 332.047 258.61 332.067 258.623 332.092C258.635 332.117 258.638 332.146 258.631 332.173C258.628 332.2 258.615 332.226 258.595 332.247C258.575 332.267 258.549 332.281 258.52 332.286C257.913 332.392 257.297 332.446 256.679 332.449ZM255.729 331.336C255.639 331.322 255.546 331.322 255.455 331.336C255.397 331.348 255.342 331.37 255.294 331.402C255.245 331.434 255.204 331.475 255.173 331.523C255.07 331.694 255.113 331.775 255.173 331.823C255.455 332.197 256.971 332.205 258.092 332.051C257.36 331.671 256.558 331.429 255.729 331.336Z" fill="#1E5F6E"/>
<path d="M258.511 332.286H258.451C257.724 331.978 256.285 330.744 256.397 330.094C256.397 329.94 256.534 329.753 256.927 329.721C257.068 329.705 257.211 329.717 257.346 329.756C257.482 329.795 257.607 329.861 257.715 329.948C258.264 330.57 258.593 331.34 258.657 332.148C258.656 332.172 258.651 332.194 258.641 332.215C258.63 332.236 258.615 332.255 258.597 332.27C258.57 332.283 258.541 332.289 258.511 332.286ZM257.039 329.972H256.953C256.696 329.972 256.679 330.086 256.679 330.118C256.611 330.508 257.587 331.483 258.331 331.905C258.266 331.253 257.988 330.637 257.535 330.143C257.395 330.029 257.215 329.968 257.03 329.972H257.039Z" fill="#1E5F6E"/>
<path d="M265.121 332.156H259.103L258.504 318.929H264.522L265.121 332.156Z" fill="#FF8B7B"/>
<path d="M309.315 329.509L303.434 330.719L297.52 318.401L303.409 317.191L309.315 329.509Z" fill="#FF8B7B"/>
<path d="M302.861 330.159L309.478 328.803C309.594 328.78 309.714 328.794 309.82 328.844C309.926 328.894 310.01 328.977 310.06 329.079L312.354 333.805C312.415 333.919 312.447 334.046 312.447 334.174C312.446 334.302 312.414 334.429 312.352 334.543C312.29 334.657 312.201 334.755 312.091 334.83C311.981 334.905 311.854 334.954 311.721 334.974C309.41 335.404 308.254 335.51 305.352 336.103C303.563 336.476 299.523 337.41 297.049 337.913C294.575 338.417 293.728 336.168 294.695 335.754C299.018 333.878 300.815 332.229 301.988 330.695C302.2 330.421 302.511 330.23 302.861 330.159Z" fill="#263238"/>
<path d="M259.147 331.49H265.721C265.84 331.491 265.956 331.53 266.049 331.601C266.142 331.671 266.208 331.77 266.235 331.88L267.425 336.955C267.459 337.078 267.464 337.206 267.436 337.331C267.409 337.455 267.352 337.572 267.269 337.671C267.185 337.771 267.079 337.85 266.957 337.904C266.835 337.957 266.702 337.983 266.569 337.978C264.197 337.938 260.773 337.808 257.795 337.808C254.302 337.808 251.298 337.986 247.206 337.986C244.732 337.986 244.047 335.615 245.083 335.396C249.791 334.422 253.643 334.316 257.709 331.937C258.136 331.666 258.634 331.511 259.147 331.49Z" fill="#263238"/>
<path d="M283.481 137.228C289.122 138.454 293.753 152.12 293.753 152.12L282.479 160.297C279.553 157.329 277.488 153.692 276.487 149.741C274.493 142.579 277.711 135.961 283.481 137.228Z" fill="#1E5F6E"/>
<path opacity="0.4" d="M283.481 137.228C289.122 138.454 293.753 152.12 293.753 152.12L282.479 160.297C279.553 157.329 277.488 153.692 276.487 149.741C274.493 142.579 277.711 135.961 283.481 137.228Z" fill="black"/>
<path d="M253.805 153.525C252.401 154.962 250.997 156.245 249.525 157.585C248.797 158.234 248.061 158.884 247.308 159.509L246.169 160.459L245.887 160.694L245.399 161.068C244.897 161.449 244.34 161.76 243.747 161.994C243.086 162.26 242.376 162.398 241.658 162.4C241.045 162.402 240.436 162.3 239.86 162.099C239.222 161.869 238.64 161.518 238.148 161.068C237.521 160.487 237.062 159.763 236.813 158.965C236.683 158.572 236.6 158.166 236.565 157.755C236.52 157.274 236.52 156.791 236.565 156.31C236.608 155.92 236.659 155.579 236.728 155.262C236.962 154.155 237.294 153.069 237.72 152.014C238.106 151.012 238.549 150.031 239.047 149.075C239.595 148.044 240.117 147.288 240.639 146.428C242.76 143.132 245.181 140.018 247.873 137.122C250.538 134.243 253.475 131.601 256.647 129.229L259.797 132.307C257.588 135.116 255.414 138.129 253.402 141.093C251.4 144.04 249.571 147.089 247.924 150.228C247.556 150.991 247.068 151.852 246.837 152.469C246.531 153.186 246.265 153.918 246.041 154.661C245.825 155.331 245.662 156.015 245.553 156.708C245.547 156.816 245.547 156.924 245.553 157.032C245.553 157.097 245.553 157.13 245.553 156.959C245.539 156.777 245.501 156.597 245.442 156.423C245.257 155.848 244.917 155.327 244.457 154.913C244.048 154.556 243.568 154.28 243.045 154.101C242.585 153.936 242.098 153.851 241.607 153.849C241.134 153.844 240.665 153.93 240.229 154.101C240.081 154.158 239.938 154.226 239.801 154.304L240.126 154.02L241.162 153.127L243.207 151.308C244.56 150.098 245.921 148.807 247.205 147.605L253.805 153.525Z" fill="#FF8B7B"/>
<path opacity="0.2" d="M278.644 147.264C281.709 150.138 282.71 155.384 282.924 159.931L282.428 160.296C279.501 157.328 277.437 153.691 276.436 149.74C276.324 149.318 276.222 148.928 276.145 148.465L278.644 147.264Z" fill="black"/>
<path d="M247.823 142.912C246.591 149.083 245.82 161.758 249.39 186.849H281.627C281.849 182.164 278.742 159.282 283.51 137.187C279.947 136.538 276.345 136.107 272.724 135.896C268.163 135.648 263.59 135.648 259.028 135.896C257.522 136.026 256.032 136.237 254.748 136.456C253.041 136.741 251.464 137.51 250.228 138.663C248.991 139.815 248.153 141.297 247.823 142.912Z" fill="#1E5F6E"/>
<path opacity="0.4" d="M247.823 142.912C246.591 149.083 245.82 161.758 249.39 186.849H281.627C281.849 182.164 278.742 159.282 283.51 137.187C279.947 136.538 276.345 136.107 272.724 135.896C268.163 135.648 263.59 135.648 259.028 135.896C257.522 136.026 256.032 136.237 254.748 136.456C253.041 136.741 251.464 137.51 250.228 138.663C248.991 139.815 248.153 141.297 247.823 142.912Z" fill="black"/>
<path opacity="0.2" d="M252.752 152.063L246.931 150.739C246.751 154.085 246.734 158.226 246.991 163.35C249.67 160.459 253.094 155.944 252.752 152.063Z" fill="black"/>
<path opacity="0.2" d="M258.504 318.929L258.812 325.75H264.838L264.53 318.929H258.504Z" fill="black"/>
<path opacity="0.2" d="M303.409 317.191L297.52 318.401L300.567 324.751L306.456 323.541L303.409 317.191Z" fill="black"/>
<path d="M273.859 117.057C272.319 122.53 271.702 125.811 268.141 128.084C262.791 131.543 256.114 127.581 255.943 121.799C255.755 116.578 258.314 108.499 264.503 107.394C265.863 107.152 267.266 107.243 268.579 107.657C269.892 108.071 271.072 108.796 272.008 109.763C272.944 110.73 273.605 111.906 273.929 113.183C274.253 114.459 274.229 115.792 273.859 117.057Z" fill="#FF8B7B"/>
<path d="M260.352 117.26C260.061 116.529 258.734 110.87 259.984 109.4C261.234 107.93 275.486 108.994 277.592 110.959C281.093 114.207 278.662 117.13 274.836 120.89C271.96 123.716 271.848 126.899 270.393 127.386C267.825 128.198 263.905 127.435 263.117 124.861C262.33 122.287 260.352 117.26 260.352 117.26Z" fill="#263238"/>
<path d="M275.863 104.52C270.829 102.49 261.388 104.74 256.286 103.57C256.221 105.37 256.845 107.131 258.042 108.528C259.24 109.925 260.93 110.864 262.8 111.171C267.032 111.936 271.332 112.314 275.64 112.299C281.238 112.056 280.143 106.25 275.863 104.52Z" fill="#263238"/>
<path d="M276.652 111.13C278.491 111.302 280.343 110.966 281.985 110.164C282.927 112.324 277.748 112.917 276.652 111.13Z" fill="#263238"/>
<path d="M263.093 117.488C262.977 118.896 262.376 120.229 261.381 121.28C260.063 122.652 258.693 121.792 258.462 120.127C258.256 118.617 258.684 116.067 260.294 115.336C261.903 114.605 263.204 115.791 263.093 117.488Z" fill="#FF8B7B"/>
<path d="M260.816 186.874C260.816 186.874 267.664 230.519 271.405 246.872C275.505 264.777 297.539 324.012 297.539 324.012L308.316 321.796C308.316 321.796 292.908 273.514 289.484 248.48C286.83 229.252 281.617 186.857 281.617 186.857L260.816 186.874Z" fill="#1E5F6E"/>
<path d="M294.954 320.61C294.911 320.61 296.965 324.312 296.965 324.312L309.086 321.819L308.068 318.36L294.954 320.61Z" fill="#263238"/>
<path opacity="0.3" d="M265.14 202.424C273.041 203.893 272.202 231.842 271.252 246.223C268.975 236.057 265.636 216.504 263.359 202.627C263.911 202.368 264.539 202.297 265.14 202.424Z" fill="black"/>
<path d="M249.386 186.873C249.386 186.873 248.53 229.576 249.215 246.961C249.9 265.077 256.568 324.394 256.568 324.394H266.771C266.771 324.394 267.139 266.133 267.627 248.342C268.124 228.951 270.589 186.841 270.589 186.841L249.386 186.873Z" fill="#1E5F6E"/>
<path d="M254.608 320.577C254.557 320.577 255.182 324.588 255.182 324.588H267.585L267.928 321.008L254.608 320.577Z" fill="#263238"/>
<path d="M260.441 144.812C263.325 152.193 246.368 160.89 246.368 160.89L239.023 151.958C239.023 151.958 243.963 142.685 249.955 138.511C257.359 133.363 258.241 139.193 260.441 144.812Z" fill="#1E5F6E"/>
<path opacity="0.4" d="M260.441 144.812C263.325 152.193 246.368 160.89 246.368 160.89L239.023 151.958C239.023 151.958 243.963 142.685 249.955 138.511C257.359 133.363 258.241 139.193 260.441 144.812Z" fill="black"/>
<path d="M326.881 88.7758C343.943 88.7758 357.774 80.4143 357.774 70.0998C357.774 59.7854 343.943 51.4238 326.881 51.4238C309.82 51.4238 295.988 59.7854 295.988 70.0998C295.988 80.4143 309.82 88.7758 326.881 88.7758Z" fill="#1E5F6E"/>
<path d="M315.735 79.5028C313.699 79.4965 311.732 78.8101 310.177 77.5642C308.623 76.3182 307.581 74.5925 307.234 72.6901C306.894 70.6294 307.384 68.5227 308.607 66.7893C309.83 65.0559 311.696 63.8229 313.834 63.3358C315.589 62.9523 317.426 63.1001 319.087 63.7585C320.749 64.4168 322.151 65.5526 323.096 67.0061L342.93 63.1247C343.692 62.9664 344.489 63.0866 345.162 63.4614C345.835 63.8362 346.334 64.438 346.559 65.1466C346.663 65.5191 346.686 65.9078 346.626 66.2889C346.566 66.67 346.424 67.0355 346.21 67.3631C345.997 67.6907 345.714 67.9734 345.381 68.194C345.048 68.4147 344.671 68.5686 344.274 68.6463L343.76 68.7438C343.684 68.7567 343.612 68.7862 343.549 68.8298C343.487 68.8735 343.436 68.9302 343.4 68.9955C343.369 69.0618 343.352 69.1338 343.352 69.2066C343.352 69.2794 343.369 69.3514 343.4 69.4177L343.751 70.2784C343.869 70.5574 343.88 70.8666 343.783 71.1526C343.687 71.4387 343.488 71.6838 343.221 71.8456C343.01 71.9689 342.832 72.1361 342.7 72.3345C342.568 72.5329 342.486 72.7573 342.459 72.9905C342.434 73.2582 342.32 73.5115 342.134 73.7142C341.948 73.9169 341.699 74.0586 341.423 74.1192L341.021 74.2004C340.742 74.2493 340.454 74.2127 340.198 74.0959C339.943 73.9791 339.733 73.7882 339.6 73.5508C339.422 73.2676 339.156 73.044 338.838 72.9113C338.52 72.7785 338.166 72.7432 337.826 72.8102C337.486 72.8773 337.176 73.0433 336.94 73.2852C336.704 73.5272 336.554 73.8329 336.51 74.1598C336.486 74.4258 336.373 74.6777 336.189 74.8791C336.004 75.0805 335.757 75.221 335.482 75.2803L335.08 75.3615C334.801 75.4091 334.514 75.372 334.259 75.2553C334.003 75.1386 333.794 74.9485 333.659 74.712C333.531 74.5106 333.358 74.338 333.153 74.2062C332.947 74.0744 332.714 73.9865 332.469 73.9487C332.14 73.9111 331.837 73.7608 331.616 73.5261C331.395 73.2914 331.273 72.9883 331.271 72.6738V71.7481C331.267 71.6757 331.248 71.6049 331.213 71.5404C331.178 71.476 331.128 71.4195 331.068 71.3748C331.008 71.3301 330.938 71.2982 330.864 71.2813C330.79 71.2645 330.712 71.2631 330.638 71.2772L324.312 72.5114C324.054 74.1739 323.262 75.7206 322.044 76.941C320.827 78.1614 319.242 78.9964 317.506 79.3322C316.923 79.4453 316.33 79.5025 315.735 79.5028ZM314.023 64.0748C312.081 64.505 310.383 65.617 309.272 67.1869C308.16 68.7569 307.716 70.6681 308.031 72.5358C308.367 74.2734 309.348 75.8393 310.796 76.9503C312.244 78.0612 314.064 78.6439 315.925 78.5929C317.787 78.5419 319.568 77.8606 320.946 76.6721C322.324 75.4837 323.208 73.8667 323.439 72.1135V71.8212L330.415 70.4814C330.615 70.4355 330.823 70.4324 331.025 70.4724C331.227 70.5124 331.416 70.5945 331.58 70.7127C331.744 70.8309 331.878 70.9822 331.973 71.1557C332.067 71.3292 332.12 71.5205 332.127 71.7157V72.6413C332.129 72.7516 332.171 72.8578 332.246 72.9421C332.32 73.0264 332.424 73.0837 332.538 73.1042C332.912 73.155 333.269 73.286 333.582 73.4872C333.895 73.6884 334.156 73.9545 334.344 74.2653C334.389 74.353 334.462 74.4251 334.553 74.4716C334.643 74.5182 334.747 74.5369 334.849 74.5252L335.243 74.444C335.343 74.4196 335.431 74.3654 335.496 74.2893C335.561 74.2133 335.598 74.1194 335.602 74.0218C335.656 73.5163 335.878 73.0401 336.236 72.6622C336.594 72.2842 337.069 72.024 337.594 71.9192C338.118 71.8143 338.663 71.8703 339.152 72.0789C339.64 72.2875 340.046 72.6381 340.31 73.0798C340.354 73.1668 340.426 73.2386 340.515 73.2852C340.604 73.3318 340.706 73.3508 340.807 73.3397L341.218 73.2585C341.316 73.2326 341.403 73.1778 341.466 73.1018C341.529 73.0259 341.565 72.9329 341.569 72.8362C341.611 72.4797 341.739 72.1371 341.942 71.8345C342.145 71.532 342.419 71.2775 342.741 71.0904C342.836 71.0259 342.905 70.9333 342.937 70.8274C342.97 70.7215 342.964 70.6083 342.921 70.5058L342.57 69.6451C342.498 69.4676 342.467 69.2773 342.48 69.0874C342.493 68.8974 342.549 68.7125 342.646 68.5455C342.742 68.3784 342.875 68.2333 343.037 68.1203C343.198 68.0073 343.384 67.9291 343.58 67.8911L344.102 67.7856C344.385 67.7284 344.652 67.6178 344.889 67.4603C345.125 67.3028 345.326 67.1017 345.479 66.8689C345.631 66.6362 345.733 66.3767 345.777 66.1058C345.822 65.835 345.808 65.5585 345.737 65.2928C345.57 64.7817 345.206 64.3496 344.717 64.083C344.228 63.8164 343.65 63.7352 343.101 63.8555L322.711 67.8749L322.557 67.6232C321.738 66.2398 320.466 65.1469 318.934 64.5096C317.402 63.8724 315.693 63.7254 314.065 64.091L314.023 64.0748ZM315.735 76.4821C314.671 76.4933 313.627 76.2112 312.73 75.6701C311.668 75.0091 310.882 74.0192 310.503 72.8694C310.125 71.7195 310.179 70.4809 310.656 69.3645C311.133 68.2481 312.003 67.3232 313.118 66.7474C314.234 66.1716 315.525 65.9805 316.772 66.2068C318.019 66.4331 319.145 67.0627 319.958 67.9883C320.77 68.9139 321.219 70.0782 321.228 71.2827C321.237 72.4872 320.805 73.6573 320.006 74.5936C319.207 75.5299 318.091 76.1743 316.847 76.4172C316.483 76.4797 316.113 76.5069 315.743 76.4983L315.735 76.4821ZM315.735 66.8924C315.416 66.8941 315.097 66.924 314.784 66.9817C314.188 67.1022 313.623 67.3329 313.12 67.6607C312.618 67.9885 312.189 68.407 311.857 68.8922C311.525 69.3774 311.297 69.9199 311.186 70.4886C311.075 71.0574 311.084 71.6412 311.211 72.2069C311.338 72.7726 311.581 73.309 311.926 73.7856C312.272 74.2621 312.713 74.6694 313.225 74.9842C313.736 75.299 314.308 75.5151 314.908 75.6203C315.507 75.7254 316.123 75.7175 316.719 75.597C317.614 75.4202 318.434 74.996 319.076 74.3778C319.717 73.7596 320.151 72.975 320.323 72.1231C320.495 71.2712 320.398 70.39 320.043 69.5907C319.688 68.7913 319.091 68.1095 318.328 67.6313C317.57 67.1532 316.679 66.9015 315.769 66.9086L315.735 66.8924Z" fill="white"/>
<path opacity="0.6" d="M301.738 99.7296C307.345 99.7296 311.89 96.9812 311.89 93.5909C311.89 90.2006 307.345 87.4521 301.738 87.4521C296.131 87.4521 291.586 90.2006 291.586 93.5909C291.586 96.9812 296.131 99.7296 301.738 99.7296Z" fill="#1E5F6E"/>
<path opacity="0.3" d="M285.587 102.247C287.889 102.247 289.755 101.12 289.755 99.7301C289.755 98.3399 287.889 97.2129 285.587 97.2129C283.284 97.2129 281.418 98.3399 281.418 99.7301C281.418 101.12 283.284 102.247 285.587 102.247Z" fill="#1E5F6E"/>
</svg>
