<svg width="428" height="444" viewBox="0 0 428 444" fill="none" xmlns="http://www.w3.org/2000/svg">
<path d="M428 339.571H0V339.793H428V339.571Z" fill="#EBEBEB"/>
<path d="M73.257 353.859H44.9062V354.081H73.257V353.859Z" fill="#EBEBEB"/>
<path d="M153.935 356.274H146.496V356.496H153.935V356.274Z" fill="#EBEBEB"/>
<path d="M95.8728 345.618H74.1133V345.84H95.8728V345.618Z" fill="#EBEBEB"/>
<path d="M385.113 347.11H361.23V347.332H385.113V347.11Z" fill="#EBEBEB"/>
<path d="M353.613 347.11H335.098V347.332H353.613V347.11Z" fill="#EBEBEB"/>
<path d="M281.334 350.857H237.293V351.079H281.334V350.857Z" fill="#EBEBEB"/>
<path d="M202.871 299.966H37.5862C36.2914 299.964 35.0504 299.429 34.1356 298.478C33.2208 297.527 32.707 296.239 32.707 294.896V53.8659C32.7183 52.5304 33.2371 51.2534 34.1506 50.3123C35.0642 49.3713 36.2988 48.8421 37.5862 48.8398H202.871C204.168 48.8398 205.411 49.3741 206.327 50.325C207.244 51.2759 207.759 52.5655 207.759 53.9103V294.896C207.759 296.241 207.244 297.53 206.327 298.481C205.411 299.432 204.168 299.966 202.871 299.966ZM37.5862 49.0174C36.3482 49.0198 35.1616 49.5317 34.2869 50.4407C33.4123 51.3497 32.921 52.5816 32.921 53.8659V294.896C32.921 296.18 33.4123 297.412 34.2869 298.321C35.1616 299.23 36.3482 299.742 37.5862 299.744H202.871C204.11 299.742 205.298 299.23 206.174 298.322C207.05 297.413 207.543 296.181 207.545 294.896V53.8659C207.543 52.5807 207.05 51.3489 206.174 50.4401C205.298 49.5314 204.11 49.0198 202.871 49.0174H37.5862Z" fill="#EBEBEB"/>
<path d="M388.033 299.966H222.739C221.444 299.964 220.202 299.429 219.286 298.479C218.37 297.528 217.854 296.24 217.852 294.896V53.8659C217.865 52.5296 218.386 51.2526 219.301 50.3118C220.216 49.371 221.451 48.8421 222.739 48.8398H388.033C389.319 48.8445 390.551 49.3746 391.463 50.3155C392.375 51.2563 392.892 52.5319 392.904 53.8659V294.896C392.904 296.237 392.391 297.524 391.478 298.475C390.565 299.425 389.326 299.962 388.033 299.966ZM222.739 49.0174C221.5 49.0198 220.313 49.5314 219.437 50.4401C218.561 51.3489 218.068 52.5807 218.066 53.8659V294.896C218.068 296.181 218.561 297.413 219.437 298.322C220.313 299.23 221.5 299.742 222.739 299.744H388.033C389.272 299.742 390.459 299.23 391.335 298.322C392.211 297.413 392.704 296.181 392.707 294.896V53.8659C392.704 52.5807 392.211 51.3489 391.335 50.4401C390.459 49.5314 389.272 49.0198 388.033 49.0174H222.739Z" fill="#EBEBEB"/>
<path d="M98.8779 219.336H71.2891V339.571H118.883V240.088L98.8779 219.336Z" fill="#E0E0E0"/>
<path d="M91.2938 240.079H51.293V339.562H91.2938V240.079Z" fill="#EBEBEB"/>
<path d="M91.2938 240.079H51.293V241.713H91.2938V240.079Z" fill="#E0E0E0"/>
<path d="M71.2891 219.336L51.293 240.088H91.2853L71.2891 219.336Z" fill="#EBEBEB"/>
<path d="M65.244 253.08H57.9766V260.619H65.244V253.08Z" fill="#E0E0E0"/>
<path d="M81.2089 253.08H73.9414V260.619H81.2089V253.08Z" fill="#E0E0E0"/>
<path d="M65.244 274.685H57.9766V282.224H65.244V274.685Z" fill="#E0E0E0"/>
<path d="M81.2089 274.685H73.9414V282.224H81.2089V274.685Z" fill="#E0E0E0"/>
<path d="M65.244 296.29H57.9766V303.829H65.244V296.29Z" fill="#E0E0E0"/>
<path d="M81.2089 296.29H73.9414V303.829H81.2089V296.29Z" fill="#E0E0E0"/>
<path d="M65.244 317.895H57.9766V325.434H65.244V317.895Z" fill="#E0E0E0"/>
<path d="M81.2089 317.895H73.9414V325.434H81.2089V317.895Z" fill="#E0E0E0"/>
<path d="M111.262 220.943H104.73V234.494H111.262V220.943Z" fill="#E0E0E0"/>
<path d="M253.967 203.503H219.855V339.571H278.688V229.157L253.967 203.503Z" fill="#E0E0E0"/>
<path d="M244.576 229.157H195.125V339.571H244.576V229.157Z" fill="#EBEBEB"/>
<path d="M244.576 229.157H195.125V231.182H244.576V229.157Z" fill="#E0E0E0"/>
<path d="M219.855 203.503L195.125 229.157H244.576L219.855 203.503Z" fill="#EBEBEB"/>
<path d="M275.086 245.691L253.523 245.683V339.571H299.816V271.337L275.086 245.691Z" fill="#E0E0E0"/>
<path d="M253.523 245.683V271.337V339.571H278.253V271.337L253.523 245.683Z" fill="#EBEBEB"/>
<path d="M222.809 251.517H216.902V264.561H222.809V251.517Z" fill="#E0E0E0"/>
<path d="M235.844 251.517H229.938V264.561H235.844V251.517Z" fill="#E0E0E0"/>
<path d="M222.809 276.328H216.902V289.373H222.809V276.328Z" fill="#E0E0E0"/>
<path d="M235.844 276.328H229.938V289.373H235.844V276.328Z" fill="#E0E0E0"/>
<path d="M222.809 301.13H216.902V314.175H222.809V301.13Z" fill="#E0E0E0"/>
<path d="M209.762 251.517H203.855V264.561H209.762V251.517Z" fill="#E0E0E0"/>
<path d="M209.762 276.328H203.855V289.373H209.762V276.328Z" fill="#E0E0E0"/>
<path d="M209.762 301.13H203.855V314.175H209.762V301.13Z" fill="#E0E0E0"/>
<path d="M235.844 301.13H229.938V314.175H235.844V301.13Z" fill="#E0E0E0"/>
<path d="M266.473 276.328H260.566V289.373H266.473V276.328Z" fill="#E0E0E0"/>
<path d="M266.473 301.13H260.566V314.175H266.473V301.13Z" fill="#E0E0E0"/>
<path d="M160.089 246.891H129.051V339.571H182.594V270.236L160.089 246.891Z" fill="#E0E0E0"/>
<path d="M151.547 270.236H106.547V339.571H151.547V270.236Z" fill="#EBEBEB"/>
<path d="M151.547 270.236H106.547V272.074H151.547V270.236Z" fill="#E0E0E0"/>
<path d="M129.051 246.891L106.547 270.236H151.547L129.051 246.891Z" fill="#EBEBEB"/>
<path d="M122.245 284.861H114.07V293.342H122.245V284.861Z" fill="#E0E0E0"/>
<path d="M140.214 284.861H132.039V293.342H140.214V284.861Z" fill="#E0E0E0"/>
<path d="M122.245 309.166H114.07V317.646H122.245V309.166Z" fill="#E0E0E0"/>
<path d="M140.214 309.166H132.039V317.646H140.214V309.166Z" fill="#E0E0E0"/>
<path d="M133.988 236.634H124.102V257.147H133.988V236.634Z" fill="#EBEBEB"/>
<path d="M353.014 265.911H320.512V339.571H376.571V284.461L353.014 265.911Z" fill="#E0E0E0"/>
<path d="M344.079 284.462H296.965V339.562H344.079V284.462Z" fill="#EBEBEB"/>
<path d="M344.079 284.462H296.965V285.927H344.079V284.462Z" fill="#E0E0E0"/>
<path d="M320.513 265.911L296.965 284.461H344.071L320.513 265.911Z" fill="#EBEBEB"/>
<path d="M308.527 293.431H304.238V302.994H308.527V293.431Z" fill="#E0E0E0"/>
<path d="M317.953 293.431H313.664V302.994H317.953V293.431Z" fill="#E0E0E0"/>
<path d="M308.527 315.701H304.238V325.265H308.527V315.701Z" fill="#E0E0E0"/>
<path d="M317.953 315.701H313.664V325.265H317.953V315.701Z" fill="#E0E0E0"/>
<path d="M327.367 293.431H323.078V302.994H327.367V293.431Z" fill="#E0E0E0"/>
<path d="M336.792 293.431H332.504V302.994H336.792V293.431Z" fill="#E0E0E0"/>
<path d="M327.367 315.701H323.078V325.265H327.367V315.701Z" fill="#E0E0E0"/>
<path d="M336.792 315.701H332.504V325.265H336.792V315.701Z" fill="#E0E0E0"/>
<path d="M358.337 257.76H347.988V274.063H358.337V257.76Z" fill="#E0E0E0"/>
<path d="M172.307 103.338C175.75 81.3314 161.345 60.5954 140.131 57.0232C118.917 53.451 98.9285 68.3952 95.485 90.4021C92.0415 112.409 106.447 133.145 127.661 136.717C148.875 140.289 168.864 125.345 172.307 103.338Z" fill="#FAFAFA"/>
<path d="M291.603 133.316C297.424 124.054 307.011 117.465 315.854 117.465C321.392 117.465 325.612 120.058 328 124.285C330.942 121.931 334.517 120.584 338.229 120.431C344.221 120.431 348.014 124.871 348.116 131.184C351.021 129.786 354.155 128.973 357.352 128.787C363.413 128.503 367.779 131.069 369.602 135.234C370.8 134.535 372.134 134.126 373.505 134.035C376.989 133.875 378.855 136.459 377.674 139.807C377.597 140.02 377.511 140.224 377.434 140.429H279.91C280.133 137.143 287.272 133.484 291.603 133.316Z" fill="#FAFAFA"/>
<path d="M282.607 81.9797C285.312 77.6906 289.764 74.627 293.864 74.627C294.99 74.5769 296.109 74.8444 297.101 75.401C298.093 75.9576 298.92 76.7826 299.496 77.7883C300.865 76.7021 302.525 76.0818 304.247 76.0123C307.038 76.0123 308.784 78.0814 308.835 81.0029C310.182 80.3561 311.634 79.9795 313.115 79.8929C315.923 79.7597 317.952 80.9496 318.799 82.8766C319.354 82.5563 319.971 82.3682 320.605 82.326C320.934 82.2635 321.272 82.2969 321.583 82.4227C321.894 82.5485 322.165 82.7615 322.366 83.0381C322.567 83.3146 322.689 83.6437 322.72 83.9884C322.751 84.3331 322.688 84.68 322.54 84.99C322.54 85.0877 322.471 85.1854 322.429 85.283H277.172C277.292 83.7557 280.604 82.0596 282.607 81.9797Z" fill="#FAFAFA"/>
<path d="M147.052 97.7424C153.583 87.3528 164.343 79.9824 174.256 79.9824C180.47 79.9824 185.204 82.8951 187.875 87.637C191.478 84.973 195.519 83.3124 199.362 83.3124C206.116 83.3124 210.336 88.3119 210.447 95.3803C213.71 93.8228 217.227 92.9189 220.814 92.7163C227.602 92.3967 232.506 95.2738 234.552 99.9535C235.895 99.1707 237.39 98.7096 238.926 98.6038C242.838 98.4262 244.918 101.33 243.609 105.086C243.523 105.317 243.429 105.548 243.335 105.779H133.887C134.186 102.031 142.19 97.9289 147.052 97.7424Z" fill="#F0F0F0"/>
<path d="M65.054 147.123C65.3011 147.091 65.5499 147.077 65.7988 147.079C68.5123 144.202 71.6367 142.364 74.3588 142.364C75.2129 142.32 76.0599 142.543 76.7907 143.004C77.5215 143.464 78.1026 144.141 78.459 144.948C83.4495 139.371 89.3645 135.748 94.3806 135.748C98.4295 135.748 101.152 138.101 102.299 141.964C104.969 139.78 107.803 138.465 110.302 138.465C114.711 138.465 116.833 142.515 116.029 148.233C118.22 147.004 120.634 146.26 123.117 146.049C127.576 145.791 130.41 148.118 131.154 151.91C132.057 151.295 133.092 150.92 134.167 150.817C136.607 150.684 137.634 152.771 136.616 155.577H52.8047C55.1587 151.315 60.5087 147.603 65.054 147.123Z" fill="#F5F5F5"/>
<path d="M214.001 379.674C305.664 379.674 379.971 375.173 379.971 369.621C379.971 364.07 305.664 359.569 214.001 359.569C122.338 359.569 48.0312 364.07 48.0312 369.621C48.0312 375.173 122.338 379.674 214.001 379.674Z" fill="#F5F5F5"/>
<path d="M69.5859 369.621H95.8994L92.0303 288.795H73.4551L69.5859 369.621Z" fill="#1E5F6E"/>
<path opacity="0.1" d="M69.5859 369.621H95.8994L92.0303 288.795H73.4551L69.5859 369.621Z" fill="black"/>
<path d="M80.9111 331.171L85.7989 326.101L55.6762 296.353L52.2266 299.922L80.9111 331.171Z" fill="#1E5F6E"/>
<path opacity="0.1" d="M80.9111 331.171L85.7989 326.101L55.6762 296.353L52.2266 299.922L80.9111 331.171Z" fill="black"/>
<path d="M110.27 296.344C124.108 296.344 135.325 285.776 135.325 272.741C135.325 259.705 124.108 249.138 110.27 249.138C96.4324 249.138 85.2148 259.705 85.2148 272.741C85.2148 285.776 96.4324 296.344 110.27 296.344Z" fill="#1E5F6E"/>
<path d="M88.3744 265.867C99.0682 265.867 107.737 257.701 107.737 247.627C107.737 237.554 99.0682 229.388 88.3744 229.388C77.6807 229.388 69.0117 237.554 69.0117 247.627C69.0117 257.701 77.6807 265.867 88.3744 265.867Z" fill="#1E5F6E"/>
<path d="M79.4994 287.392C90.1932 287.392 98.8622 279.226 98.8622 269.153C98.8622 259.079 90.1932 250.913 79.4994 250.913C68.8057 250.913 60.1367 259.079 60.1367 269.153C60.1367 279.226 68.8057 287.392 79.4994 287.392Z" fill="#1E5F6E"/>
<path d="M63.3783 270.396C74.0721 270.396 82.7411 262.23 82.7411 252.156C82.7411 242.083 74.0721 233.917 63.3783 233.917C52.6846 233.917 44.0156 242.083 44.0156 252.156C44.0156 262.23 52.6846 270.396 63.3783 270.396Z" fill="#1E5F6E"/>
<path d="M55.2065 295.517C65.9002 295.517 74.5692 287.351 74.5692 277.278C74.5692 267.204 65.9002 259.038 55.2065 259.038C44.5127 259.038 35.8438 267.204 35.8438 277.278C35.8438 287.351 44.5127 295.517 55.2065 295.517Z" fill="#1E5F6E"/>
<path d="M62.6713 309.219C73.365 309.219 82.034 301.053 82.034 290.98C82.034 280.906 73.365 272.74 62.6713 272.74C51.9776 272.74 43.3086 280.906 43.3086 290.98C43.3086 301.053 51.9776 309.219 62.6713 309.219Z" fill="#1E5F6E"/>
<path d="M82.7425 305.783C97.4689 305.783 109.407 294.54 109.407 280.67C109.407 266.801 97.4689 255.558 82.7425 255.558C68.0162 255.558 56.0781 266.801 56.0781 280.67C56.0781 294.54 68.0162 305.783 82.7425 305.783Z" fill="#1E5F6E"/>
<path d="M96.6449 314.849C111.371 314.849 123.309 303.606 123.309 289.737C123.309 275.867 111.371 264.624 96.6449 264.624C81.9185 264.624 69.9805 275.867 69.9805 289.737C69.9805 303.606 81.9185 314.849 96.6449 314.849Z" fill="#1E5F6E"/>
<path d="M40.0368 274.126C47.3598 274.126 53.2962 268.532 53.2962 261.632C53.2962 254.732 47.3598 249.138 40.0368 249.138C32.7138 249.138 26.7773 254.732 26.7773 261.632C26.7773 268.532 32.7138 274.126 40.0368 274.126Z" fill="#1E5F6E"/>
<path d="M47.7829 265.867C55.1059 265.867 61.0423 260.273 61.0423 253.373C61.0423 246.473 55.1059 240.879 47.7829 240.879C40.4599 240.879 34.5234 246.473 34.5234 253.373C34.5234 260.273 40.4599 265.867 47.7829 265.867Z" fill="#1E5F6E"/>
<path d="M112.556 256.934C119.879 256.934 125.816 251.34 125.816 244.439C125.816 237.539 119.879 231.945 112.556 231.945C105.233 231.945 99.2969 237.539 99.2969 244.439C99.2969 251.34 105.233 256.934 112.556 256.934Z" fill="#1E5F6E"/>
<g opacity="0.3">
<path d="M110.27 296.343C124.108 296.343 135.325 285.775 135.325 272.74C135.325 259.704 124.108 249.137 110.27 249.137C96.4324 249.137 85.2148 259.704 85.2148 272.74C85.2148 285.775 96.4324 296.343 110.27 296.343Z" fill="white"/>
<path d="M88.3744 265.867C99.0682 265.867 107.737 257.701 107.737 247.627C107.737 237.554 99.0682 229.388 88.3744 229.388C77.6807 229.388 69.0117 237.554 69.0117 247.627C69.0117 257.701 77.6807 265.867 88.3744 265.867Z" fill="white"/>
<path d="M79.4994 287.392C90.1932 287.392 98.8622 279.226 98.8622 269.153C98.8622 259.079 90.1932 250.913 79.4994 250.913C68.8057 250.913 60.1367 259.079 60.1367 269.153C60.1367 279.226 68.8057 287.392 79.4994 287.392Z" fill="white"/>
<path d="M63.3783 270.395C74.0721 270.395 82.7411 262.229 82.7411 252.156C82.7411 242.082 74.0721 233.916 63.3783 233.916C52.6846 233.916 44.0156 242.082 44.0156 252.156C44.0156 262.229 52.6846 270.395 63.3783 270.395Z" fill="white"/>
<path d="M55.2065 295.517C65.9002 295.517 74.5692 287.351 74.5692 277.278C74.5692 267.204 65.9002 259.038 55.2065 259.038C44.5127 259.038 35.8438 267.204 35.8438 277.278C35.8438 287.351 44.5127 295.517 55.2065 295.517Z" fill="white"/>
<path d="M62.6713 309.219C73.365 309.219 82.034 301.053 82.034 290.98C82.034 280.906 73.365 272.74 62.6713 272.74C51.9776 272.74 43.3086 280.906 43.3086 290.98C43.3086 301.053 51.9776 309.219 62.6713 309.219Z" fill="white"/>
<path d="M82.7425 305.782C97.4689 305.782 109.407 294.539 109.407 280.669C109.407 266.8 97.4689 255.557 82.7425 255.557C68.0162 255.557 56.0781 266.8 56.0781 280.669C56.0781 294.539 68.0162 305.782 82.7425 305.782Z" fill="white"/>
<path d="M96.6449 314.848C111.371 314.848 123.309 303.605 123.309 289.736C123.309 275.866 111.371 264.623 96.6449 264.623C81.9185 264.623 69.9805 275.866 69.9805 289.736C69.9805 303.605 81.9185 314.848 96.6449 314.848Z" fill="white"/>
<path d="M40.0368 274.125C47.3598 274.125 53.2962 268.531 53.2962 261.631C53.2962 254.731 47.3598 249.137 40.0368 249.137C32.7138 249.137 26.7773 254.731 26.7773 261.631C26.7773 268.531 32.7138 274.125 40.0368 274.125Z" fill="white"/>
<path d="M47.7829 265.866C55.1059 265.866 61.0423 260.272 61.0423 253.372C61.0423 246.472 55.1059 240.878 47.7829 240.878C40.4599 240.878 34.5234 246.472 34.5234 253.372C34.5234 260.272 40.4599 265.866 47.7829 265.866Z" fill="white"/>
<path d="M112.556 256.934C119.879 256.934 125.816 251.34 125.816 244.439C125.816 237.539 119.879 231.945 112.556 231.945C105.233 231.945 99.2969 237.539 99.2969 244.439C99.2969 251.34 105.233 256.934 112.556 256.934Z" fill="white"/>
</g>
<path d="M240.356 360.395C240.356 363.602 239.626 366.763 238.225 369.621H195.279C193.883 366.761 193.156 363.601 193.156 360.395C193.158 358.463 193.42 356.542 193.935 354.685L194.201 353.797C195.241 350.686 196.944 347.857 199.182 345.521C199.533 345.166 199.893 344.811 200.27 344.473C202.566 342.352 205.242 340.72 208.145 339.669C210.127 338.927 212.192 338.453 214.291 338.257C215.11 338.171 215.933 338.13 216.756 338.133C220.879 338.118 224.943 339.148 228.595 341.134C235.631 345.006 240.356 352.181 240.356 360.395Z" fill="#1E5F6E"/>
<path d="M196.135 353.921C206.205 353.921 214.368 346.228 214.368 336.738C214.368 327.249 206.205 319.556 196.135 319.556C186.065 319.556 177.902 327.249 177.902 336.738C177.902 346.228 186.065 353.921 196.135 353.921Z" fill="#1E5F6E"/>
<path d="M206.006 356.976C205.984 359.394 205.448 361.778 204.438 363.957C203.427 366.137 201.967 368.058 200.159 369.586H175.386C172.662 367.264 170.742 364.084 169.917 360.528C169.733 359.69 169.618 358.838 169.574 357.98C169.574 357.678 169.574 357.358 169.574 357.092C169.587 354.178 170.366 351.323 171.825 348.833C173.513 345.971 175.938 343.655 178.828 342.147C182.525 340.204 186.715 339.508 190.812 340.157C194.308 340.674 197.596 342.194 200.305 344.544C201.138 345.28 201.901 346.098 202.582 346.986C203.687 348.41 204.555 350.016 205.15 351.737C205.278 352.101 205.389 352.465 205.483 352.838C205.837 354.187 206.013 355.579 206.006 356.976Z" fill="#1E5F6E"/>
<path d="M172.596 358.193C182.666 358.193 190.829 350.5 190.829 341.01C190.829 331.52 182.666 323.827 172.596 323.827C162.526 323.827 154.363 331.52 154.363 341.01C154.363 350.5 162.526 358.193 172.596 358.193Z" fill="#1E5F6E"/>
<path d="M183.185 364.658C183.185 366.345 182.922 368.021 182.406 369.622H147.481C146.969 368.021 146.708 366.344 146.711 364.658C146.711 363.493 146.834 362.331 147.079 361.194C147.841 357.842 149.573 354.811 152.044 352.51C153.415 351.216 154.968 350.147 156.649 349.34C158.608 348.392 160.705 347.792 162.855 347.564C163.523 347.501 164.208 347.457 164.901 347.457C166.212 347.457 167.52 347.593 168.804 347.866C169.82 348.073 170.816 348.37 171.783 348.754C175.521 350.181 178.702 352.842 180.84 356.328C182.086 358.418 182.848 360.78 183.065 363.228C183.065 363.485 183.065 363.752 183.117 364.018C183.168 364.285 183.185 364.444 183.185 364.658Z" fill="#1E5F6E"/>
<path d="M188.09 369.621H155.793C158.228 365.382 162.183 362.316 166.793 361.097C167.826 360.812 168.879 360.613 169.943 360.502C174.452 360.017 178.985 361.155 182.783 363.725C182.92 363.823 183.048 363.912 183.176 364.018C185.189 365.492 186.866 367.404 188.09 369.621Z" fill="#1E5F6E"/>
<path d="M215.936 367.863C215.936 368.458 215.936 369.044 215.867 369.639H165.791C165.748 369.062 165.723 368.476 165.723 367.863C165.722 364.314 166.562 360.819 168.171 357.687C168.606 356.811 169.101 355.968 169.652 355.165C170.975 353.206 172.574 351.464 174.394 349.997C176.363 348.389 178.549 347.09 180.882 346.143C183.952 344.895 187.216 344.242 190.512 344.216H190.838C193.67 344.214 196.485 344.666 199.184 345.557C202.202 346.562 205.019 348.129 207.495 350.183C208.75 351.243 209.897 352.434 210.919 353.735C214.127 357.695 215.901 362.692 215.936 367.863Z" fill="#1E5F6E"/>
<path d="M227.987 369.621H179.871C180.533 367.517 181.497 365.53 182.73 363.724C182.833 363.565 182.953 363.387 183.073 363.227C185.854 359.384 189.617 356.425 193.935 354.685C194.643 354.4 195.37 354.143 196.118 353.912C198.248 353.258 200.447 352.876 202.666 352.775H203.925C204.438 352.775 204.952 352.775 205.448 352.82C207.302 352.917 209.141 353.215 210.935 353.708C219.136 355.91 225.556 361.948 227.987 369.621Z" fill="#1E5F6E"/>
<path d="M150.614 361.691C157.512 361.691 163.103 356.423 163.103 349.925C163.103 343.427 157.512 338.159 150.614 338.159C143.717 338.159 138.125 343.427 138.125 349.925C138.125 356.423 143.717 361.691 150.614 361.691Z" fill="#1E5F6E"/>
<path d="M157.907 353.922C164.805 353.922 170.396 348.654 170.396 342.156C170.396 335.657 164.805 330.39 157.907 330.39C151.009 330.39 145.418 335.657 145.418 342.156C145.418 348.654 151.009 353.922 157.907 353.922Z" fill="#1E5F6E"/>
<path d="M218.915 345.503C225.812 345.503 231.404 340.235 231.404 333.737C231.404 327.239 225.812 321.971 218.915 321.971C212.017 321.971 206.426 327.239 206.426 333.737C206.426 340.235 212.017 345.503 218.915 345.503Z" fill="#1E5F6E"/>
<g opacity="0.3">
<path d="M240.356 360.395C240.356 363.602 239.626 366.763 238.225 369.621H195.279C193.883 366.761 193.156 363.601 193.156 360.395C193.158 358.463 193.42 356.542 193.935 354.685L194.201 353.797C195.241 350.686 196.944 347.857 199.182 345.521C199.533 345.166 199.893 344.811 200.27 344.473C202.566 342.352 205.242 340.72 208.145 339.669C210.127 338.927 212.192 338.453 214.291 338.257C215.11 338.171 215.933 338.13 216.756 338.133C220.879 338.118 224.943 339.148 228.595 341.134C235.631 345.006 240.356 352.181 240.356 360.395Z" fill="white"/>
<path d="M196.135 353.921C206.205 353.921 214.368 346.228 214.368 336.738C214.368 327.249 206.205 319.556 196.135 319.556C186.065 319.556 177.902 327.249 177.902 336.738C177.902 346.228 186.065 353.921 196.135 353.921Z" fill="white"/>
<path d="M206.006 356.976C205.984 359.394 205.448 361.778 204.438 363.957C203.427 366.137 201.967 368.058 200.159 369.586H175.386C172.662 367.264 170.742 364.084 169.917 360.528C169.733 359.69 169.618 358.838 169.574 357.98C169.574 357.678 169.574 357.358 169.574 357.092C169.587 354.178 170.366 351.323 171.825 348.833C173.513 345.971 175.938 343.655 178.828 342.147C182.525 340.204 186.715 339.508 190.812 340.157C194.308 340.674 197.596 342.194 200.305 344.544C201.138 345.28 201.901 346.098 202.582 346.986C203.687 348.41 204.555 350.016 205.15 351.737C205.278 352.101 205.389 352.465 205.483 352.838C205.837 354.187 206.013 355.579 206.006 356.976Z" fill="white"/>
<path d="M172.596 358.193C182.666 358.193 190.829 350.5 190.829 341.01C190.829 331.52 182.666 323.827 172.596 323.827C162.526 323.827 154.363 331.52 154.363 341.01C154.363 350.5 162.526 358.193 172.596 358.193Z" fill="white"/>
<path d="M183.185 364.658C183.185 366.345 182.922 368.021 182.406 369.622H147.481C146.969 368.021 146.708 366.344 146.711 364.658C146.711 363.493 146.834 362.331 147.079 361.194C147.841 357.842 149.573 354.811 152.044 352.51C153.415 351.216 154.968 350.147 156.649 349.34C158.608 348.392 160.705 347.792 162.855 347.564C163.523 347.501 164.208 347.457 164.901 347.457C166.212 347.457 167.52 347.593 168.804 347.866C169.82 348.073 170.816 348.37 171.783 348.754C175.521 350.181 178.702 352.842 180.84 356.328C182.086 358.418 182.848 360.78 183.065 363.228C183.065 363.485 183.065 363.752 183.117 364.018C183.168 364.285 183.185 364.444 183.185 364.658Z" fill="white"/>
<path d="M188.09 369.621H155.793C158.228 365.382 162.183 362.316 166.793 361.097C167.826 360.812 168.879 360.613 169.943 360.502C174.452 360.017 178.985 361.155 182.783 363.725C182.92 363.823 183.048 363.912 183.176 364.018C185.189 365.492 186.866 367.404 188.09 369.621Z" fill="white"/>
<path d="M215.936 367.863C215.936 368.458 215.936 369.044 215.867 369.639H165.791C165.748 369.062 165.723 368.476 165.723 367.863C165.722 364.314 166.562 360.819 168.171 357.687C168.606 356.811 169.101 355.968 169.652 355.165C170.975 353.206 172.574 351.464 174.394 349.997C176.363 348.389 178.549 347.09 180.882 346.143C183.952 344.895 187.216 344.242 190.512 344.216H190.838C193.67 344.214 196.485 344.666 199.184 345.557C202.202 346.562 205.019 348.129 207.495 350.183C208.75 351.243 209.897 352.434 210.919 353.735C214.127 357.695 215.901 362.692 215.936 367.863Z" fill="white"/>
<path d="M227.987 369.621H179.871C180.533 367.517 181.497 365.53 182.73 363.724C182.833 363.565 182.953 363.387 183.073 363.227C185.854 359.384 189.617 356.425 193.935 354.685C194.643 354.4 195.37 354.143 196.118 353.912C198.248 353.258 200.447 352.876 202.666 352.775H203.925C204.438 352.775 204.952 352.775 205.448 352.82C207.302 352.917 209.141 353.215 210.935 353.708C219.136 355.91 225.556 361.948 227.987 369.621Z" fill="white"/>
<path d="M150.614 361.691C157.512 361.691 163.103 356.423 163.103 349.925C163.103 343.427 157.512 338.159 150.614 338.159C143.717 338.159 138.125 343.427 138.125 349.925C138.125 356.423 143.717 361.691 150.614 361.691Z" fill="white"/>
<path d="M157.907 353.922C164.805 353.922 170.396 348.654 170.396 342.156C170.396 335.657 164.805 330.39 157.907 330.39C151.009 330.39 145.418 335.657 145.418 342.156C145.418 348.654 151.009 353.922 157.907 353.922Z" fill="white"/>
<path d="M218.915 345.503C225.812 345.503 231.404 340.235 231.404 333.737C231.404 327.239 225.812 321.971 218.915 321.971C212.017 321.971 206.426 327.239 206.426 333.737C206.426 340.235 212.017 345.503 218.915 345.503Z" fill="white"/>
</g>
<path d="M296.074 369.621H331.872L326.608 259.695H301.339L296.074 369.621Z" fill="#1E5F6E"/>
<path opacity="0.1" d="M296.074 369.621H331.872L326.608 259.695H301.339L296.074 369.621Z" fill="black"/>
<path d="M311.484 317.327L318.136 310.436L277.176 269.97L272.477 274.836L311.484 317.327Z" fill="#1E5F6E"/>
<path opacity="0.1" d="M311.484 317.327L318.136 310.436L277.176 269.97L272.477 274.836L311.484 317.327Z" fill="black"/>
<path d="M351.417 269.97C370.238 269.97 385.495 255.598 385.495 237.869C385.495 220.14 370.238 205.768 351.417 205.768C332.597 205.768 317.34 220.14 317.34 237.869C317.34 255.598 332.597 269.97 351.417 269.97Z" fill="#1E5F6E"/>
<path d="M321.635 228.518C336.177 228.518 347.966 217.41 347.966 203.707C347.966 190.005 336.177 178.896 321.635 178.896C307.093 178.896 295.305 190.005 295.305 203.707C295.305 217.41 307.093 228.518 321.635 228.518Z" fill="#1E5F6E"/>
<path d="M309.565 257.795C324.107 257.795 335.895 246.687 335.895 232.985C335.895 219.282 324.107 208.174 309.565 208.174C295.023 208.174 283.234 219.282 283.234 232.985C283.234 246.687 295.023 257.795 309.565 257.795Z" fill="#1E5F6E"/>
<path d="M287.643 234.69C302.185 234.69 313.974 223.582 313.974 209.879C313.974 196.176 302.185 185.068 287.643 185.068C273.101 185.068 261.312 196.176 261.312 209.879C261.312 223.582 273.101 234.69 287.643 234.69Z" fill="#1E5F6E"/>
<path d="M276.522 268.842C291.064 268.842 302.853 257.734 302.853 244.031C302.853 230.329 291.064 219.221 276.522 219.221C261.98 219.221 250.191 230.329 250.191 244.031C250.191 257.734 261.98 268.842 276.522 268.842Z" fill="#1E5F6E"/>
<path d="M286.674 287.49C301.216 287.49 313.005 276.381 313.005 262.679C313.005 248.976 301.216 237.868 286.674 237.868C272.132 237.868 260.344 248.976 260.344 262.679C260.344 276.381 272.132 287.49 286.674 287.49Z" fill="#1E5F6E"/>
<path d="M313.975 282.819C334.001 282.819 350.235 267.524 350.235 248.657C350.235 229.791 334.001 214.496 313.975 214.496C293.949 214.496 277.715 229.791 277.715 248.657C277.715 267.524 293.949 282.819 313.975 282.819Z" fill="#1E5F6E"/>
<path d="M332.881 295.145C352.907 295.145 369.141 279.85 369.141 260.984C369.141 242.117 352.907 226.822 332.881 226.822C312.855 226.822 296.621 242.117 296.621 260.984C296.621 279.85 312.855 295.145 332.881 295.145Z" fill="#1E5F6E"/>
<path d="M255.903 239.742C265.864 239.742 273.939 232.137 273.939 222.755C273.939 213.373 265.864 205.768 255.903 205.768C245.942 205.768 237.867 213.373 237.867 222.755C237.867 232.137 245.942 239.742 255.903 239.742Z" fill="#1E5F6E"/>
<path d="M266.43 228.518C276.391 228.518 284.466 220.912 284.466 211.53C284.466 202.149 276.391 194.543 266.43 194.543C256.469 194.543 248.395 202.149 248.395 211.53C248.395 220.912 256.469 228.518 266.43 228.518Z" fill="#1E5F6E"/>
<path d="M354.524 216.37C364.485 216.37 372.56 208.765 372.56 199.383C372.56 190.001 364.485 182.396 354.524 182.396C344.563 182.396 336.488 190.001 336.488 199.383C336.488 208.765 344.563 216.37 354.524 216.37Z" fill="#1E5F6E"/>
<g opacity="0.3">
<path d="M351.417 269.97C370.238 269.97 385.495 255.598 385.495 237.869C385.495 220.14 370.238 205.768 351.417 205.768C332.597 205.768 317.34 220.14 317.34 237.869C317.34 255.598 332.597 269.97 351.417 269.97Z" fill="white"/>
<path d="M321.635 228.518C336.177 228.518 347.966 217.41 347.966 203.707C347.966 190.005 336.177 178.896 321.635 178.896C307.093 178.896 295.305 190.005 295.305 203.707C295.305 217.41 307.093 228.518 321.635 228.518Z" fill="white"/>
<path d="M309.565 257.795C324.107 257.795 335.895 246.687 335.895 232.985C335.895 219.282 324.107 208.174 309.565 208.174C295.023 208.174 283.234 219.282 283.234 232.985C283.234 246.687 295.023 257.795 309.565 257.795Z" fill="white"/>
<path d="M287.643 234.69C302.185 234.69 313.974 223.582 313.974 209.879C313.974 196.176 302.185 185.068 287.643 185.068C273.101 185.068 261.312 196.176 261.312 209.879C261.312 223.582 273.101 234.69 287.643 234.69Z" fill="white"/>
<path d="M276.526 268.842C291.068 268.842 302.856 257.734 302.856 244.031C302.856 230.329 291.068 219.221 276.526 219.221C261.984 219.221 250.195 230.329 250.195 244.031C250.195 257.734 261.984 268.842 276.526 268.842Z" fill="white"/>
<path d="M286.678 287.49C301.22 287.49 313.009 276.381 313.009 262.679C313.009 248.976 301.22 237.868 286.678 237.868C272.136 237.868 260.348 248.976 260.348 262.679C260.348 276.381 272.136 287.49 286.678 287.49Z" fill="white"/>
<path d="M313.975 282.819C334.001 282.819 350.235 267.524 350.235 248.657C350.235 229.791 334.001 214.496 313.975 214.496C293.949 214.496 277.715 229.791 277.715 248.657C277.715 267.524 293.949 282.819 313.975 282.819Z" fill="white"/>
<path d="M332.881 295.145C352.907 295.145 369.141 279.85 369.141 260.984C369.141 242.117 352.907 226.822 332.881 226.822C312.855 226.822 296.621 242.117 296.621 260.984C296.621 279.85 312.855 295.145 332.881 295.145Z" fill="white"/>
<path d="M255.903 239.742C265.864 239.742 273.939 232.137 273.939 222.755C273.939 213.373 265.864 205.768 255.903 205.768C245.942 205.768 237.867 213.373 237.867 222.755C237.867 232.137 245.942 239.742 255.903 239.742Z" fill="white"/>
<path d="M266.43 228.518C276.391 228.518 284.466 220.912 284.466 211.53C284.466 202.149 276.391 194.543 266.43 194.543C256.469 194.543 248.395 202.149 248.395 211.53C248.395 220.912 256.469 228.518 266.43 228.518Z" fill="white"/>
<path d="M354.524 216.37C364.485 216.37 372.56 208.765 372.56 199.383C372.56 190.001 364.485 182.396 354.524 182.396C344.563 182.396 336.488 190.001 336.488 199.383C336.488 208.765 344.563 216.37 354.524 216.37Z" fill="white"/>
</g>
<path d="M119.036 119.231H104.27V167.778H119.036V119.231Z" fill="#263238"/>
<path d="M144.707 111.319L76.7578 181.809H212.648L144.707 111.319Z" fill="#263238"/>
<path d="M144.708 117.305L82.5195 181.809H206.888L144.708 117.305Z" fill="#1E5F6E"/>
<path opacity="0.1" d="M117.547 170.754V174.51H171.869V170.754H117.547Z" fill="black"/>
<path opacity="0.1" d="M145.211 137.187V133.431H135.324V137.187H140.263V140.934H150.15V137.187H145.211Z" fill="black"/>
<path d="M199.5 177.84H89.9062V369.621H199.5V177.84Z" fill="#1E5F6E"/>
<path d="M201.63 367.205H87.7734V369.62H201.63V367.205Z" fill="#1E5F6E"/>
<path d="M88.4343 219.744V274.001H87.0391V276.869H89.9067V274.001V219.744H88.4343Z" fill="#1E5F6E"/>
<path d="M200.972 219.744V274.001H202.368V276.869H199.5V274.001V219.744H200.972Z" fill="#1E5F6E"/>
<path d="M86.9531 184.455H202.453L201.092 203.476H88.3142L86.9531 184.455Z" fill="#1E5F6E"/>
<path opacity="0.1" d="M199.5 181.809H89.9062V184.455H199.5V181.809Z" fill="black"/>
<path opacity="0.1" d="M199.5 203.316H89.9062V205.963H199.5V203.316Z" fill="black"/>
<path opacity="0.4" d="M144.709 146.564C138.522 146.564 132.589 149.114 128.215 153.652C123.84 158.19 121.383 164.345 121.383 170.762H168.026C168.026 164.346 165.57 158.193 161.197 153.655C156.825 149.117 150.894 146.567 144.709 146.564Z" fill="white"/>
<path opacity="0.3" d="M148.012 152.425C143.325 152.427 138.831 154.36 135.518 157.799C132.205 161.237 130.344 165.9 130.344 170.762H165.679C165.679 165.9 163.818 161.237 160.505 157.799C157.192 154.36 152.698 152.427 148.012 152.425Z" fill="#1E5F6E"/>
<path opacity="0.1" d="M93.537 188.176H92.2188V199.755H93.537V188.176Z" fill="black"/>
<path opacity="0.1" d="M100.014 188.176H98.6953V199.755H100.014V188.176Z" fill="black"/>
<path opacity="0.1" d="M106.494 188.176H105.176V199.755H106.494V188.176Z" fill="black"/>
<path opacity="0.1" d="M112.974 188.176H111.656V199.755H112.974V188.176Z" fill="black"/>
<path opacity="0.1" d="M119.447 188.176H118.129V199.755H119.447V188.176Z" fill="black"/>
<path opacity="0.1" d="M125.928 188.176H124.609V199.755H125.928V188.176Z" fill="black"/>
<path opacity="0.1" d="M132.408 188.176H131.09V199.755H132.408V188.176Z" fill="black"/>
<path opacity="0.1" d="M138.885 188.176H137.566V199.755H138.885V188.176Z" fill="black"/>
<path opacity="0.1" d="M145.357 188.176H144.039V199.755H145.357V188.176Z" fill="black"/>
<path opacity="0.1" d="M151.838 188.176H150.52V199.755H151.838V188.176Z" fill="black"/>
<path opacity="0.1" d="M158.318 188.176H157V199.755H158.318V188.176Z" fill="black"/>
<path opacity="0.1" d="M164.799 188.176H163.48V199.755H164.799V188.176Z" fill="black"/>
<path opacity="0.1" d="M171.279 188.176H169.961V199.755H171.279V188.176Z" fill="black"/>
<path opacity="0.1" d="M177.748 188.176H176.43V199.755H177.748V188.176Z" fill="black"/>
<path opacity="0.1" d="M184.228 188.176H182.91V199.755H184.228V188.176Z" fill="black"/>
<path opacity="0.1" d="M190.709 188.176H189.391V199.755H190.709V188.176Z" fill="black"/>
<path opacity="0.1" d="M197.189 188.176H195.871V199.755H197.189V188.176Z" fill="black"/>
<path opacity="0.1" d="M94.8113 280.616H93.5273V283.733H94.8113V280.616Z" fill="black"/>
<path opacity="0.1" d="M101.128 280.616H99.8438V283.733H101.128V280.616Z" fill="black"/>
<path opacity="0.1" d="M107.444 280.616H106.16V283.733H107.444V280.616Z" fill="black"/>
<path opacity="0.1" d="M113.764 280.616H112.48V283.733H113.764V280.616Z" fill="black"/>
<path opacity="0.1" d="M120.081 280.616H118.797V283.733H120.081V280.616Z" fill="black"/>
<path opacity="0.1" d="M126.397 280.616H125.113V283.733H126.397V280.616Z" fill="black"/>
<path opacity="0.1" d="M132.714 280.616H131.43V283.733H132.714V280.616Z" fill="black"/>
<path opacity="0.1" d="M139.03 280.616H137.746V283.733H139.03V280.616Z" fill="black"/>
<path opacity="0.1" d="M145.339 280.616H144.055V283.733H145.339V280.616Z" fill="black"/>
<path opacity="0.1" d="M151.659 280.616H150.375V283.733H151.659V280.616Z" fill="black"/>
<path opacity="0.1" d="M157.975 280.616H156.691V283.733H157.975V280.616Z" fill="black"/>
<path opacity="0.1" d="M164.292 280.616H163.008V283.733H164.292V280.616Z" fill="black"/>
<path opacity="0.1" d="M170.608 280.616H169.324V283.733H170.608V280.616Z" fill="black"/>
<path opacity="0.1" d="M176.929 280.616H175.645V283.733H176.929V280.616Z" fill="black"/>
<path opacity="0.1" d="M183.245 280.616H181.961V283.733H183.245V280.616Z" fill="black"/>
<path opacity="0.1" d="M189.554 280.616H188.27V283.733H189.554V280.616Z" fill="black"/>
<path opacity="0.1" d="M195.87 280.616H194.586V283.733H195.87V280.616Z" fill="black"/>
<path opacity="0.4" d="M125.969 273.992V219.735H100.674V273.992H125.969Z" fill="white"/>
<path opacity="0.1" d="M100.484 274.001V276.869H125.959V274.001H100.484Z" fill="black"/>
<path opacity="0.4" d="M125.969 248.524V245.212H100.674V248.524H125.969Z" fill="white"/>
<path opacity="0.4" d="M124.051 221.725H102.582V272.012H124.051V221.725Z" fill="white"/>
<path opacity="0.3" d="M122.442 230.107H105.836V272.012H122.442V230.107Z" fill="#1E5F6E"/>
<path opacity="0.4" d="M177.336 274.001V219.744H152.041V274.001H177.336Z" fill="white"/>
<path opacity="0.1" d="M140.402 274.001V276.869H188.98V274.001H140.402Z" fill="black"/>
<path opacity="0.4" d="M177.336 248.533V245.221H152.041V248.533H177.336Z" fill="white"/>
<path opacity="0.4" d="M175.422 221.725H153.953V272.012H175.422V221.725Z" fill="white"/>
<path opacity="0.3" d="M173.81 230.107H157.203V272.012H173.81V230.107Z" fill="#1E5F6E"/>
<path opacity="0.4" d="M188.98 274.001V219.744H180.729V274.001H188.98Z" fill="white"/>
<path opacity="0.4" d="M188.98 248.524V245.212H180.729V248.524H188.98Z" fill="white"/>
<path opacity="0.4" d="M187.062 221.725H182.637V272.012H187.062V221.725Z" fill="white"/>
<path opacity="0.4" d="M148.645 274.001V219.744H140.393V274.001H148.645Z" fill="white"/>
<path opacity="0.4" d="M148.645 248.524V245.212H140.393V248.524H148.645Z" fill="white"/>
<path opacity="0.4" d="M146.734 221.725H142.309V272.012H146.734V221.725Z" fill="white"/>
<path opacity="0.4" d="M177.336 347.048V292.791H152.041V347.048H177.336Z" fill="white"/>
<path opacity="0.1" d="M140.402 347.048V349.916H188.98V347.048H140.402Z" fill="black"/>
<path opacity="0.4" d="M177.336 321.58V318.268H152.041V321.58H177.336Z" fill="white"/>
<path opacity="0.4" d="M175.422 294.78H153.953V345.068H175.422V294.78Z" fill="white"/>
<path opacity="0.3" d="M173.81 303.163H157.203V345.068H173.81V303.163Z" fill="#1E5F6E"/>
<path opacity="0.4" d="M188.973 347.057V292.8H180.721V347.057H188.973Z" fill="white"/>
<path opacity="0.4" d="M188.973 321.589V318.276H180.721V321.589H188.973Z" fill="white"/>
<path opacity="0.4" d="M187.062 294.78H182.637V345.068H187.062V294.78Z" fill="white"/>
<path opacity="0.4" d="M148.645 347.057V292.8H140.393V347.057H148.645Z" fill="white"/>
<path opacity="0.4" d="M148.645 321.58V318.268H140.393V321.58H148.645Z" fill="white"/>
<path opacity="0.4" d="M146.734 294.78H142.309V345.068H146.734V294.78Z" fill="white"/>
<path opacity="0.1" d="M134.999 364.79V359.959H97.121V364.79H94.707V369.62H137.413V364.79H134.999Z" fill="black"/>
<path opacity="0.4" d="M116.065 292.8C120.487 292.8 124.728 294.622 127.856 297.866C130.983 301.11 132.739 305.51 132.739 310.098V359.959H99.3555V310.098C99.3555 307.823 99.7879 305.571 100.628 303.47C101.468 301.369 102.699 299.461 104.252 297.854C105.804 296.247 107.646 294.974 109.673 294.106C111.7 293.239 113.872 292.795 116.065 292.8Z" fill="white"/>
<path opacity="0.5" d="M129.434 311.714H102.676V359.959H129.434V311.714Z" fill="#1E5F6E"/>
<path opacity="0.5" d="M116.066 296.165C114.728 296.164 113.402 296.436 112.165 296.967C110.928 297.497 109.804 298.276 108.858 299.257C107.911 300.238 107.16 301.404 106.647 302.686C106.135 303.969 105.871 305.344 105.871 306.732H126.252C126.252 305.345 125.989 303.97 125.477 302.688C124.965 301.406 124.215 300.241 123.269 299.26C122.323 298.279 121.2 297.5 119.964 296.969C118.728 296.438 117.404 296.165 116.066 296.165Z" fill="#1E5F6E"/>
<path d="M127.94 335.833C127.94 336.184 127.839 336.527 127.651 336.819C127.463 337.111 127.196 337.339 126.883 337.473C126.57 337.608 126.226 337.643 125.894 337.575C125.562 337.506 125.256 337.337 125.017 337.088C124.778 336.84 124.615 336.524 124.549 336.179C124.482 335.835 124.516 335.478 124.646 335.153C124.776 334.828 124.995 334.551 125.276 334.356C125.558 334.161 125.889 334.057 126.228 334.057C126.682 334.057 127.117 334.244 127.438 334.577C127.759 334.91 127.94 335.362 127.94 335.833Z" fill="#1E5F6E"/>
<path opacity="0.1" d="M112.309 213.341V217.098H122.195V213.341H112.309Z" fill="black"/>
<path opacity="0.1" d="M158.711 208.13V211.886H168.598V208.13H158.711Z" fill="black"/>
<path opacity="0.1" d="M183.203 358.378V354.631H173.316V358.378H178.256V362.134H188.142V358.378H183.203Z" fill="black"/>
<path d="M328.953 140.127H221.02V369.622H328.953V140.127Z" fill="#1E5F6E"/>
<path d="M236.341 112.386C236.24 112.385 236.138 112.404 236.044 112.444C235.95 112.484 235.864 112.542 235.791 112.617C235.719 112.691 235.661 112.78 235.622 112.877C235.583 112.975 235.562 113.079 235.563 113.185V136.433H237.112V113.185C237.112 112.973 237.031 112.77 236.886 112.62C236.742 112.47 236.546 112.386 236.341 112.386Z" fill="#263238"/>
<path d="M313.126 128.947C312.922 128.947 312.726 129.032 312.581 129.181C312.437 129.331 312.355 129.535 312.355 129.747V136.433H313.905V129.747C313.905 129.641 313.885 129.536 313.845 129.439C313.806 129.341 313.749 129.253 313.676 129.178C313.604 129.104 313.518 129.045 313.423 129.006C313.329 128.966 313.228 128.946 313.126 128.947Z" fill="#263238"/>
<path d="M249.225 118.451H247.676V136.433H249.225V118.451Z" fill="#263238"/>
<path d="M260.488 113.993C262.757 120.458 261.156 127.002 256.91 128.601C252.665 130.199 247.383 126.265 245.115 119.792C242.846 113.318 244.456 106.791 248.701 105.193C252.947 103.595 258.229 107.528 260.488 113.993Z" fill="#263238"/>
<path d="M328.953 258.479L367.987 285.643V369.622H328.953V258.479Z" fill="#1E5F6E"/>
<path opacity="0.1" d="M328.953 258.479L367.987 285.643V369.622H328.953V258.479Z" fill="black"/>
<path opacity="0.1" d="M358.718 345.628V341.552H347.992V345.628H353.359V349.704H364.076V345.628H358.718Z" fill="black"/>
<path d="M371.65 289.781L328.953 259.891V255.345L371.65 285.244V289.781Z" fill="#263238"/>
<path opacity="0.4" d="M361.234 329.173V293.369H334.758V329.173H361.234Z" fill="white"/>
<path opacity="0.4" d="M361.234 312.363V310.179H334.758V312.363H361.234Z" fill="white"/>
<path opacity="0.4" d="M360.085 294.684H335.895V327.868H360.085V294.684Z" fill="white"/>
<path opacity="0.3" d="M359.12 300.216H337.84V327.868H359.12V300.216Z" fill="#1E5F6E"/>
<path d="M328.952 140.126H221.019L219.547 137.693H330.425L328.952 140.126Z" fill="#1E5F6E"/>
<path opacity="0.2" d="M328.952 140.126H221.019L219.547 137.693H330.425L328.952 140.126Z" fill="black"/>
<path d="M331.059 137.694H218.914L217.391 135.163H332.583L331.059 137.694Z" fill="#263238"/>
<path opacity="0.2" d="M233.654 146.147H224.461V169.111H233.654V146.147Z" fill="black"/>
<path opacity="0.4" d="M232.292 149.549H225.82V165.728H232.292V149.549Z" fill="#1E5F6E"/>
<path opacity="0.2" d="M325.514 146.147H316.32V169.111H325.514V146.147Z" fill="black"/>
<path opacity="0.4" d="M324.143 149.549H317.672V165.728H324.143V149.549Z" fill="#1E5F6E"/>
<path opacity="0.2" d="M312.354 146.147H297.785V169.111H312.354V146.147Z" fill="black"/>
<path opacity="0.4" d="M310.205 149.549H299.941V165.728H310.205V149.549Z" fill="#1E5F6E"/>
<path opacity="0.2" d="M252.186 146.147H237.617V169.111H252.186V146.147Z" fill="black"/>
<path opacity="0.4" d="M250.037 149.549H239.773V165.728H250.037V149.549Z" fill="#1E5F6E"/>
<path opacity="0.2" d="M293.413 146.147H256.57V169.111H293.413V146.147Z" fill="black"/>
<path opacity="0.4" d="M287.961 149.549H262.016V165.728H287.961V149.549Z" fill="#1E5F6E"/>
<path opacity="0.4" d="M270.293 253.631V188.691H242.85V253.631H270.293Z" fill="white"/>
<path opacity="0.1" d="M230.223 253.622V255.345H282.918V253.622H230.223Z" fill="black"/>
<path opacity="0.4" d="M270.293 223.146V219.186H242.85V223.146H270.293Z" fill="white"/>
<path opacity="0.4" d="M268.21 191.062H244.918V251.251H268.21V191.062Z" fill="white"/>
<path opacity="0.3" d="M266.456 201.097H248.445V251.251H266.456V201.097Z" fill="#1E5F6E"/>
<path opacity="0.4" d="M282.91 253.622V188.683H273.965V253.622H282.91Z" fill="white"/>
<path opacity="0.4" d="M282.91 223.137V219.177H273.965V223.137H282.91Z" fill="white"/>
<path opacity="0.4" d="M280.837 191.062H276.043V251.251H280.837V191.062Z" fill="white"/>
<path opacity="0.4" d="M239.168 253.631V188.691H230.223V253.631H239.168Z" fill="white"/>
<path opacity="0.4" d="M239.168 223.137V219.177H230.223V223.137H239.168Z" fill="white"/>
<path opacity="0.4" d="M237.087 191.062H232.293V251.251H237.087V191.062Z" fill="white"/>
<path opacity="0.4" d="M270.293 334.483V269.544H242.85V334.483H270.293Z" fill="white"/>
<path opacity="0.1" d="M230.215 334.483V336.206H282.91V334.483H230.215Z" fill="black"/>
<path opacity="0.4" d="M270.293 303.999V300.038H242.85V303.999H270.293Z" fill="white"/>
<path opacity="0.4" d="M268.21 271.924H244.918V332.112H268.21V271.924Z" fill="white"/>
<path opacity="0.3" d="M266.456 281.958H248.445V332.112H266.456V281.958Z" fill="#1E5F6E"/>
<path opacity="0.4" d="M282.918 334.483V269.544H273.973V334.483H282.918Z" fill="white"/>
<path opacity="0.4" d="M282.918 303.999V300.038H273.973V303.999H282.918Z" fill="white"/>
<path opacity="0.4" d="M280.837 271.924H276.043V332.112H280.837V271.924Z" fill="white"/>
<path opacity="0.4" d="M239.168 334.492V269.553H230.223V334.492H239.168Z" fill="white"/>
<path opacity="0.4" d="M239.168 303.999V300.038H230.223V303.999H239.168Z" fill="white"/>
<path opacity="0.4" d="M237.087 271.924H232.293V332.112H237.087V271.924Z" fill="white"/>
<path opacity="0.4" d="M320.848 253.631V188.691H293.404V253.631H320.848Z" fill="white"/>
<path opacity="0.1" d="M293.41 253.631V255.354H320.854V253.631H293.41Z" fill="black"/>
<path opacity="0.4" d="M320.848 223.137V219.177H293.404V223.137H320.848Z" fill="white"/>
<path opacity="0.4" d="M318.776 191.062H295.484V251.251H318.776V191.062Z" fill="white"/>
<path opacity="0.3" d="M317.022 201.097H299.012V251.251H317.022V201.097Z" fill="#1E5F6E"/>
<path opacity="0.1" d="M246.288 178.906V174.83H235.562V178.906H240.93V182.973H251.647V178.906H246.288Z" fill="black"/>
<path opacity="0.1" d="M298.163 265.477V261.401H287.438V265.477H292.805V269.553H303.522V265.477H298.163Z" fill="black"/>
<path opacity="0.1" d="M275.48 172.787V176.863H286.206V172.787H275.48Z" fill="black"/>
<path opacity="0.1" d="M233.809 344.828V348.904H244.534V344.828H233.809Z" fill="black"/>
<path opacity="0.1" d="M259.566 356.497V360.573H270.292V356.497H259.566Z" fill="black"/>
<path opacity="0.1" d="M333.637 280.715V284.791H344.362V280.715H333.637Z" fill="black"/>
<path opacity="0.1" d="M324.235 361.833V354.046H322.917V346.258H290.107V354.046H288.788V361.833H287.23V369.621H325.793V361.833H324.235Z" fill="black"/>
<path opacity="0.1" d="M322.918 346.259V278.575H290.099V346.259H322.918Z" fill="#263238"/>
<path opacity="0.3" d="M320.855 280.724H292.188V346.249H320.855V280.724Z" fill="#263238"/>
<g opacity="0.6">
<path d="M305.729 287.713H296.98V296.788H305.729V287.713Z" fill="#1E5F6E"/>
<path d="M316.053 287.713H307.305V296.788H316.053V287.713Z" fill="#1E5F6E"/>
<path d="M305.729 298.467H296.98V307.542H305.729V298.467Z" fill="#1E5F6E"/>
<path d="M316.053 298.467H307.305V307.542H316.053V298.467Z" fill="#1E5F6E"/>
</g>
<path d="M316.687 318.242C317.699 318.242 318.519 317.391 318.519 316.342C318.519 315.292 317.699 314.441 316.687 314.441C315.676 314.441 314.855 315.292 314.855 316.342C314.855 317.391 315.676 318.242 316.687 318.242Z" fill="#1E5F6E"/>
</svg>
