<svg width="428" height="447" viewBox="0 0 428 447" fill="none" xmlns="http://www.w3.org/2000/svg">
<path d="M324.346 88.8726C315.615 91.5546 308.382 99.1268 301.919 107.003C279.406 134.422 261.884 168.635 236.367 191.468C211.885 213.362 180.829 223.205 150.981 218.529C134.717 215.982 118.821 209.303 102.437 208.624C86.053 207.944 68.0085 214.936 59.8166 232.851C52.7204 248.389 55.0059 269.094 63.3433 283.756C71.6808 298.417 85.0772 307.491 98.9529 311.514C112.829 315.537 127.201 314.983 141.402 313.553C192.266 308.43 241.982 292.338 291.253 275.665C305.335 270.9 319.501 266.028 332.581 257.928C345.661 249.828 357.739 238.215 365.332 222.481C370.99 210.752 373.969 196.448 371.572 182.993C369.175 169.538 360.684 157.433 349.949 155.136C352.355 155.645 355.145 133.805 355.282 131.418C355.762 122.845 355.025 113.306 352.32 105.322C347.895 92.2609 335.106 85.529 324.346 88.8726Z" fill="#1E5F6E"/>
<path opacity="0.9" d="M324.346 88.8726C315.615 91.5546 308.382 99.1268 301.919 107.003C279.406 134.422 261.884 168.635 236.367 191.468C211.885 213.362 180.829 223.205 150.981 218.529C134.717 215.982 118.821 209.303 102.437 208.624C86.053 207.944 68.0085 214.936 59.8166 232.851C52.7204 248.389 55.0059 269.094 63.3433 283.756C71.6808 298.417 85.0772 307.491 98.9529 311.514C112.829 315.537 127.201 314.983 141.402 313.553C192.266 308.43 241.982 292.338 291.253 275.665C305.335 270.9 319.501 266.028 332.581 257.928C345.661 249.828 357.739 238.215 365.332 222.481C370.99 210.752 373.969 196.448 371.572 182.993C369.175 169.538 360.684 157.433 349.949 155.136C352.355 155.645 355.145 133.805 355.282 131.418C355.762 122.845 355.025 113.306 352.32 105.322C347.895 92.2609 335.106 85.529 324.346 88.8726Z" fill="white"/>
<path d="M209.872 378.797C301.535 378.797 375.842 374.266 375.842 368.677C375.842 363.088 301.535 358.557 209.872 358.557C118.21 358.557 43.9023 363.088 43.9023 368.677C43.9023 374.266 118.21 378.797 209.872 378.797Z" fill="#F5F5F5"/>
<path d="M288.91 132.312C280.039 121.307 269.045 112.381 256.646 106.116C244.247 99.8506 230.721 96.3881 216.954 95.9544C203.186 95.5207 189.485 98.1256 176.747 103.599C164.009 109.072 152.52 117.29 143.03 127.717C142.799 127.975 142.479 128.128 142.141 128.141C141.803 128.154 141.473 128.028 141.224 127.789C141.099 127.667 140.999 127.522 140.928 127.36C140.858 127.198 140.819 127.023 140.813 126.845C140.808 126.667 140.836 126.49 140.896 126.324C140.956 126.157 141.047 126.005 141.164 125.875C150.902 115.174 162.692 106.739 175.763 101.122C188.835 95.5036 202.895 92.8292 217.024 93.273C231.152 93.7168 245.033 97.2689 257.758 103.697C270.482 110.125 281.766 119.285 290.87 130.578L288.91 132.312Z" fill="#263238"/>
<path d="M291.177 132.482H283.182C282.842 132.482 282.515 132.341 282.275 132.089C282.034 131.838 281.898 131.497 281.898 131.141C281.898 130.785 282.034 130.444 282.275 130.193C282.515 129.941 282.842 129.8 283.182 129.8H288.609V124.132C288.609 123.776 288.745 123.435 288.986 123.184C289.226 122.932 289.553 122.791 289.893 122.791C290.233 122.793 290.559 122.935 290.799 123.186C291.039 123.437 291.175 123.777 291.177 124.132V132.482Z" fill="#263238"/>
<path d="M270.497 284.945L269.051 282.727C280.327 274.717 289.877 264.336 297.09 252.248C304.302 240.16 309.018 226.632 310.935 212.53C310.982 212.181 311.158 211.865 311.425 211.65C311.692 211.434 312.029 211.336 312.364 211.377C312.706 211.424 313.016 211.61 313.226 211.895C313.436 212.18 313.529 212.54 313.486 212.897C311.518 227.37 306.677 241.254 299.275 253.661C291.872 266.067 282.071 276.723 270.497 284.945Z" fill="#263238"/>
<path d="M275.094 287.162L267.312 285.285L269.11 277.149C269.147 276.978 269.217 276.817 269.314 276.674C269.411 276.531 269.535 276.409 269.677 276.316C269.819 276.223 269.978 276.16 270.144 276.131C270.309 276.103 270.479 276.108 270.642 276.148C270.807 276.187 270.963 276.26 271.101 276.362C271.239 276.464 271.356 276.593 271.446 276.743C271.536 276.892 271.597 277.059 271.625 277.233C271.653 277.407 271.648 277.585 271.61 277.757L270.386 283.273L275.676 284.543C276.007 284.623 276.294 284.838 276.474 285.14C276.654 285.442 276.711 285.806 276.634 286.152C276.557 286.498 276.351 286.799 276.063 286.988C275.774 287.177 275.426 287.24 275.094 287.162Z" fill="#263238"/>
<path d="M139.648 268.755C126.691 253.92 118.105 235.498 114.918 215.696L117.443 215.249C120.548 234.545 128.918 252.497 141.548 266.949C141.775 267.21 141.895 267.554 141.882 267.907C141.869 268.259 141.725 268.593 141.48 268.835C141.355 268.956 141.208 269.05 141.048 269.111C140.888 269.173 140.718 269.201 140.548 269.193C140.377 269.186 140.21 269.143 140.056 269.068C139.901 268.993 139.763 268.886 139.648 268.755Z" fill="#263238"/>
<path d="M111.169 220.229C110.893 220.019 110.708 219.704 110.653 219.353C110.599 219.001 110.68 218.641 110.878 218.351L115.578 211.602L122.04 216.51C122.177 216.612 122.293 216.743 122.381 216.892C122.469 217.042 122.528 217.209 122.554 217.382C122.581 217.556 122.574 217.734 122.534 217.904C122.494 218.075 122.422 218.236 122.323 218.378C122.224 218.521 122.1 218.642 121.956 218.734C121.813 218.826 121.653 218.887 121.487 218.915C121.321 218.942 121.151 218.935 120.987 218.894C120.824 218.852 120.67 218.777 120.534 218.673L116.143 215.347L112.992 219.925C112.894 220.072 112.768 220.197 112.622 220.293C112.476 220.388 112.313 220.452 112.143 220.481C111.972 220.509 111.799 220.501 111.631 220.458C111.464 220.415 111.307 220.337 111.169 220.229Z" fill="#263238"/>
<path d="M338.77 157.737H331.922L332.778 128.235H337.914L338.77 157.737Z" fill="#263238"/>
<path opacity="0.7" d="M338.77 157.737H331.922L332.778 128.235H337.914L338.77 157.737Z" fill="white"/>
<path d="M338.334 142.763L338.257 139.857H332.445L332.359 142.763H338.334Z" fill="#1E5F6E"/>
<path d="M332.531 136.951H338.172L338.087 134.046H332.608L332.531 136.951Z" fill="#1E5F6E"/>
<path d="M338.505 148.573L338.419 145.668H332.273L332.188 148.573H338.505Z" fill="#1E5F6E"/>
<path d="M338.678 154.385L338.593 151.479H332.104L332.027 154.385H338.678Z" fill="#1E5F6E"/>
<path d="M338.002 131.141L337.917 128.235H332.781L332.695 131.141H338.002Z" fill="#1E5F6E"/>
<path d="M350.192 157.737H343.344L344.2 128.235H349.336L350.192 157.737Z" fill="#263238"/>
<path opacity="0.7" d="M350.192 157.737H343.344L344.2 128.235H349.336L350.192 157.737Z" fill="white"/>
<path d="M349.753 142.763L349.667 139.857H343.855L343.77 142.763H349.753Z" fill="#1E5F6E"/>
<path d="M343.941 136.951H349.582L349.497 134.046H344.027L343.941 136.951Z" fill="#1E5F6E"/>
<path d="M349.918 148.573L349.841 145.668H343.686L343.609 148.573H349.918Z" fill="#1E5F6E"/>
<path d="M350.089 154.385L350.003 151.479H343.523L343.438 154.385H350.089Z" fill="#1E5F6E"/>
<path d="M349.412 131.141L349.335 128.235H344.199L344.113 131.141H349.412Z" fill="#1E5F6E"/>
<path d="M252.891 206.907H357.896V160.5L305.389 133.447L252.891 160.5V206.907Z" fill="#1E5F6E"/>
<path opacity="0.5" d="M252.891 206.907H357.896V160.5L305.389 133.447L252.891 160.5V206.907Z" fill="white"/>
<path d="M326.224 170.173H284.562V206.898H326.224V170.173Z" fill="#263238"/>
<path d="M291.984 170.173H284.562V206.898H291.984V170.173Z" fill="#263238"/>
<path opacity="0.5" d="M291.984 170.173H284.562V206.898H291.984V170.173Z" fill="white"/>
<path d="M302.392 181.205H296.117V189.34H302.392V181.205Z" fill="#263238"/>
<path opacity="0.6" d="M302.392 181.205H296.117V189.34H302.392V181.205Z" fill="white"/>
<path d="M306.243 181.205H302.391V189.34H306.243V181.205Z" fill="#263238"/>
<path opacity="0.4" d="M306.243 181.205H302.391V189.34H306.243V181.205Z" fill="white"/>
<path d="M303.934 181.205V183.681L304.036 183.592L304.208 183.708L304.362 183.592L304.567 183.708L304.772 183.592L304.901 183.708L305.055 183.619V181.205H303.934Z" fill="#1E5F6E"/>
<path opacity="0.7" d="M303.934 181.205V183.681L304.036 183.592L304.208 183.708L304.362 183.592L304.567 183.708L304.772 183.592L304.901 183.708L305.055 183.619V181.205H303.934Z" fill="#1E5F6E"/>
<path d="M313.622 181.205H307.348V189.34H313.622V181.205Z" fill="#263238"/>
<path opacity="0.6" d="M313.622 181.205H307.348V189.34H313.622V181.205Z" fill="white"/>
<path d="M317.481 181.205H313.629V189.34H317.481V181.205Z" fill="#263238"/>
<path opacity="0.4" d="M317.481 181.205H313.629V189.34H317.481V181.205Z" fill="white"/>
<path d="M315.172 181.205V183.681L315.266 183.592L315.446 183.708L315.6 183.592L315.797 183.708L316.011 183.592L316.139 183.708L316.293 183.619V181.205H315.172Z" fill="#1E5F6E"/>
<path opacity="0.7" d="M315.172 181.205V183.681L315.266 183.592L315.446 183.708L315.6 183.592L315.797 183.708L316.011 183.592L316.139 183.708L316.293 183.619V181.205H315.172Z" fill="#1E5F6E"/>
<path d="M357.167 162.127L305.387 135.441L253.608 162.127C253.406 162.231 253.187 162.292 252.962 162.308C252.738 162.323 252.512 162.292 252.299 162.217C252.086 162.141 251.89 162.023 251.72 161.868C251.551 161.712 251.413 161.524 251.314 161.313C251.214 161.103 251.155 160.873 251.14 160.639C251.126 160.404 251.155 160.169 251.228 159.947C251.3 159.724 251.414 159.519 251.562 159.342C251.71 159.166 251.891 159.021 252.093 158.917L305.387 131.418L358.665 158.917C358.867 159.021 359.047 159.166 359.195 159.342C359.344 159.519 359.457 159.724 359.53 159.947C359.602 160.169 359.632 160.404 359.617 160.639C359.602 160.873 359.543 161.103 359.444 161.313C359.243 161.735 358.891 162.056 358.465 162.208C358.039 162.361 357.572 162.331 357.167 162.127Z" fill="#263238"/>
<g opacity="0.5">
<path d="M357.167 162.127L305.387 135.441L253.608 162.127C253.406 162.231 253.187 162.292 252.962 162.308C252.738 162.323 252.512 162.292 252.299 162.217C252.086 162.141 251.89 162.023 251.72 161.868C251.551 161.712 251.413 161.524 251.314 161.313C251.214 161.103 251.155 160.873 251.14 160.639C251.126 160.404 251.155 160.169 251.228 159.947C251.3 159.724 251.414 159.519 251.562 159.342C251.71 159.166 251.891 159.021 252.093 158.917L305.387 131.418L358.665 158.917C358.867 159.021 359.047 159.166 359.195 159.342C359.344 159.519 359.457 159.724 359.53 159.947C359.602 160.169 359.632 160.404 359.617 160.639C359.602 160.873 359.543 161.103 359.444 161.313C359.243 161.735 358.891 162.056 358.465 162.208C358.039 162.361 357.572 162.331 357.167 162.127Z" fill="white"/>
</g>
<path d="M326.222 170.173H318.801V206.898H326.222V170.173Z" fill="#263238"/>
<path opacity="0.5" d="M326.222 170.173H318.801V206.898H326.222V170.173Z" fill="white"/>
<path d="M318.799 194.838H294.258V206.907H318.799V194.838Z" fill="#263238"/>
<path opacity="0.4" d="M318.799 194.838H294.258V206.907H318.799V194.838Z" fill="white"/>
<path d="M279.714 190.958H275.562V206.898H279.714V190.958Z" fill="#1E5F6E"/>
<path d="M294.26 196.465C293.352 196.465 292.481 196.089 291.839 195.418C291.197 194.747 290.836 193.838 290.836 192.889C290.836 191.941 291.197 191.032 291.839 190.361C292.481 189.69 293.352 189.313 294.26 189.313H318.801V196.465H294.26Z" fill="#1E5F6E"/>
<path d="M296.117 192.898C296.117 193.282 296.008 193.657 295.804 193.976C295.6 194.295 295.31 194.543 294.971 194.69C294.631 194.837 294.258 194.876 293.897 194.801C293.537 194.726 293.206 194.541 292.946 194.27C292.687 193.998 292.51 193.653 292.438 193.276C292.366 192.9 292.403 192.51 292.544 192.156C292.684 191.801 292.922 191.498 293.228 191.285C293.533 191.072 293.892 190.958 294.26 190.958C294.753 190.958 295.225 191.162 295.573 191.526C295.922 191.89 296.117 192.383 296.117 192.898Z" fill="#263238"/>
<path d="M277.936 190.958H260.02V206.898H277.936V190.958Z" fill="#1E5F6E"/>
<path opacity="0.3" d="M277.936 190.958H260.02V206.898H277.936V190.958Z" fill="white"/>
<path opacity="0.8" d="M272.568 198.092H269.546L270.745 194.186L265.395 199.773H268.416L267.218 203.68L272.568 198.092Z" fill="white"/>
<path d="M125.329 260.574C134.793 260.574 142.466 252.561 142.466 242.676C142.466 232.791 134.793 224.778 125.329 224.778C115.864 224.778 108.191 232.791 108.191 242.676C108.191 252.561 115.864 260.574 125.329 260.574Z" fill="#1E5F6E"/>
<path d="M122.664 260.574C132.129 260.574 139.802 252.561 139.802 242.676C139.802 232.791 132.129 224.778 122.664 224.778C113.2 224.778 105.527 232.791 105.527 242.676C105.527 252.561 113.2 260.574 122.664 260.574Z" fill="#1E5F6E"/>
<path opacity="0.3" d="M122.664 260.574C132.129 260.574 139.802 252.561 139.802 242.676C139.802 232.791 132.129 224.778 122.664 224.778C113.2 224.778 105.527 232.791 105.527 242.676C105.527 252.561 113.2 260.574 122.664 260.574Z" fill="white"/>
<path opacity="0.2" d="M122.666 256.434C129.942 256.434 135.84 250.274 135.84 242.676C135.84 235.077 129.942 228.917 122.666 228.917C115.39 228.917 109.492 235.077 109.492 242.676C109.492 250.274 115.39 256.434 122.666 256.434Z" fill="white"/>
<path opacity="0.1" d="M111.487 242.676C111.488 239.209 112.743 235.872 115 233.33C117.257 230.789 120.35 229.232 123.659 228.971C123.334 228.971 123 228.917 122.666 228.917C119.172 228.917 115.821 230.367 113.351 232.947C110.88 235.527 109.492 239.027 109.492 242.676C109.492 246.325 110.88 249.824 113.351 252.404C115.821 254.985 119.172 256.434 122.666 256.434C123 256.434 123.334 256.434 123.659 256.381C120.349 256.121 117.255 254.565 114.998 252.023C112.74 249.481 111.486 246.142 111.487 242.676Z" fill="black"/>
<g opacity="0.1">
<path d="M128.853 247.638C127.9 248.515 126.696 249.037 125.429 249.122V251.41H123.468V249.184C122.531 249.136 121.603 248.956 120.712 248.648C119.952 248.412 119.236 248.04 118.598 247.548L119.668 245.054C120.195 245.451 120.771 245.773 121.38 246.011C122.041 246.267 122.732 246.432 123.434 246.502V243.087C122.633 242.897 121.848 242.637 121.089 242.31C120.46 242.035 119.907 241.602 119.479 241.049C119.024 240.418 118.797 239.639 118.837 238.85C118.832 238.305 118.934 237.765 119.137 237.264C119.34 236.762 119.64 236.31 120.019 235.935C120.967 235.053 122.174 234.533 123.443 234.46V232.189H125.403V234.416C126.805 234.486 128.169 234.916 129.375 235.667L128.399 238.179C127.481 237.613 126.461 237.251 125.403 237.115V240.593C126.195 240.77 126.971 241.018 127.723 241.335C128.344 241.609 128.891 242.039 129.315 242.587C129.772 243.21 130.003 243.983 129.965 244.768C129.979 245.301 129.887 245.83 129.696 246.324C129.504 246.818 129.217 247.265 128.853 247.638ZM122.407 239.592C122.729 239.847 123.095 240.035 123.485 240.146V237.241C123.081 237.314 122.706 237.51 122.407 237.804C122.188 238.046 122.062 238.365 122.056 238.698C122.042 238.865 122.067 239.034 122.128 239.189C122.189 239.345 122.284 239.483 122.407 239.592ZM126.499 245.948C126.616 245.834 126.708 245.696 126.77 245.541C126.832 245.387 126.862 245.221 126.858 245.054C126.862 244.894 126.831 244.735 126.767 244.59C126.703 244.444 126.608 244.315 126.49 244.214C126.179 243.957 125.825 243.763 125.446 243.642V246.467C125.848 246.396 126.221 246.199 126.516 245.903L126.499 245.948Z" fill="black"/>
</g>
<path d="M127.544 247.638C126.592 248.516 125.388 249.039 124.12 249.122V251.41H122.16V249.184C121.222 249.135 120.295 248.955 119.403 248.648C118.644 248.41 117.929 248.038 117.289 247.548L118.368 245.054C118.894 245.454 119.47 245.775 120.08 246.011C120.741 246.267 121.432 246.432 122.134 246.502V243.087C121.333 242.896 120.549 242.636 119.789 242.31C119.162 242.033 118.609 241.6 118.179 241.049C117.724 240.418 117.497 239.639 117.537 238.85C117.532 238.305 117.634 237.765 117.837 237.264C118.04 236.762 118.34 236.31 118.719 235.935C119.668 235.054 120.875 234.534 122.143 234.46V232.189H124.12V234.416C125.525 234.485 126.892 234.915 128.1 235.667L127.116 238.179C126.198 237.613 125.178 237.251 124.12 237.115V240.593C124.912 240.77 125.689 241.018 126.44 241.335C127.062 241.611 127.612 242.04 128.04 242.587C128.491 243.213 128.719 243.985 128.682 244.768C128.694 245.303 128.599 245.834 128.403 246.328C128.207 246.822 127.914 247.268 127.544 247.638ZM121.124 239.529C121.444 239.783 121.807 239.971 122.194 240.083V237.178C121.782 237.255 121.401 237.457 121.098 237.759C120.879 238.001 120.754 238.32 120.747 238.653C120.727 238.828 120.748 239.005 120.81 239.169C120.871 239.332 120.97 239.478 121.098 239.592L121.124 239.529ZM125.216 245.886C125.33 245.77 125.421 245.631 125.481 245.477C125.542 245.323 125.571 245.158 125.567 244.992C125.57 244.832 125.54 244.674 125.478 244.529C125.415 244.384 125.323 244.255 125.207 244.151C124.893 243.894 124.536 243.7 124.154 243.579V246.404C124.537 246.34 124.896 246.167 125.19 245.903L125.216 245.886Z" fill="#1E5F6E"/>
<path d="M225.451 107.216C232.143 100.227 232.143 88.8944 225.451 81.9048C218.759 74.9153 207.908 74.9153 201.215 81.9048C194.523 88.8944 194.523 100.227 201.215 107.216C207.908 114.206 218.759 114.206 225.451 107.216Z" fill="#1E5F6E"/>
<path d="M227.333 98.6696C229.507 89.0492 223.803 79.4096 214.591 77.139C205.38 74.8684 196.15 80.8265 193.976 90.4469C191.802 100.067 197.506 109.707 206.718 111.978C215.929 114.248 225.159 108.29 227.333 98.6696Z" fill="#1E5F6E"/>
<path opacity="0.3" d="M227.333 98.6696C229.507 89.0492 223.803 79.4096 214.591 77.139C205.38 74.8684 196.15 80.8265 193.976 90.4469C191.802 100.067 197.506 109.707 206.718 111.978C215.929 114.248 225.159 108.29 227.333 98.6696Z" fill="white"/>
<path opacity="0.2" d="M210.662 108.326C217.938 108.326 223.836 102.166 223.836 94.5673C223.836 86.9686 217.938 80.8086 210.662 80.8086C203.386 80.8086 197.488 86.9686 197.488 94.5673C197.488 102.166 203.386 108.326 210.662 108.326Z" fill="white"/>
<path opacity="0.1" d="M199.491 94.5673C199.493 91.1011 200.747 87.7633 203.004 85.2221C205.261 82.6808 208.354 81.1237 211.664 80.8622C211.33 80.8622 211.005 80.8086 210.662 80.8086C207.168 80.8086 203.817 82.2582 201.347 84.8384C198.876 87.4187 197.488 90.9182 197.488 94.5673C197.488 98.2163 198.876 101.716 201.347 104.296C203.817 106.876 207.168 108.326 210.662 108.326C211.005 108.326 211.33 108.326 211.664 108.272C208.354 108.011 205.261 106.454 203.004 103.912C200.747 101.371 199.493 98.0334 199.491 94.5673Z" fill="black"/>
<g opacity="0.1">
<path d="M216.849 99.5382C215.901 100.422 214.694 100.945 213.425 101.022V103.32H211.465V101.085C210.525 101.035 209.596 100.858 208.7 100.557C207.941 100.315 207.226 99.9398 206.586 99.4488L207.665 96.9545C208.189 97.3578 208.766 97.6828 209.377 97.92C210.037 98.1795 210.728 98.342 211.431 98.4028V94.9877C210.626 94.8002 209.838 94.54 209.077 94.2099C208.452 93.9387 207.901 93.5085 207.476 92.9583C207.018 92.3284 206.787 91.5494 206.826 90.7591C206.819 90.2136 206.922 89.6727 207.126 89.1709C207.331 88.6691 207.634 88.2174 208.015 87.8446C208.963 86.9588 210.17 86.4355 211.439 86.3606V84.0898H213.4V86.3159C214.822 86.3959 216.204 86.8411 217.423 87.6122L216.447 90.1243C215.527 89.5635 214.508 89.2017 213.451 89.0605V92.5381C214.242 92.7227 215.018 92.9739 215.771 93.2891C216.392 93.5594 216.939 93.9864 217.363 94.5318C217.816 95.1576 218.046 95.9291 218.014 96.7131C218.016 97.2423 217.913 97.7662 217.713 98.2522C217.513 98.7383 217.219 99.176 216.849 99.5382ZM210.429 91.4296C210.75 91.6881 211.116 91.8766 211.508 91.9839V89.0784C211.097 89.1575 210.716 89.3593 210.412 89.6595C210.192 89.9006 210.066 90.2199 210.061 90.5535C210.05 90.7197 210.078 90.8863 210.142 91.039C210.206 91.1916 210.305 91.3256 210.429 91.4296ZM214.521 97.7949C214.636 97.6798 214.727 97.5408 214.787 97.3868C214.848 97.2328 214.877 97.0672 214.872 96.9009C214.876 96.7429 214.846 96.5861 214.784 96.4421C214.721 96.2981 214.629 96.1707 214.513 96.0694C214.204 95.8093 213.849 95.615 213.468 95.4973V98.3402C213.862 98.2674 214.227 98.0781 214.521 97.7949Z" fill="black"/>
</g>
<path d="M215.525 99.5382C214.575 100.419 213.369 100.942 212.101 101.022V103.32H210.141V101.085C209.201 101.034 208.272 100.857 207.376 100.557C206.617 100.315 205.902 99.9398 205.262 99.4488L206.34 96.9545C206.865 97.3578 207.441 97.6828 208.052 97.92C208.713 98.1776 209.404 98.3401 210.107 98.4028V94.9877C209.302 94.8002 208.514 94.54 207.753 94.2099C207.129 93.9364 206.579 93.5066 206.152 92.9583C205.697 92.3266 205.467 91.5489 205.501 90.7591C205.496 90.2138 205.6 89.6734 205.804 89.1719C206.009 88.6703 206.311 88.2184 206.691 87.8446C207.638 86.9588 208.846 86.4355 210.115 86.3606V84.0898H212.075V86.3159C213.477 86.391 214.84 86.8205 216.047 87.5675L215.071 90.0796C214.151 89.5188 213.132 89.157 212.075 89.0158V92.4934C212.867 92.6767 213.643 92.9279 214.395 93.2444C215.016 93.5147 215.563 93.9417 215.987 94.4871C216.445 95.1108 216.675 95.8838 216.638 96.6684C216.652 97.201 216.56 97.7308 216.368 98.2245C216.177 98.7183 215.89 99.1655 215.525 99.5382ZM209.097 91.4296C209.417 91.6881 209.784 91.8766 210.175 91.9839V89.0784C209.764 89.1575 209.383 89.3593 209.079 89.6595C208.859 89.9006 208.733 90.2199 208.729 90.5535C208.717 90.7197 208.745 90.8863 208.809 91.039C208.873 91.1916 208.972 91.3256 209.097 91.4296ZM213.188 97.7949C213.305 97.6803 213.397 97.5415 213.459 97.3876C213.52 97.2336 213.551 97.0678 213.548 96.9009C213.55 96.7423 213.518 96.5852 213.455 96.4413C213.391 96.2973 213.297 96.1702 213.18 96.0694C212.871 95.8093 212.516 95.615 212.135 95.4973V98.3402C212.529 98.2674 212.895 98.0781 213.188 97.7949Z" fill="#1E5F6E"/>
<path d="M253.095 224.546H232.927C232.695 224.54 232.464 224.584 232.249 224.673C232.033 224.763 231.837 224.898 231.673 225.07C231.509 225.241 231.38 225.445 231.294 225.671C231.208 225.896 231.167 226.137 231.172 226.379V247.433C231.171 247.674 231.216 247.914 231.304 248.137C231.391 248.36 231.52 248.563 231.683 248.735C231.846 248.906 232.04 249.041 232.254 249.134C232.467 249.227 232.696 249.274 232.927 249.274V252.85C232.931 253.1 233.005 253.344 233.139 253.55C233.274 253.757 233.464 253.918 233.685 254.013C233.907 254.108 234.15 254.133 234.385 254.086C234.62 254.038 234.836 253.919 235.007 253.744L239.287 249.274H253.095C253.326 249.274 253.555 249.227 253.768 249.134C253.982 249.041 254.175 248.906 254.338 248.735C254.502 248.563 254.631 248.36 254.718 248.137C254.806 247.914 254.851 247.674 254.849 247.433V226.379C254.855 226.137 254.814 225.896 254.728 225.671C254.642 225.445 254.513 225.241 254.349 225.07C254.184 224.898 253.989 224.763 253.773 224.673C253.557 224.584 253.327 224.54 253.095 224.546Z" fill="#1E5F6E"/>
<g opacity="0.9">
<path d="M248.651 234.837H237.908L237.506 233.281H233.902V233.979H236.992L239.227 242.597H246.622V241.899H239.774L239.381 240.389H246.896L248.651 234.837ZM239.167 239.691L238.088 235.534H247.718L246.383 239.691H239.167Z" fill="white"/>
<path d="M239.593 244.233C239.962 244.233 240.261 243.92 240.261 243.535C240.261 243.15 239.962 242.838 239.593 242.838C239.225 242.838 238.926 243.15 238.926 243.535C238.926 243.92 239.225 244.233 239.593 244.233Z" fill="white"/>
<path d="M247.288 243.535C247.288 243.673 247.249 243.808 247.176 243.923C247.103 244.037 246.998 244.127 246.876 244.179C246.754 244.232 246.62 244.246 246.491 244.219C246.361 244.192 246.242 244.126 246.149 244.028C246.055 243.931 245.992 243.807 245.966 243.671C245.94 243.536 245.953 243.396 246.004 243.268C246.054 243.141 246.14 243.032 246.25 242.955C246.36 242.879 246.489 242.838 246.621 242.838C246.798 242.838 246.968 242.911 247.093 243.042C247.218 243.173 247.288 243.35 247.288 243.535Z" fill="white"/>
</g>
<path d="M246.452 236.687C248.622 236.687 250.382 234.85 250.382 232.584C250.382 230.318 248.622 228.48 246.452 228.48C244.283 228.48 242.523 230.318 242.523 232.584C242.523 234.85 244.283 236.687 246.452 236.687Z" fill="#1E5F6E"/>
<path opacity="0.3" d="M246.452 236.687C248.622 236.687 250.382 234.85 250.382 232.584C250.382 230.318 248.622 228.48 246.452 228.48C244.283 228.48 242.523 230.318 242.523 232.584C242.523 234.85 244.283 236.687 246.452 236.687Z" fill="black"/>
<g opacity="0.9">
<path d="M246.332 235.239L243.105 231.743C242.86 231.486 242.723 231.137 242.723 230.773C242.723 230.41 242.86 230.061 243.105 229.803C243.227 229.676 243.372 229.574 243.531 229.505C243.691 229.436 243.862 229.4 244.034 229.4C244.207 229.4 244.378 229.436 244.537 229.505C244.696 229.574 244.841 229.676 244.963 229.803L246.375 231.332L250.655 226.817C250.777 226.69 250.922 226.588 251.081 226.519C251.241 226.45 251.411 226.414 251.584 226.414C251.757 226.414 251.928 226.45 252.087 226.519C252.246 226.588 252.391 226.69 252.513 226.817C252.757 227.074 252.895 227.421 252.895 227.783C252.895 228.145 252.757 228.492 252.513 228.749L246.332 235.239Z" fill="white"/>
</g>
<path d="M154.549 142.728H78.9297V206.908H154.549V142.728Z" fill="#1E5F6E"/>
<path opacity="0.5" d="M154.549 142.728H78.9297V206.908H154.549V142.728Z" fill="white"/>
<path d="M87.8678 135.566H76.3203V144.113H87.8678V135.566Z" fill="#1E5F6E"/>
<path d="M110.825 135.566H99.2773V144.113H110.825V135.566Z" fill="#1E5F6E"/>
<path d="M133.794 135.566H122.246V144.113H133.794V135.566Z" fill="#1E5F6E"/>
<path d="M156.758 135.566H145.211V144.113H156.758V135.566Z" fill="#1E5F6E"/>
<g opacity="0.2">
<path d="M87.8678 135.566H76.3203V144.113H87.8678V135.566Z" fill="white"/>
<path d="M110.825 135.566H99.2773V144.113H110.825V135.566Z" fill="white"/>
<path d="M133.794 135.566H122.246V144.113H133.794V135.566Z" fill="white"/>
<path d="M156.758 135.566H145.211V144.113H156.758V135.566Z" fill="white"/>
</g>
<path d="M88.2184 150.022C88.2184 152.105 85.5562 153.795 82.2264 153.795C78.8965 153.795 76.2344 152.105 76.2344 150.022V144.023H87.7818L88.2184 150.022Z" fill="#1E5F6E"/>
<path d="M111.203 150.022C111.203 152.105 108.541 153.795 105.211 153.795C101.881 153.795 99.2617 152.105 99.2617 150.022V144.023H110.818L111.203 150.022Z" fill="#1E5F6E"/>
<path d="M134.187 150.022C134.187 152.105 131.525 153.795 128.238 153.795C124.951 153.795 122.289 152.105 122.289 150.022V144.023H133.845L134.187 150.022Z" fill="#1E5F6E"/>
<path d="M156.767 150.022C156.767 152.105 154.447 153.795 151.16 153.795C147.873 153.795 145.168 152.105 145.168 150.022V144.023H156.724L156.767 150.022Z" fill="#1E5F6E"/>
<path d="M99.3482 144.024V135.566H87.8008V144.104V150.022C87.8008 152.105 90.4629 153.795 93.7928 153.795C97.1226 153.795 99.3996 152.105 99.3996 150.022V144.024H99.3482Z" fill="#263238"/>
<path opacity="0.8" d="M99.3482 135.566H87.8008V150.022C87.8008 152.105 90.4629 153.795 93.7928 153.795C97.1226 153.795 99.3996 152.105 99.3996 150.022L99.3482 135.566Z" fill="white"/>
<path d="M122.405 144.024V135.566H110.832V144.104V150.022C110.832 152.105 113.494 153.795 116.781 153.795C120.068 153.795 122.388 152.105 122.388 150.022V144.024H122.405Z" fill="#263238"/>
<path opacity="0.8" d="M122.405 135.566H110.832V150.022C110.832 152.105 113.494 153.795 116.781 153.795C120.068 153.795 122.388 152.105 122.388 150.022L122.405 135.566Z" fill="white"/>
<path d="M145.348 144.024V135.566H133.801V144.104V150.022C133.801 152.105 136.463 153.795 139.793 153.795C143.123 153.795 145.4 152.105 145.4 150.022V144.024H145.348Z" fill="#263238"/>
<path opacity="0.8" d="M145.348 135.566H133.801V150.022C133.801 152.105 136.463 153.795 139.793 153.795C143.123 153.795 145.4 152.105 145.4 150.022L145.348 135.566Z" fill="white"/>
<path opacity="0.5" d="M146.375 162.807H111.887V183.243H146.375V162.807Z" fill="white"/>
<path opacity="0.4" d="M133.971 183.225H127.73L132.413 163.012H138.662L133.971 183.225Z" fill="white"/>
<path opacity="0.4" d="M137 183.225H135.613L140.304 163.012H141.682L137 183.225Z" fill="white"/>
<path opacity="0.4" d="M117.768 183.225H117.066L121.757 163.012H122.459L117.768 183.225Z" fill="white"/>
<path d="M147.061 183.959H111.203V162.092H147.061V183.959ZM112.573 182.529H145.691V163.522H112.573V182.529Z" fill="#1E5F6E"/>
<path d="M103.482 155.333H82.75V206.729H103.482V155.333Z" fill="#1E5F6E"/>
<path opacity="0.7" d="M102.598 156.263H83.6289V206.72H102.598V156.263Z" fill="white"/>
<path opacity="0.1" d="M92.6677 162.923H85.0664V181.402H92.6677V162.923Z" fill="black"/>
<path opacity="0.1" d="M101.265 162.923H93.6641V181.402H101.265V162.923Z" fill="black"/>
<path opacity="0.1" d="M101.262 186.989H85.0664V205.468H101.262V186.989Z" fill="black"/>
<path opacity="0.1" d="M101.27 161.966H85.0664C85.0664 160.809 85.5065 159.699 86.2899 158.881C87.0733 158.063 88.1358 157.604 89.2437 157.604H97.0932C98.2011 157.604 99.2636 158.063 100.047 158.881C100.83 159.699 101.27 160.809 101.27 161.966Z" fill="black"/>
<path d="M86.4531 182.233H85.0664V185.997H86.4531V182.233Z" fill="#1E5F6E"/>
<path opacity="0.3" d="M86.4531 182.233H85.0664V185.997H86.4531V182.233Z" fill="white"/>
<path d="M86.4454 185.997H86.7188V182.233H86.4454V185.997Z" fill="#1E5F6E"/>
<path d="M85.9923 183.709C85.9923 183.829 85.9581 183.946 85.8942 184.046C85.8302 184.146 85.7393 184.224 85.633 184.27C85.5266 184.316 85.4096 184.328 85.2966 184.305C85.1837 184.281 85.08 184.223 84.9986 184.138C84.9172 184.053 84.8618 183.945 84.8393 183.827C84.8168 183.709 84.8284 183.587 84.8724 183.476C84.9165 183.365 84.9911 183.27 85.0868 183.203C85.1825 183.136 85.2951 183.101 85.4102 183.101C85.5646 183.101 85.7126 183.165 85.8218 183.279C85.931 183.393 85.9923 183.547 85.9923 183.709Z" fill="#263238"/>
<path opacity="0.5" d="M85.881 184.764H85.582V185.524H85.881V184.764Z" fill="white"/>
<path d="M84.8952 184.558C85.3443 184.558 85.7084 184.178 85.7084 183.709C85.7084 183.24 85.3443 182.859 84.8952 182.859C84.4461 182.859 84.082 183.24 84.082 183.709C84.082 184.178 84.4461 184.558 84.8952 184.558Z" fill="#263238"/>
<path opacity="0.2" d="M84.8952 184.558C85.3443 184.558 85.7084 184.178 85.7084 183.709C85.7084 183.24 85.3443 182.859 84.8952 182.859C84.4461 182.859 84.082 183.24 84.082 183.709C84.082 184.178 84.4461 184.558 84.8952 184.558Z" fill="white"/>
<path d="M303.034 222.534H272.535L278.365 230.527H308.855L303.034 222.534Z" fill="#1E5F6E"/>
<path opacity="0.3" d="M303.034 222.534H272.535L278.365 230.527H308.855L303.034 222.534Z" fill="white"/>
<path d="M314.377 222.534H333.106L327.593 230.527H308.855L314.377 222.534Z" fill="#1E5F6E"/>
<path opacity="0.1" d="M314.377 222.534H333.106L327.593 230.527H308.855L314.377 222.534Z" fill="white"/>
<path d="M308.863 230.526H278.363V262.38H308.863V230.526Z" fill="#1E5F6E"/>
<path opacity="0.5" d="M308.863 230.526H278.363V262.38H308.863V230.526Z" fill="white"/>
<path opacity="0.2" d="M296.365 230.526H290.844V237.696H296.365V230.526Z" fill="black"/>
<path opacity="0.2" d="M296.365 256.622H290.844V262.379H296.365V256.622Z" fill="black"/>
<path d="M327.585 230.526H308.855V262.38H327.585V230.526Z" fill="#1E5F6E"/>
<path opacity="0.3" d="M327.585 230.526H308.855V262.38H327.585V230.526Z" fill="white"/>
<path opacity="0.8" d="M319.434 260.288V254.521H311.019V260.288H319.434Z" fill="white"/>
<path d="M234.819 349.178C241.873 349.554 245.399 349.786 252.444 350.367C251.303 323.869 249.828 297.395 248.019 270.945C247.779 267.583 244.663 264.687 241.068 264.463L234.22 264.105C207.521 263.068 180.942 263.372 154.27 264.999C160.233 292.94 165.788 320.952 170.936 349.035C192.293 348.195 213.488 348.222 234.819 349.178Z" fill="#1E5F6E"/>
<path opacity="0.5" d="M234.819 349.178C241.873 349.554 245.399 349.786 252.444 350.367C251.303 323.869 249.828 297.395 248.019 270.945C247.779 267.583 244.663 264.687 241.068 264.463L234.22 264.105C207.521 263.068 180.942 263.372 154.27 264.999C160.233 292.94 165.788 320.952 170.936 349.035C192.293 348.195 213.488 348.222 234.819 349.178Z" fill="white"/>
<path d="M178.827 348.749C171.773 349.017 168.247 349.205 161.193 349.643C156.434 323.585 151.372 297.597 146.008 271.677C145.314 268.387 147.668 265.472 151.272 265.204C153.994 265.008 155.364 264.909 158.12 264.739C161.724 264.507 165.139 267.037 165.739 270.345C170.407 296.438 174.769 322.572 178.827 348.749Z" fill="#1E5F6E"/>
<path d="M188.664 363.437L185.326 323.547C185.251 322.684 184.896 321.873 184.32 321.249C183.744 320.625 182.982 320.224 182.159 320.114L180.78 319.926C179.669 319.785 178.638 319.251 177.859 318.411C177.08 317.571 176.6 316.478 176.5 315.313L175.893 308.045C175.833 307.339 175.915 306.629 176.133 305.958C176.351 305.287 176.7 304.671 177.158 304.149C177.616 303.627 178.173 303.21 178.794 302.925C179.414 302.64 180.085 302.493 180.763 302.493H149.947C149.27 302.494 148.6 302.642 147.98 302.928C147.361 303.214 146.805 303.631 146.348 304.153C145.89 304.675 145.542 305.29 145.325 305.96C145.107 306.63 145.026 307.34 145.085 308.045L145.693 315.313C145.793 316.478 146.272 317.571 147.051 318.411C147.83 319.251 148.862 319.785 149.973 319.926L151.351 320.114C152.174 320.224 152.937 320.625 153.513 321.249C154.088 321.873 154.443 322.684 154.518 323.547L157.857 363.437C157.974 364.839 158.591 366.143 159.585 367.093C160.578 368.043 161.877 368.57 163.224 368.569H194.04C192.692 368.57 191.392 368.044 190.397 367.094C189.402 366.144 188.784 364.839 188.664 363.437Z" fill="#1E5F6E"/>
<g opacity="0.2">
<path d="M188.664 363.437L185.326 323.547C185.251 322.684 184.896 321.873 184.32 321.249C183.744 320.625 182.982 320.224 182.159 320.114L180.78 319.926C179.669 319.785 178.638 319.251 177.859 318.411C177.08 317.571 176.6 316.478 176.5 315.313L175.893 308.045C175.833 307.339 175.915 306.629 176.133 305.958C176.351 305.287 176.7 304.671 177.158 304.149C177.616 303.627 178.173 303.21 178.794 302.925C179.414 302.64 180.085 302.493 180.763 302.493H149.947C149.27 302.494 148.6 302.642 147.98 302.928C147.361 303.214 146.805 303.631 146.348 304.153C145.89 304.675 145.542 305.29 145.325 305.96C145.107 306.63 145.026 307.34 145.085 308.045L145.693 315.313C145.793 316.478 146.272 317.571 147.051 318.411C147.83 319.251 148.862 319.785 149.973 319.926L151.351 320.114C152.174 320.224 152.937 320.625 153.513 321.249C154.088 321.873 154.443 322.684 154.518 323.547L157.857 363.437C157.974 364.839 158.591 366.143 159.585 367.093C160.578 368.043 161.877 368.57 163.224 368.569H194.04C192.692 368.57 191.392 368.044 190.397 367.094C189.402 366.144 188.784 364.839 188.664 363.437Z" fill="white"/>
</g>
<path d="M273.476 313.57C273.729 310.546 275.057 307.731 277.2 305.681C279.342 303.63 282.143 302.493 285.049 302.493H258.213C255.308 302.495 252.508 303.633 250.366 305.683C248.224 307.733 246.895 310.547 246.64 313.57L243.961 345.182H270.788L273.476 313.57Z" fill="#1E5F6E"/>
<path opacity="0.2" d="M273.476 313.57C273.729 310.546 275.057 307.731 277.2 305.681C279.342 303.63 282.143 302.493 285.049 302.493H258.213C255.308 302.495 252.508 303.633 250.366 305.683C248.224 307.733 246.895 310.547 246.64 313.57L243.961 345.182H270.788L273.476 313.57Z" fill="white"/>
<path d="M267.492 343.707C248.924 345.971 230.194 346.432 211.544 345.084C210.903 345.052 210.274 344.888 209.695 344.6C209.115 344.312 208.596 343.907 208.167 343.408C207.739 342.909 207.41 342.326 207.199 341.693C206.988 341.06 206.899 340.389 206.939 339.72C207.478 334.597 207.743 332.041 208.283 326.918C208.427 325.636 209.044 324.463 210.003 323.648C210.962 322.834 212.187 322.442 213.419 322.555C230.444 324.179 247.592 323.747 264.522 321.268C265.751 321.084 267 321.41 268.003 322.175C269.006 322.94 269.683 324.084 269.889 325.362L271.815 338.084C271.891 338.751 271.839 339.427 271.662 340.072C271.485 340.718 271.186 341.32 270.784 341.843C270.381 342.367 269.883 342.801 269.318 343.121C268.753 343.442 268.132 343.641 267.492 343.707Z" fill="#1E5F6E"/>
<path d="M213.087 322.555C208.807 322.153 206.727 321.902 202.507 321.295C201.277 321.108 200.025 321.433 199.021 322.198C198.016 322.963 197.338 324.108 197.132 325.389L195.171 338.111C195.099 338.777 195.155 339.452 195.335 340.096C195.515 340.74 195.817 341.34 196.222 341.861C196.626 342.382 197.127 342.814 197.693 343.131C198.259 343.448 198.88 343.644 199.52 343.707C204.151 344.369 206.462 344.646 211.11 345.084C211.923 336.072 212.291 331.567 213.087 322.555Z" fill="#1E5F6E"/>
<g opacity="0.4">
<path d="M267.492 343.707C248.924 345.971 230.194 346.432 211.544 345.084C210.903 345.052 210.274 344.888 209.695 344.6C209.115 344.312 208.596 343.907 208.167 343.408C207.739 342.909 207.41 342.326 207.199 341.693C206.988 341.06 206.899 340.389 206.939 339.72C207.478 334.597 207.743 332.041 208.283 326.918C208.427 325.636 209.044 324.463 210.003 323.648C210.962 322.834 212.187 322.442 213.419 322.555C230.444 324.179 247.592 323.747 264.522 321.268C265.751 321.084 267 321.41 268.003 322.175C269.006 322.94 269.683 324.084 269.889 325.362L271.815 338.084C271.891 338.751 271.839 339.427 271.662 340.072C271.485 340.718 271.186 341.32 270.784 341.843C270.381 342.367 269.883 342.801 269.318 343.121C268.753 343.442 268.132 343.641 267.492 343.707Z" fill="white"/>
</g>
<path d="M296.955 302.493H285.048C282.143 302.495 279.345 303.634 277.204 305.684C275.063 307.734 273.736 310.548 273.483 313.57L270.83 345.182H206.921L204.276 313.57C204.023 310.548 202.696 307.734 200.555 305.684C198.414 303.634 195.616 302.495 192.711 302.493H180.796C180.118 302.493 179.447 302.64 178.826 302.925C178.205 303.21 177.648 303.627 177.19 304.149C176.732 304.672 176.383 305.288 176.165 305.958C175.947 306.629 175.866 307.34 175.925 308.045L176.533 315.313C176.632 316.478 177.112 317.571 177.891 318.411C178.67 319.251 179.701 319.786 180.813 319.926L182.191 320.114C183.014 320.224 183.777 320.625 184.352 321.249C184.928 321.873 185.283 322.684 185.358 323.547L188.697 363.437C188.816 364.838 189.433 366.141 190.427 367.091C191.42 368.041 192.717 368.568 194.064 368.569H283.713C285.061 368.57 286.36 368.044 287.355 367.094C288.35 366.144 288.968 364.84 289.088 363.437L292.427 323.547C292.499 322.683 292.852 321.87 293.429 321.245C294.005 320.621 294.769 320.221 295.594 320.114L296.963 319.926C298.075 319.787 299.108 319.253 299.887 318.413C300.666 317.573 301.145 316.478 301.243 315.313L301.851 308.045C301.912 307.337 301.83 306.624 301.612 305.95C301.393 305.277 301.041 304.659 300.58 304.137C300.119 303.614 299.558 303.197 298.934 302.914C298.31 302.631 297.635 302.488 296.955 302.493Z" fill="#1E5F6E"/>
<path opacity="0.6" d="M296.955 302.493H285.048C282.143 302.495 279.345 303.634 277.204 305.684C275.063 307.734 273.736 310.548 273.483 313.57L270.83 345.182H206.921L204.276 313.57C204.023 310.548 202.696 307.734 200.555 305.684C198.414 303.634 195.616 302.495 192.711 302.493H180.796C180.118 302.493 179.447 302.64 178.826 302.925C178.205 303.21 177.648 303.627 177.19 304.149C176.732 304.672 176.383 305.288 176.165 305.958C175.947 306.629 175.866 307.34 175.925 308.045L176.533 315.313C176.632 316.478 177.112 317.571 177.891 318.411C178.67 319.251 179.701 319.786 180.813 319.926L182.191 320.114C183.014 320.224 183.777 320.625 184.352 321.249C184.928 321.873 185.283 322.684 185.358 323.547L188.697 363.437C188.816 364.838 189.433 366.141 190.427 367.091C191.42 368.041 192.717 368.568 194.064 368.569H283.713C285.061 368.57 286.36 368.044 287.355 367.094C288.35 366.144 288.968 364.84 289.088 363.437L292.427 323.547C292.499 322.683 292.852 321.87 293.429 321.245C294.005 320.621 294.769 320.221 295.594 320.114L296.963 319.926C298.075 319.787 299.108 319.253 299.887 318.413C300.666 317.573 301.145 316.478 301.243 315.313L301.851 308.045C301.912 307.337 301.83 306.624 301.612 305.95C301.393 305.277 301.041 304.659 300.58 304.137C300.119 303.614 299.558 303.197 298.934 302.914C298.31 302.631 297.635 302.488 296.955 302.493Z" fill="white"/>
<path d="M258.172 352.129L261.039 366.03L265.508 364.421L264.986 351.271L258.172 352.129Z" fill="#FFC3BD"/>
<path d="M216.269 293.768C220.548 293.814 224.813 293.233 228.938 292.043L233.149 301.278C233.149 301.278 259.505 296.343 262.861 304.854C265.728 312.086 265.848 356.706 265.848 356.706L258.512 357.6C258.512 357.6 250.474 325.121 250.509 314.366C250.511 314.176 250.462 313.989 250.368 313.827C250.273 313.665 250.137 313.534 249.974 313.449C249.811 313.364 249.629 313.329 249.448 313.347C249.267 313.365 249.095 313.437 248.951 313.553C244.902 316.843 234.125 323.959 217.81 322.859C215.284 322.689 212.331 322.117 213.084 313.508C213.804 306.873 214.867 300.283 216.269 293.768Z" fill="#1E5F6E"/>
<path opacity="0.1" d="M230.873 318.264C238.106 314.911 248.138 305.748 252.778 302.351C253.855 301.524 255.081 300.931 256.382 300.607C252.358 299.713 247.205 299.713 242.771 300.08L232.251 304.934L215.362 312.802L213.273 319.06C214.001 322.412 216.021 322.761 217.836 322.886C224.263 323.356 230.715 322.48 236.813 320.311C235.975 320.356 223.896 321.491 230.873 318.264Z" fill="black"/>
<path d="M281.266 326.658L290.305 336.197L293.815 333.31L286.847 322.367L281.266 326.658Z" fill="#FFC3BD"/>
<path d="M293.166 332.004L289.091 335.25C289.007 335.321 288.948 335.419 288.923 335.529C288.898 335.639 288.909 335.755 288.954 335.858L291.017 340.506C291.105 340.704 291.264 340.858 291.459 340.935C291.654 341.012 291.871 341.006 292.062 340.918C292.113 340.893 292.161 340.863 292.207 340.828C293.876 339.451 295.306 338.146 297.403 336.474C299.885 334.499 299.483 335.312 302.428 333.024C304.208 331.647 303.001 329.305 302.179 329.796C298.439 332.067 296.693 331.763 294.475 331.54C293.998 331.515 293.53 331.682 293.166 332.004Z" fill="#263238"/>
<path opacity="0.1" d="M219.001 300.499L223.503 301.626C223.503 301.626 231.926 294.787 227.997 297.049C225.13 298.711 223.717 295.261 223.127 293.303C221.338 293.562 219.771 293.678 218.59 293.732L219.001 300.499Z" fill="black"/>
<path d="M220.937 293.232C209.766 295.163 204.836 293.348 204.836 293.348C204.836 293.348 196.875 323.216 214.431 323.091C222.213 323.038 225.44 319.855 230.499 316.753C242.003 309.699 251.505 299.248 255.956 299.928C262.35 300.893 258.729 308.868 284.812 331.012L290.222 326.042C290.222 326.042 267.683 283.764 255.845 283.854C244.443 283.934 226.099 298.9 223.685 298.918C221.271 298.935 220.937 293.232 220.937 293.232Z" fill="#1E5F6E"/>
<path opacity="0.1" d="M259.516 301.626C260.987 302.202 262.189 303.348 262.871 304.826C263.31 306.111 263.614 307.442 263.778 308.796C264.515 309.904 265.388 311.147 266.415 312.506C265.73 303.548 259.516 301.626 259.516 301.626Z" fill="black"/>
<path d="M265.439 363.17L260.303 363.491C260.194 363.496 260.091 363.54 260.01 363.614C259.929 363.689 259.875 363.791 259.858 363.903L259.079 368.972C259.06 369.079 259.063 369.188 259.086 369.294C259.109 369.4 259.152 369.501 259.212 369.589C259.273 369.677 259.35 369.752 259.439 369.809C259.527 369.866 259.626 369.903 259.729 369.919C259.783 369.928 259.838 369.928 259.892 369.919C262.015 369.749 263.889 369.517 266.534 369.356C269.65 369.159 268.88 369.598 272.526 369.428C274.743 369.32 274.992 366.674 274.05 366.603C269.77 366.308 268.452 365.029 266.706 363.527C266.337 363.255 265.888 363.129 265.439 363.17Z" fill="#263238"/>
<path d="M219.616 253.591C221.062 253.01 223.459 254.011 225.539 257.891C227.619 261.771 236.47 277.774 233.954 279.83C231.437 281.886 226.618 276.057 224.846 271.874C223.074 267.69 217.082 254.619 219.616 253.591Z" fill="#263238"/>
<path opacity="0.4" d="M223.504 260.977L223.812 263.542L223.649 269.094C224.129 270.212 224.548 271.168 224.848 271.874C225.618 273.612 226.605 275.235 227.784 276.702C228.161 268.88 225.336 260.977 225.336 260.977H223.504Z" fill="black"/>
<path d="M204.286 293.92C204.286 293.92 219.754 295.842 229.624 292.454C229.624 292.454 226.619 288.502 226.2 280.59C225.814 272.83 228.973 263.515 221.534 254.074C221.39 253.89 221.204 253.744 220.994 253.651C220.784 253.558 220.555 253.519 220.327 253.538C216.416 253.824 198.2 255.326 197.935 258.696C197.626 262.97 205.587 272.088 204.286 293.92Z" fill="#263238"/>
<path d="M205.801 244.616C205.801 244.616 207.83 250.793 206.254 253.44C206.254 253.44 211.947 253.744 213.334 251.804C213.334 251.804 212.529 251.348 212.272 248.988C212.015 246.627 209.85 244.187 205.801 244.616Z" fill="#FFC3BD"/>
<path opacity="0.2" d="M212.291 248.988C212.06 246.806 210.176 244.518 206.675 244.571L206.436 244.795L206.188 245.269C206.188 245.269 208.336 251.294 212.65 250.633C212.465 250.102 212.345 249.549 212.291 248.988Z" fill="black"/>
<path d="M203.662 236.418C204.338 242.095 204.518 244.517 207.437 247.262C211.854 251.401 218.385 249.291 219.352 243.507C220.208 238.304 218.967 229.892 213.489 227.97C212.282 227.54 210.99 227.44 209.735 227.678C208.48 227.917 207.305 228.486 206.32 229.333C205.336 230.179 204.575 231.274 204.11 232.514C203.644 233.754 203.49 235.098 203.662 236.418Z" fill="#FFC3BD"/>
<path d="M215.715 239.762C216.175 240.795 216.768 241.757 217.478 242.623C217.264 242.807 217.013 242.941 216.744 243.013C216.475 243.086 216.194 243.096 215.92 243.043L215.715 239.762Z" fill="#ED893E"/>
<path d="M210.895 236.803L210.792 236.758C210.753 236.715 210.73 236.657 210.73 236.597C210.73 236.537 210.753 236.479 210.792 236.436C211.04 236.096 211.362 235.824 211.732 235.64C212.101 235.457 212.507 235.368 212.915 235.381C212.966 235.396 213.01 235.428 213.04 235.474C213.069 235.519 213.083 235.573 213.078 235.628C213.073 235.683 213.049 235.733 213.012 235.772C212.974 235.81 212.925 235.833 212.873 235.837C212.54 235.834 212.211 235.914 211.914 236.069C211.616 236.225 211.358 236.451 211.161 236.731C211.129 236.771 211.087 236.8 211.039 236.812C210.991 236.825 210.941 236.822 210.895 236.803Z" fill="#2E353A"/>
<path d="M218.967 235.899L218.864 235.854C218.602 235.636 218.294 235.486 217.965 235.416C217.636 235.346 217.296 235.358 216.973 235.452C216.946 235.464 216.918 235.47 216.889 235.47C216.861 235.47 216.833 235.464 216.806 235.452C216.78 235.44 216.756 235.423 216.736 235.402C216.716 235.38 216.701 235.355 216.69 235.327C216.68 235.299 216.675 235.269 216.676 235.239C216.677 235.209 216.685 235.179 216.697 235.152C216.71 235.125 216.729 235.101 216.751 235.082C216.773 235.063 216.799 235.049 216.827 235.041C217.218 234.921 217.631 234.899 218.031 234.979C218.432 235.058 218.808 235.236 219.13 235.497C219.153 235.514 219.173 235.535 219.188 235.56C219.203 235.585 219.213 235.613 219.218 235.642C219.223 235.671 219.222 235.701 219.216 235.73C219.209 235.759 219.198 235.786 219.181 235.81C219.158 235.845 219.125 235.873 219.088 235.891C219.05 235.908 219.008 235.914 218.967 235.908V235.899Z" fill="#2E353A"/>
<path d="M212.502 239.198C212.502 239.663 212.793 240.021 213.084 240.003C213.375 239.985 213.589 239.601 213.555 239.109C213.521 238.617 213.272 238.287 212.981 238.304C212.69 238.322 212.476 238.698 212.502 239.198Z" fill="#2E353A"/>
<path d="M217.539 238.867C217.539 239.332 217.821 239.69 218.112 239.672C218.403 239.654 218.609 239.27 218.583 238.778C218.557 238.286 218.301 237.955 218.01 237.973C217.719 237.991 217.505 238.402 217.539 238.867Z" fill="#2E353A"/>
<path d="M217.887 238.027L218.931 237.643C218.931 237.643 218.435 238.546 217.887 238.027Z" fill="#2E353A"/>
<path d="M212.855 238.358L213.908 237.965C213.908 237.965 213.403 238.877 212.855 238.358Z" fill="#2E353A"/>
<path d="M213.051 243.856C212.933 243.714 212.827 243.562 212.734 243.4C212.717 243.379 212.707 243.352 212.707 243.324C212.707 243.296 212.717 243.269 212.734 243.248C212.755 243.232 212.781 243.223 212.807 243.223C212.833 243.223 212.859 243.232 212.88 243.248C213.111 243.654 213.431 243.996 213.813 244.248C214.196 244.5 214.63 244.653 215.08 244.697C215.103 244.704 215.123 244.718 215.138 244.738C215.152 244.759 215.16 244.783 215.16 244.808C215.16 244.834 215.152 244.858 215.138 244.878C215.123 244.899 215.103 244.913 215.08 244.92C214.691 244.891 214.312 244.782 213.964 244.599C213.616 244.417 213.305 244.164 213.051 243.856Z" fill="#263238"/>
<path opacity="0.4" d="M206.171 273.563C205.315 269.523 202.379 262.558 202.379 262.558L200.247 261.941L199.203 263.443C201.061 268.271 204.339 275.959 204.425 288.654C208.534 288.52 213.079 282.468 213.079 282.468L210.751 277.104C208.157 278.445 207.001 277.64 206.171 273.563Z" fill="black"/>
<path d="M205.221 240.933C205.221 240.933 208.747 239.252 206.693 236.096C206.693 236.096 210.305 236.615 210.605 232.931C210.605 232.931 213.815 234.621 215.621 231.993C215.621 231.993 219.045 234.022 219.833 231.483C220.62 228.944 217.949 228.274 217.949 228.274C217.949 228.274 218.36 225.77 216.973 225.109C216.513 224.936 216.018 224.886 215.534 224.962C215.05 225.038 214.591 225.239 214.2 225.547C214.2 225.547 213.935 222.561 211.632 222.677C210.914 222.747 210.222 222.988 209.607 223.382C208.993 223.776 208.473 224.311 208.088 224.948C207.454 224.535 206.733 224.288 205.988 224.229C205.243 224.17 204.495 224.3 203.808 224.608C201.523 225.69 201.146 228.944 201.146 228.944C201.146 228.944 198.578 229.489 198.159 231.563C197.739 233.638 198.561 234.344 198.561 234.344C198.561 234.344 197.174 236.337 197.619 238.179C198.064 240.021 198.989 239.967 198.989 239.967C198.821 241.408 199.162 242.864 199.948 244.062C201.223 245.662 202.19 244.956 202.19 244.956C202.19 244.956 202.61 248.532 204.955 248.165C207.301 247.799 205.221 240.933 205.221 240.933Z" fill="#263238"/>
<path d="M202.634 241.013C203.002 242.051 203.751 242.894 204.714 243.356C205.998 243.964 206.845 242.819 206.666 241.443C206.512 240.209 205.647 238.394 204.277 238.367C203.797 238.377 203.339 238.584 203.004 238.944C202.669 239.304 202.484 239.787 202.488 240.289C202.49 240.538 202.54 240.785 202.634 241.013Z" fill="#FFC3BD"/>
<path d="M205.219 255.433L206.605 251.195C208.07 251.776 209.645 251.985 211.202 251.803C212.914 251.598 212.854 250.793 212.854 250.793L216.278 253.886L214.815 255.844L212.187 254.584L210.201 256.89L205.219 255.433Z" fill="#263238"/>
<path opacity="0.7" d="M205.219 255.433L206.605 251.195C208.07 251.776 209.645 251.985 211.202 251.803C212.914 251.598 212.854 250.793 212.854 250.793L216.278 253.886L214.815 255.844L212.187 254.584L210.201 256.89L205.219 255.433Z" fill="white"/>
<path d="M224.153 272.16H220.849C220.695 272.166 220.542 272.134 220.402 272.066C220.262 271.999 220.14 271.898 220.045 271.771C219.949 271.645 219.884 271.497 219.854 271.339C219.825 271.181 219.831 271.018 219.873 270.864L221.705 261.816C221.785 261.459 221.974 261.139 222.245 260.905C222.515 260.671 222.852 260.536 223.203 260.52H226.524C226.677 260.515 226.829 260.548 226.968 260.617C227.107 260.685 227.228 260.786 227.322 260.912C227.416 261.038 227.481 261.186 227.51 261.343C227.539 261.5 227.533 261.662 227.491 261.816L225.651 270.881C225.568 271.235 225.377 271.551 225.106 271.782C224.836 272.013 224.502 272.145 224.153 272.16Z" fill="#1E5F6E"/>
<path opacity="0.3" d="M224.153 272.16H220.849C220.695 272.166 220.542 272.134 220.402 272.066C220.262 271.999 220.14 271.898 220.045 271.771C219.949 271.645 219.884 271.497 219.854 271.339C219.825 271.181 219.831 271.018 219.873 270.864L221.705 261.816C221.785 261.459 221.974 261.139 222.245 260.905C222.515 260.671 222.852 260.536 223.203 260.52H226.524C226.677 260.515 226.829 260.548 226.968 260.617C227.107 260.685 227.228 260.786 227.322 260.912C227.416 261.038 227.481 261.186 227.51 261.343C227.539 261.5 227.533 261.662 227.491 261.816L225.651 270.881C225.568 271.235 225.377 271.551 225.106 271.782C224.836 272.013 224.502 272.145 224.153 272.16Z" fill="white"/>
<path d="M224.642 272.16H221.329C221.175 272.166 221.022 272.134 220.883 272.066C220.743 271.999 220.62 271.898 220.525 271.771C220.43 271.645 220.365 271.497 220.335 271.339C220.305 271.181 220.311 271.018 220.353 270.864L222.194 261.816C222.274 261.459 222.463 261.139 222.734 260.905C223.004 260.671 223.341 260.536 223.692 260.52H227.013C227.166 260.515 227.318 260.548 227.457 260.617C227.596 260.685 227.717 260.786 227.811 260.912C227.905 261.038 227.97 261.186 227.999 261.343C228.028 261.5 228.022 261.662 227.98 261.816L226.14 270.881C226.057 271.235 225.866 271.551 225.595 271.782C225.325 272.013 224.991 272.145 224.642 272.16Z" fill="#1E5F6E"/>
<path opacity="0.7" d="M224.642 272.16H221.329C221.175 272.166 221.022 272.134 220.883 272.066C220.743 271.999 220.62 271.898 220.525 271.771C220.43 271.645 220.365 271.497 220.335 271.339C220.305 271.181 220.311 271.018 220.353 270.864L222.194 261.816C222.274 261.459 222.463 261.139 222.734 260.905C223.004 260.671 223.341 260.536 223.692 260.52H227.013C227.166 260.515 227.318 260.548 227.457 260.617C227.596 260.685 227.717 260.786 227.811 260.912C227.905 261.038 227.97 261.186 227.999 261.343C228.028 261.5 228.022 261.662 227.98 261.816L226.14 270.881C226.057 271.235 225.866 271.551 225.595 271.782C225.325 272.013 224.991 272.145 224.642 272.16Z" fill="white"/>
<path d="M223.325 263.202H223.65C223.888 263.188 224.114 263.093 224.295 262.931C224.476 262.77 224.601 262.551 224.652 262.308L224.72 261.968C224.754 261.863 224.762 261.751 224.745 261.642C224.728 261.533 224.685 261.43 224.621 261.342C224.557 261.253 224.473 261.183 224.377 261.136C224.281 261.09 224.175 261.068 224.069 261.074H223.744C223.507 261.088 223.28 261.183 223.099 261.345C222.918 261.506 222.793 261.725 222.743 261.968L222.674 262.308C222.641 262.413 222.632 262.525 222.649 262.634C222.667 262.743 222.709 262.846 222.773 262.934C222.837 263.023 222.921 263.093 223.017 263.14C223.113 263.186 223.219 263.208 223.325 263.202Z" fill="#1E5F6E"/>
<path d="M224.118 261.647C224.099 261.746 224.048 261.836 223.973 261.901C223.898 261.966 223.805 262.003 223.707 262.005C223.664 262.008 223.621 262 223.581 261.982C223.542 261.964 223.507 261.937 223.48 261.901C223.453 261.866 223.435 261.824 223.427 261.78C223.418 261.736 223.421 261.69 223.434 261.647C223.457 261.548 223.511 261.46 223.587 261.396C223.662 261.331 223.756 261.294 223.853 261.289C223.895 261.287 223.938 261.296 223.976 261.315C224.015 261.333 224.048 261.361 224.074 261.396C224.1 261.431 224.118 261.472 224.125 261.516C224.133 261.56 224.131 261.605 224.118 261.647Z" fill="#263238"/>
<path d="M223.913 262.684C223.889 262.783 223.836 262.871 223.76 262.935C223.684 263 223.591 263.037 223.494 263.042C223.451 263.043 223.409 263.034 223.37 263.015C223.332 262.997 223.298 262.969 223.271 262.934C223.244 262.9 223.226 262.859 223.217 262.815C223.208 262.772 223.209 262.727 223.22 262.684C223.243 262.585 223.297 262.497 223.373 262.433C223.448 262.368 223.542 262.331 223.639 262.326C223.682 262.325 223.724 262.334 223.763 262.352C223.801 262.371 223.835 262.399 223.862 262.434C223.888 262.468 223.907 262.509 223.916 262.552C223.925 262.596 223.924 262.641 223.913 262.684Z" fill="#263238"/>
<path d="M233.416 275.915L228.768 272.169C228.768 272.169 226.953 268.038 225.695 267.52C225.359 267.416 225.001 267.422 224.669 267.537C224.337 267.652 224.047 267.871 223.837 268.164C223.101 269.111 223.024 272.106 223.769 273.054C224.513 274.001 226.782 274.627 226.782 274.627L231.13 279.357L233.416 275.915Z" fill="#FFC3BD"/>
<path d="M234.545 280.072C232.38 282.2 230.205 279.589 227.988 276.961C228.682 276.614 229.297 276.115 229.79 275.498C230.284 274.881 230.644 274.16 230.847 273.385C230.847 273.385 237.396 277.283 234.545 280.072Z" fill="#263238"/>
<path opacity="0.7" d="M227.996 276.961L228.638 277.721C230.067 276.897 231.142 275.535 231.643 273.912C231.18 273.581 230.855 273.394 230.855 273.394C230.651 274.167 230.29 274.886 229.797 275.501C229.303 276.117 228.689 276.614 227.996 276.961Z" fill="white"/>
<path d="M213.336 275.915L217.984 272.169C217.984 272.169 219.799 268.038 221.057 267.52C221.393 267.416 221.75 267.422 222.083 267.537C222.415 267.652 222.705 267.871 222.915 268.164C223.651 269.111 223.728 272.106 222.983 273.054C222.238 274.001 219.97 274.627 219.97 274.627L215.621 279.357L213.336 275.915Z" fill="#FFC3BD"/>
<path d="M196.676 271.347C195.931 268.262 195.101 260.538 197.96 258.08C200.819 255.621 202.462 262.344 203.592 267.52C204.722 272.697 205.304 279.634 207.83 278.561C210.111 277.37 212.291 275.976 214.344 274.395L217.246 278.669C217.246 278.669 208.386 289.334 204.491 286.187C200.596 283.04 197.626 275.253 196.676 271.347Z" fill="#263238"/>
<path opacity="0.7" d="M213.266 275.2L216.245 279.804C216.869 279.125 217.246 278.669 217.246 278.669L214.344 274.396C214.344 274.396 213.916 274.726 213.266 275.2Z" fill="white"/>
</svg>
