<svg width="428" height="447" viewBox="0 0 428 447" fill="none" xmlns="http://www.w3.org/2000/svg">
<path d="M344.948 178.353C342.826 166.818 340.114 155.407 336.823 144.167C326.928 111.634 307.233 78.7168 273.407 67.6491C248.435 59.4868 221.484 65.119 200.382 81.7564C167.286 107.843 143.199 143.442 106.986 166.034C76.7533 184.906 60.9296 215.392 71.0939 258.482C81.2582 301.573 115.214 326.677 152.373 323.628C183.257 321.062 215.546 323.807 242.246 339.246C266.107 353.041 308.266 341.034 343.142 303.352C363.462 281.387 361.492 253.458 354.869 227.362C350.772 211.199 348.116 194.713 344.948 178.353Z" fill="#1E5F6E"/>
<path opacity="0.7" d="M344.948 178.353C342.826 166.818 340.114 155.407 336.823 144.167C326.928 111.634 307.233 78.7168 273.407 67.6491C248.435 59.4868 221.484 65.119 200.382 81.7564C167.286 107.843 143.199 143.442 106.986 166.034C76.7533 184.906 60.9296 215.392 71.0939 258.482C81.2582 301.573 115.214 326.677 152.373 323.628C183.257 321.062 215.546 323.807 242.246 339.246C266.107 353.041 308.266 341.034 343.142 303.352C363.462 281.387 361.492 253.458 354.869 227.362C350.772 211.199 348.116 194.713 344.948 178.353Z" fill="white"/>
<path d="M380.146 378.591C380.146 381.381 306.366 383.651 215.382 383.651C124.398 383.651 50.6094 381.381 50.6094 378.591C50.6094 375.802 124.389 373.531 215.382 373.531C306.374 373.531 380.146 375.802 380.146 378.591Z" fill="#1E5F6E"/>
<path opacity="0.3" d="M380.146 378.591C380.146 381.381 306.366 383.651 215.382 383.651C124.398 383.651 50.6094 381.381 50.6094 378.591C50.6094 375.802 124.389 373.531 215.382 373.531C306.374 373.531 380.146 375.802 380.146 378.591Z" fill="white"/>
<path d="M348.599 281.171C348.599 281.216 350.83 278.802 350.952 278.632C352.367 276.683 353.99 272.053 352.453 269.826C352.189 269.465 351.853 269.165 351.468 268.946C351.084 268.727 350.658 268.594 350.22 268.555C349.782 268.516 349.341 268.573 348.926 268.721C348.511 268.869 348.13 269.106 347.81 269.415C346.403 270.685 346.074 273.036 346.195 274.851C346.343 276.978 348.599 281.162 348.599 281.171Z" fill="#1E5F6E"/>
<path d="M368.878 272.858C366.708 271.293 362.23 273.001 360.346 274.467C360.181 274.601 357.855 276.89 357.898 276.907H357.95C357.239 277.176 356.483 277.462 355.659 277.801C354.148 278.427 352.447 279.16 350.642 280.072C348.693 281.048 346.798 282.135 344.965 283.326C342.911 284.654 340.977 286.168 339.184 287.85C339.162 287.869 339.141 287.89 339.123 287.913C339.505 287.224 340.521 285.231 340.582 285.088C341.45 282.817 341.823 277.936 339.774 276.192C339.424 275.917 339.021 275.721 338.592 275.616C338.164 275.512 337.718 275.501 337.285 275.586C336.852 275.67 336.441 275.847 336.079 276.106C335.717 276.364 335.411 276.698 335.183 277.086C334.158 278.696 334.436 281.047 335.026 282.763C335.686 284.703 338.681 287.904 338.924 288.127C337.136 289.884 335.466 291.762 333.924 293.75C333.056 294.904 332.145 296.093 331.32 297.326C331.633 296.719 331.91 296.164 331.936 296.084C332.804 293.822 333.178 288.932 331.129 287.188C330.779 286.913 330.377 286.717 329.949 286.613C329.521 286.508 329.076 286.498 328.644 286.582C328.212 286.667 327.801 286.844 327.44 287.102C327.078 287.361 326.774 287.695 326.546 288.082C325.513 289.683 325.8 292.043 326.381 293.75C326.963 295.458 329.48 298.283 330.148 299.007L329.133 300.384C327.57 302.628 326.025 304.854 324.437 307.017C323.881 307.777 323.308 308.51 322.701 309.235C322.979 308.689 323.213 308.233 323.239 308.162C324.107 305.891 324.48 301.01 322.432 299.222C322.082 298.945 321.679 298.748 321.25 298.642C320.821 298.537 320.375 298.526 319.942 298.611C319.508 298.695 319.097 298.873 318.735 299.132C318.373 299.391 318.068 299.727 317.84 300.116C316.807 301.725 317.094 304.076 317.684 305.793C318.274 307.509 320.531 310.048 321.321 310.915C320.713 311.648 320.105 312.372 319.481 313.052C319.047 313.508 318.665 313.946 318.196 314.402L316.868 315.689C316 316.476 315.132 317.298 314.22 318.049C313.613 318.577 313.031 319.06 312.484 319.551C313.04 318.809 314.116 317.316 314.22 317.182C315.198 315.291 315.688 313.173 315.644 311.031C315.76 310.826 315.858 310.611 315.939 310.388C316.101 309.966 316.176 309.514 316.157 309.061C316.139 308.608 316.029 308.164 315.833 307.758C315.638 307.351 315.361 306.992 315.022 306.703C314.683 306.413 314.289 306.201 313.865 306.079C311.261 305.426 307.702 308.671 306.461 310.745C306.391 310.871 305.731 312.283 305.341 313.186C305.488 312.623 305.653 312.069 305.801 311.487C306.113 310.334 306.391 309.172 306.669 307.911C306.79 307.304 306.921 306.687 307.051 306.07C307.181 305.453 307.259 304.791 307.372 304.148C307.589 302.646 307.745 301.117 307.875 299.57C308.856 299.848 312.354 300.786 314.108 300.464C315.861 300.143 318.005 299.338 318.89 297.648C319.115 297.258 319.256 296.823 319.306 296.372C319.355 295.922 319.312 295.465 319.178 295.033C319.045 294.601 318.824 294.203 318.531 293.865C318.237 293.526 317.878 293.256 317.475 293.071C315.028 292.016 311.009 294.671 309.472 296.522C309.377 296.638 308.422 298.095 307.91 298.909C307.98 298.015 308.049 297.049 308.092 296.102C308.197 293.42 308.231 290.621 308.275 287.868C308.275 287.028 308.275 286.187 308.327 285.347C308.674 285.445 312.814 286.652 314.776 286.339C316.512 286.071 318.673 285.222 319.567 283.523C319.789 283.132 319.927 282.696 319.975 282.246C320.023 281.796 319.978 281.34 319.844 280.908C319.71 280.477 319.489 280.079 319.196 279.741C318.903 279.403 318.545 279.132 318.144 278.946C315.705 277.9 311.677 280.555 310.141 282.406C310.028 282.54 308.657 284.641 308.327 285.195C308.37 283.344 308.431 281.494 308.561 279.679C308.729 277.226 309.048 274.786 309.516 272.375C309.681 272.375 313.995 273.698 316.009 273.376C317.745 273.108 319.897 272.259 320.791 270.56C321.013 270.169 321.152 269.734 321.2 269.284C321.248 268.834 321.204 268.379 321.071 267.948C320.938 267.516 320.718 267.119 320.426 266.78C320.134 266.442 319.777 266.17 319.376 265.983C316.929 264.937 312.901 267.583 311.373 269.443C311.269 269.559 310.219 271.159 309.742 271.928L309.603 271.874C310.139 269.459 310.886 267.098 311.833 264.821C312.337 263.56 312.884 262.389 313.448 261.245C314.229 261.566 317.788 263.033 319.645 262.925C321.503 262.818 323.638 262.246 324.706 260.664C324.968 260.3 325.153 259.883 325.249 259.441C325.345 258.999 325.35 258.541 325.263 258.097C325.176 257.653 325 257.233 324.745 256.863C324.491 256.494 324.164 256.183 323.786 255.952C321.468 254.638 317.18 256.846 315.462 258.482C315.366 258.572 314.516 259.6 313.899 260.36C314.16 259.859 314.42 259.331 314.68 258.849C315.653 257.061 316.642 255.452 317.536 254.048C318.048 253.261 318.526 252.555 318.986 251.893C319.906 251.804 323.638 251.366 325.209 250.445C326.78 249.524 328.447 247.951 328.681 246.038C328.753 245.591 328.732 245.133 328.62 244.695C328.507 244.257 328.307 243.848 328.031 243.495C327.755 243.142 327.409 242.854 327.017 242.648C326.625 242.442 326.196 242.324 325.756 242.301C323.109 242.229 320.288 246.19 319.507 248.487C319.437 248.693 318.725 251.92 318.769 251.911H318.83C318.378 252.507 317.901 253.187 317.397 253.95C316.469 255.335 315.436 256.909 314.429 258.697C313.321 260.615 312.321 262.597 311.434 264.633C310.435 266.91 309.63 269.274 309.03 271.695C309.035 271.725 309.035 271.755 309.03 271.785C309.03 270.989 308.769 268.763 308.735 268.593C308.249 266.215 305.931 261.906 303.301 261.638C302.862 261.604 302.421 261.665 302.007 261.818C301.592 261.972 301.214 262.213 300.896 262.527C300.579 262.84 300.329 263.22 300.163 263.639C299.997 264.059 299.919 264.511 299.933 264.964C299.933 266.886 301.435 268.692 302.841 269.782C304.429 271.025 308.639 271.999 308.978 272.071C308.433 274.554 308.047 277.072 307.823 279.607C307.693 281.082 307.598 282.567 307.519 284.077C307.459 283.389 307.398 282.772 307.381 282.692C306.886 280.305 304.568 276.005 301.938 275.727C301.499 275.693 301.058 275.755 300.644 275.908C300.23 276.061 299.851 276.302 299.534 276.616C299.216 276.93 298.966 277.309 298.8 277.729C298.634 278.149 298.556 278.6 298.57 279.053C298.57 280.975 300.072 282.781 301.478 283.881C302.884 284.98 306.487 285.892 307.433 286.125C307.433 286.697 307.381 287.269 307.363 287.841C307.259 290.595 307.172 293.348 307.007 296.039C306.947 296.987 306.851 297.925 306.764 298.855C306.712 298.247 306.651 297.729 306.643 297.657C306.148 295.27 303.83 290.97 301.2 290.693C300.762 290.659 300.321 290.72 299.906 290.873C299.492 291.027 299.114 291.268 298.796 291.582C298.478 291.895 298.228 292.275 298.062 292.694C297.896 293.114 297.818 293.566 297.833 294.019C297.833 295.95 299.334 297.747 300.74 298.846C302.147 299.946 305.402 300.777 306.521 301.045C306.408 302.002 306.287 302.959 306.131 303.871C306.009 304.496 305.94 305.113 305.783 305.73L305.367 307.518C305.054 308.671 304.751 309.869 304.421 310.987C304.195 311.765 303.969 312.507 303.744 313.258C303.813 312.31 303.909 310.459 303.9 310.298C303.77 307.876 302.112 303.254 299.56 302.574C299.132 302.473 298.687 302.466 298.256 302.553C297.825 302.641 297.416 302.821 297.057 303.081C296.698 303.342 296.396 303.677 296.17 304.066C295.945 304.454 295.802 304.887 295.749 305.337C295.463 307.241 296.678 309.252 297.911 310.558C299.143 311.863 303.119 313.57 303.605 313.767C303.223 315.001 302.85 316.19 302.476 317.343C301.183 321.232 299.968 324.424 299.091 326.641C299.091 326.721 299.03 326.793 298.996 326.864L300.575 327.758C300.628 327.615 300.688 327.472 300.74 327.32C301.608 325.058 302.745 321.804 303.961 317.844C304.351 316.592 304.742 315.251 305.132 313.865C306.457 314.036 307.79 314.126 309.125 314.134C309.603 316.127 311.816 319.399 312.103 319.819C311.13 320.633 310.176 321.42 309.264 322.144C306.105 324.656 303.379 326.614 301.452 327.973L301.226 328.134L302.962 329.117C304.837 327.731 307.302 325.809 310.228 323.413C311.217 322.591 312.267 321.688 313.326 320.731C313.717 321.071 316.885 323.842 318.76 324.397C320.453 324.897 322.753 325.058 324.246 323.905C324.607 323.646 324.91 323.312 325.137 322.924C325.364 322.536 325.51 322.104 325.564 321.654C325.618 321.205 325.579 320.749 325.451 320.315C325.323 319.882 325.107 319.482 324.819 319.14C323.031 317.129 318.3 317.799 316.139 318.818C316.017 318.881 314.715 319.712 313.899 320.213C314.333 319.828 314.767 319.462 315.193 319.06C316.061 318.282 316.929 317.468 317.849 316.592L319.151 315.278C319.593 314.84 320.019 314.33 320.453 313.857C321.442 312.73 322.388 311.541 323.317 310.325C323.994 311.112 326.416 313.901 328.022 314.652C329.627 315.403 331.876 315.922 333.525 315.019C333.919 314.818 334.267 314.534 334.548 314.186C334.829 313.838 335.036 313.433 335.155 312.998C335.275 312.562 335.304 312.106 335.241 311.658C335.179 311.21 335.026 310.78 334.792 310.397C333.316 308.135 328.542 308.054 326.268 308.725C326.121 308.77 324.532 309.44 323.664 309.825C324.211 309.091 324.775 308.358 325.305 307.59C326.859 305.381 328.36 303.12 329.87 300.831L331.268 298.757C331.502 299.034 334.315 302.395 336.12 303.227C337.717 303.987 339.965 304.505 341.615 303.593C342.01 303.395 342.361 303.112 342.643 302.764C342.926 302.417 343.134 302.011 343.253 301.575C343.373 301.138 343.402 300.681 343.338 300.232C343.274 299.784 343.118 299.354 342.882 298.971C341.406 296.71 336.632 296.629 334.358 297.309C334.193 297.353 331.919 298.328 331.355 298.605C332.379 297.085 333.421 295.574 334.506 294.135C335.952 292.179 337.524 290.324 339.21 288.583C339.323 288.717 342.239 292.231 344.08 293.107C345.685 293.876 347.934 294.385 349.583 293.482C349.978 293.283 350.327 293 350.609 292.652C350.89 292.304 351.098 291.898 351.217 291.462C351.337 291.026 351.366 290.569 351.303 290.121C351.239 289.673 351.085 289.243 350.85 288.86C349.374 286.59 344.6 286.518 342.326 287.188C342.179 287.233 340.451 287.975 339.635 288.342L339.549 288.208C341.291 286.504 343.176 284.964 345.182 283.604C346.284 282.835 347.369 282.164 348.446 281.547C348.923 282.254 351.136 285.481 352.716 286.464C354.296 287.448 356.405 288.172 358.141 287.457C358.556 287.302 358.934 287.058 359.251 286.742C359.568 286.425 359.817 286.044 359.981 285.622C360.145 285.2 360.22 284.747 360.202 284.293C360.184 283.839 360.074 283.394 359.877 282.987C358.653 280.564 353.914 279.956 351.588 280.367C351.458 280.367 350.19 280.761 349.279 281.047L350.737 280.224C352.517 279.277 354.209 278.508 355.693 277.846C356.561 277.48 357.325 277.158 358.054 276.872C358.879 277.319 362.212 279.08 364.018 279.196C365.823 279.312 368.062 278.955 369.278 277.498C369.556 277.17 369.766 276.788 369.897 276.374C370.028 275.96 370.076 275.523 370.039 275.09C370.001 274.657 369.879 274.235 369.68 273.852C369.481 273.468 369.208 273.13 368.878 272.858Z" fill="#1E5F6E"/>
<path d="M307.907 256.899C309.165 258.598 313.288 260.806 313.297 260.806C313.306 260.806 313.887 257.57 313.896 257.355C314.035 254.924 312.906 250.15 310.424 249.166C310.009 249.015 309.568 248.955 309.129 248.99C308.691 249.026 308.264 249.157 307.878 249.373C307.491 249.59 307.153 249.888 306.886 250.249C306.619 250.609 306.428 251.023 306.327 251.464C305.841 253.314 306.874 255.46 307.907 256.899Z" fill="#1E5F6E"/>
<g opacity="0.5">
<path d="M348.603 281.172C348.603 281.217 350.834 278.803 350.956 278.633C352.37 276.684 353.994 272.053 352.457 269.827C352.193 269.466 351.857 269.166 351.472 268.947C351.087 268.728 350.662 268.595 350.224 268.556C349.786 268.517 349.345 268.574 348.93 268.722C348.515 268.87 348.134 269.107 347.813 269.416C346.407 270.686 346.077 273.037 346.199 274.852C346.347 276.979 348.603 281.163 348.603 281.172Z" fill="white"/>
<path d="M368.878 272.858C366.708 271.293 362.23 273.001 360.346 274.467C360.181 274.601 357.855 276.89 357.898 276.907H357.95C357.239 277.176 356.483 277.462 355.659 277.801C354.148 278.427 352.447 279.16 350.642 280.072C348.693 281.048 346.798 282.135 344.965 283.326C342.911 284.654 340.977 286.168 339.184 287.85C339.162 287.869 339.141 287.89 339.123 287.913C339.505 287.224 340.521 285.231 340.582 285.088C341.45 282.817 341.823 277.936 339.774 276.192C339.424 275.917 339.021 275.721 338.592 275.616C338.164 275.512 337.718 275.501 337.285 275.586C336.852 275.67 336.441 275.847 336.079 276.106C335.717 276.364 335.411 276.698 335.183 277.086C334.158 278.696 334.436 281.047 335.026 282.763C335.686 284.703 338.681 287.904 338.924 288.127C337.136 289.884 335.466 291.762 333.924 293.75C333.056 294.904 332.145 296.093 331.32 297.326C331.633 296.719 331.91 296.164 331.936 296.084C332.804 293.822 333.178 288.932 331.129 287.188C330.779 286.913 330.377 286.717 329.949 286.613C329.521 286.508 329.076 286.498 328.644 286.582C328.212 286.667 327.801 286.844 327.44 287.102C327.078 287.361 326.774 287.695 326.546 288.082C325.513 289.683 325.8 292.043 326.381 293.75C326.963 295.458 329.48 298.283 330.148 299.007L329.133 300.384C327.57 302.628 326.025 304.854 324.437 307.017C323.881 307.777 323.308 308.51 322.701 309.235C322.979 308.689 323.213 308.233 323.239 308.162C324.107 305.891 324.48 301.01 322.432 299.222C322.082 298.945 321.679 298.748 321.25 298.642C320.821 298.537 320.375 298.526 319.942 298.611C319.508 298.695 319.097 298.873 318.735 299.132C318.373 299.391 318.068 299.727 317.84 300.116C316.807 301.725 317.094 304.076 317.684 305.793C318.274 307.509 320.531 310.048 321.321 310.915C320.713 311.648 320.105 312.372 319.481 313.052C319.047 313.508 318.665 313.946 318.196 314.402L316.868 315.689C316 316.476 315.132 317.298 314.22 318.049C313.613 318.577 313.031 319.06 312.484 319.551C313.04 318.809 314.116 317.316 314.22 317.182C315.198 315.291 315.688 313.173 315.644 311.031C315.76 310.826 315.858 310.611 315.939 310.388C316.101 309.966 316.176 309.514 316.157 309.061C316.139 308.608 316.029 308.164 315.833 307.758C315.638 307.351 315.361 306.992 315.022 306.703C314.683 306.413 314.289 306.201 313.865 306.079C311.261 305.426 307.702 308.671 306.461 310.745C306.391 310.871 305.731 312.283 305.341 313.186C305.488 312.623 305.653 312.069 305.801 311.487C306.113 310.334 306.391 309.172 306.669 307.911C306.79 307.304 306.921 306.687 307.051 306.07C307.181 305.453 307.259 304.791 307.372 304.148C307.589 302.646 307.745 301.117 307.875 299.57C308.856 299.848 312.354 300.786 314.108 300.464C315.861 300.143 318.005 299.338 318.89 297.648C319.115 297.258 319.256 296.823 319.306 296.372C319.355 295.922 319.312 295.465 319.178 295.033C319.045 294.601 318.824 294.203 318.531 293.865C318.237 293.526 317.878 293.256 317.475 293.071C315.028 292.016 311.009 294.671 309.472 296.522C309.377 296.638 308.422 298.095 307.91 298.909C307.98 298.015 308.049 297.049 308.092 296.102C308.197 293.42 308.231 290.621 308.275 287.868C308.275 287.028 308.275 286.187 308.327 285.347C308.674 285.445 312.814 286.652 314.776 286.339C316.512 286.071 318.673 285.222 319.567 283.523C319.789 283.132 319.927 282.696 319.975 282.246C320.023 281.796 319.978 281.34 319.844 280.908C319.71 280.477 319.489 280.079 319.196 279.741C318.903 279.403 318.545 279.132 318.144 278.946C315.705 277.9 311.677 280.555 310.141 282.406C310.028 282.54 308.657 284.641 308.327 285.195C308.37 283.344 308.431 281.494 308.561 279.679C308.729 277.226 309.048 274.786 309.516 272.375C309.681 272.375 313.995 273.698 316.009 273.376C317.745 273.108 319.897 272.259 320.791 270.56C321.013 270.169 321.152 269.734 321.2 269.284C321.248 268.834 321.204 268.379 321.071 267.948C320.938 267.516 320.718 267.119 320.426 266.78C320.134 266.442 319.777 266.17 319.376 265.983C316.929 264.937 312.901 267.583 311.373 269.443C311.269 269.559 310.219 271.159 309.742 271.928L309.603 271.874C310.139 269.459 310.886 267.098 311.833 264.821C312.337 263.56 312.884 262.389 313.448 261.245C314.229 261.566 317.788 263.033 319.645 262.925C321.503 262.818 323.638 262.246 324.706 260.664C324.968 260.3 325.153 259.883 325.249 259.441C325.345 258.999 325.35 258.541 325.263 258.097C325.176 257.653 325 257.233 324.745 256.863C324.491 256.494 324.164 256.183 323.786 255.952C321.468 254.638 317.18 256.846 315.462 258.482C315.366 258.572 314.516 259.6 313.899 260.36C314.16 259.859 314.42 259.331 314.68 258.849C315.653 257.061 316.642 255.452 317.536 254.048C318.048 253.261 318.526 252.555 318.986 251.893C319.906 251.804 323.638 251.366 325.209 250.445C326.78 249.524 328.447 247.951 328.681 246.038C328.753 245.591 328.732 245.133 328.62 244.695C328.507 244.257 328.307 243.848 328.031 243.495C327.755 243.142 327.409 242.854 327.017 242.648C326.625 242.442 326.196 242.324 325.756 242.301C323.109 242.229 320.288 246.19 319.507 248.487C319.437 248.693 318.725 251.92 318.769 251.911H318.83C318.378 252.507 317.901 253.187 317.397 253.95C316.469 255.335 315.436 256.909 314.429 258.697C313.321 260.615 312.321 262.597 311.434 264.633C310.435 266.91 309.63 269.274 309.03 271.695C309.035 271.725 309.035 271.755 309.03 271.785C309.03 270.989 308.769 268.763 308.735 268.593C308.249 266.215 305.931 261.906 303.301 261.638C302.862 261.604 302.421 261.665 302.007 261.818C301.592 261.972 301.214 262.213 300.896 262.527C300.579 262.84 300.329 263.22 300.163 263.639C299.997 264.059 299.919 264.511 299.933 264.964C299.933 266.886 301.435 268.692 302.841 269.782C304.429 271.025 308.639 271.999 308.978 272.071C308.433 274.554 308.047 277.072 307.823 279.607C307.693 281.082 307.598 282.567 307.519 284.077C307.459 283.389 307.398 282.772 307.381 282.692C306.886 280.305 304.568 276.005 301.938 275.727C301.499 275.693 301.058 275.755 300.644 275.908C300.23 276.061 299.851 276.302 299.534 276.616C299.216 276.93 298.966 277.309 298.8 277.729C298.634 278.149 298.556 278.6 298.57 279.053C298.57 280.975 300.072 282.781 301.478 283.881C302.884 284.98 306.487 285.892 307.433 286.125C307.433 286.697 307.381 287.269 307.363 287.841C307.259 290.595 307.172 293.348 307.007 296.039C306.947 296.987 306.851 297.925 306.764 298.855C306.712 298.247 306.651 297.729 306.643 297.657C306.148 295.27 303.83 290.97 301.2 290.693C300.762 290.659 300.321 290.72 299.906 290.873C299.492 291.027 299.114 291.268 298.796 291.582C298.478 291.895 298.228 292.275 298.062 292.694C297.896 293.114 297.818 293.566 297.833 294.019C297.833 295.95 299.334 297.747 300.74 298.846C302.147 299.946 305.402 300.777 306.521 301.045C306.408 302.002 306.287 302.959 306.131 303.871C306.009 304.496 305.94 305.113 305.783 305.73L305.367 307.518C305.054 308.671 304.751 309.869 304.421 310.987C304.195 311.765 303.969 312.507 303.744 313.258C303.813 312.31 303.909 310.459 303.9 310.298C303.77 307.876 302.112 303.254 299.56 302.574C299.132 302.473 298.687 302.466 298.256 302.553C297.825 302.641 297.416 302.821 297.057 303.081C296.698 303.342 296.396 303.677 296.17 304.066C295.945 304.454 295.802 304.887 295.749 305.337C295.463 307.241 296.678 309.252 297.911 310.558C299.143 311.863 303.119 313.57 303.605 313.767C303.223 315.001 302.85 316.19 302.476 317.343C301.183 321.232 299.968 324.424 299.091 326.641C299.091 326.721 299.03 326.793 298.996 326.864L300.575 327.758C300.628 327.615 300.688 327.472 300.74 327.32C301.608 325.058 302.745 321.804 303.961 317.844C304.351 316.592 304.742 315.251 305.132 313.865C306.457 314.036 307.79 314.126 309.125 314.134C309.603 316.127 311.816 319.399 312.103 319.819C311.13 320.633 310.176 321.42 309.264 322.144C306.105 324.656 303.379 326.614 301.452 327.973L301.226 328.134L302.962 329.117C304.837 327.731 307.302 325.809 310.228 323.413C311.217 322.591 312.267 321.688 313.326 320.731C313.717 321.071 316.885 323.842 318.76 324.397C320.453 324.897 322.753 325.058 324.246 323.905C324.607 323.646 324.91 323.312 325.137 322.924C325.364 322.536 325.51 322.104 325.564 321.654C325.618 321.205 325.579 320.749 325.451 320.315C325.323 319.882 325.107 319.482 324.819 319.14C323.031 317.129 318.3 317.799 316.139 318.818C316.017 318.881 314.715 319.712 313.899 320.213C314.333 319.828 314.767 319.462 315.193 319.06C316.061 318.282 316.929 317.468 317.849 316.592L319.151 315.278C319.593 314.84 320.019 314.33 320.453 313.857C321.442 312.73 322.388 311.541 323.317 310.325C323.994 311.112 326.416 313.901 328.022 314.652C329.627 315.403 331.876 315.922 333.525 315.019C333.919 314.818 334.267 314.534 334.548 314.186C334.829 313.838 335.036 313.433 335.155 312.998C335.275 312.562 335.304 312.106 335.241 311.658C335.179 311.21 335.026 310.78 334.792 310.397C333.316 308.135 328.542 308.054 326.268 308.725C326.121 308.77 324.532 309.44 323.664 309.825C324.211 309.091 324.775 308.358 325.305 307.59C326.859 305.381 328.36 303.12 329.87 300.831L331.268 298.757C331.502 299.034 334.315 302.395 336.12 303.227C337.717 303.987 339.965 304.505 341.615 303.593C342.01 303.395 342.361 303.112 342.643 302.764C342.926 302.417 343.134 302.011 343.253 301.575C343.373 301.138 343.402 300.681 343.338 300.232C343.274 299.784 343.118 299.354 342.882 298.971C341.406 296.71 336.632 296.629 334.358 297.309C334.193 297.353 331.919 298.328 331.355 298.605C332.379 297.085 333.421 295.574 334.506 294.135C335.952 292.179 337.524 290.324 339.21 288.583C339.323 288.717 342.239 292.231 344.08 293.107C345.685 293.876 347.934 294.385 349.583 293.482C349.978 293.283 350.327 293 350.609 292.652C350.89 292.304 351.098 291.898 351.217 291.462C351.337 291.026 351.366 290.569 351.303 290.121C351.239 289.673 351.085 289.243 350.85 288.86C349.374 286.59 344.6 286.518 342.326 287.188C342.179 287.233 340.451 287.975 339.635 288.342L339.549 288.208C341.291 286.504 343.176 284.964 345.182 283.604C346.284 282.835 347.369 282.164 348.446 281.547C348.923 282.254 351.136 285.481 352.716 286.464C354.296 287.448 356.405 288.172 358.141 287.457C358.556 287.302 358.934 287.058 359.251 286.742C359.568 286.425 359.817 286.044 359.981 285.622C360.145 285.2 360.22 284.747 360.202 284.293C360.184 283.839 360.074 283.394 359.877 282.987C358.653 280.564 353.914 279.956 351.588 280.367C351.458 280.367 350.19 280.761 349.279 281.047L350.737 280.224C352.517 279.277 354.209 278.508 355.693 277.846C356.561 277.48 357.325 277.158 358.054 276.872C358.879 277.319 362.212 279.08 364.018 279.196C365.823 279.312 368.062 278.955 369.278 277.498C369.556 277.17 369.766 276.788 369.897 276.374C370.028 275.96 370.076 275.523 370.039 275.09C370.001 274.657 369.879 274.235 369.68 273.852C369.481 273.468 369.208 273.13 368.878 272.858Z" fill="white"/>
<path d="M307.911 256.899C309.169 258.598 313.292 260.806 313.301 260.806C313.31 260.806 313.891 257.57 313.9 257.355C314.039 254.924 312.91 250.15 310.428 249.166C310.013 249.015 309.572 248.955 309.133 248.99C308.694 249.026 308.268 249.157 307.881 249.373C307.495 249.59 307.157 249.888 306.89 250.249C306.623 250.609 306.432 251.023 306.331 251.464C305.845 253.314 306.878 255.46 307.911 256.899Z" fill="white"/>
</g>
<path d="M138.481 211.699C138.533 211.699 137.804 207.953 137.726 207.729C136.858 205.047 133.733 200.39 130.678 200.398C130.171 200.415 129.672 200.541 129.215 200.769C128.758 200.996 128.353 201.321 128.025 201.72C127.698 202.12 127.456 202.586 127.315 203.088C127.173 203.591 127.136 204.118 127.206 204.636C127.432 206.844 129.359 208.731 131.103 209.812C133.135 211.091 138.481 211.699 138.481 211.699Z" fill="#1E5F6E"/>
<path d="M144.393 186.479C141.512 187.543 140.053 193.032 140.175 195.839C140.175 196.081 140.722 199.862 140.774 199.836H140.835C140.6 200.73 140.366 201.624 140.123 202.652C139.689 204.538 139.255 206.675 138.856 209.035C138.443 211.577 138.171 214.141 138.04 216.714C137.887 219.593 137.983 222.48 138.326 225.341C138.33 225.377 138.33 225.413 138.326 225.449C137.953 224.608 136.825 222.311 136.712 222.141C135.219 219.79 130.983 216.151 128.032 216.991C127.547 217.146 127.099 217.404 126.716 217.748C126.334 218.092 126.026 218.515 125.813 218.99C125.599 219.464 125.485 219.979 125.477 220.502C125.469 221.025 125.567 221.544 125.766 222.025C126.547 224.09 128.891 225.386 130.853 225.958C133.066 226.611 137.996 225.842 138.387 225.779C138.804 228.685 139.41 231.558 140.201 234.38C140.652 236.025 141.156 237.67 141.685 239.315C141.338 238.599 141.017 237.965 140.965 237.884C139.463 235.533 135.236 231.894 132.285 232.735C131.799 232.887 131.351 233.143 130.968 233.486C130.585 233.829 130.276 234.252 130.063 234.726C129.849 235.2 129.735 235.715 129.727 236.238C129.72 236.76 129.819 237.279 130.019 237.759C130.801 239.833 133.144 241.129 135.106 241.702C137.068 242.274 141.303 241.702 142.423 241.55C142.631 242.175 142.831 242.81 143.039 243.436C144.046 246.44 145.071 249.444 145.982 252.376C146.303 253.422 146.581 254.468 146.85 255.505C146.537 254.87 146.277 254.343 146.225 254.271C144.732 251.92 140.496 248.281 137.545 249.122C137.059 249.274 136.611 249.53 136.228 249.873C135.845 250.216 135.536 250.639 135.323 251.113C135.109 251.587 134.995 252.102 134.987 252.625C134.98 253.147 135.079 253.666 135.279 254.146C136.061 256.22 138.404 257.516 140.366 258.089C142.328 258.661 146.156 258.16 147.484 257.963C147.744 259.045 148.004 260.118 148.204 261.173C148.334 261.897 148.499 262.585 148.586 263.327C148.673 264.069 148.777 264.767 148.881 265.473C149.02 266.85 149.167 268.271 149.272 269.621C149.35 270.515 149.402 271.409 149.463 272.303C149.159 271.257 148.508 269.219 148.438 269.058C147.358 266.848 145.747 264.959 143.76 263.569C143.649 263.318 143.515 263.079 143.361 262.854C143.086 262.413 142.724 262.038 142.299 261.75C141.874 261.463 141.395 261.271 140.893 261.187C140.392 261.103 139.878 261.128 139.387 261.261C138.895 261.394 138.436 261.632 138.04 261.96C135.731 264.025 136.304 269.666 137.371 272.259C137.432 272.411 138.3 273.984 138.856 274.941C138.439 274.413 138.048 273.895 137.614 273.349C136.746 272.285 135.878 271.239 134.941 270.113L133.509 268.513C133.04 267.967 132.485 267.458 131.964 266.921C130.749 265.706 129.447 264.534 128.118 263.345C128.986 262.577 132.215 259.769 133.136 257.919C134.056 256.068 134.698 253.386 133.743 251.393C133.534 250.916 133.23 250.49 132.851 250.142C132.471 249.795 132.025 249.534 131.541 249.376C131.057 249.218 130.546 249.167 130.041 249.227C129.537 249.286 129.05 249.455 128.613 249.721C126.009 251.393 125.766 257.061 126.435 259.787C126.478 259.957 127.172 261.852 127.572 262.889C126.764 262.21 125.966 261.522 125.133 260.851C122.711 258.929 120.211 257.061 117.72 255.183C116.956 254.611 116.201 254.021 115.446 253.449C115.776 253.172 119.638 249.962 120.654 247.852C121.565 245.975 122.225 243.32 121.27 241.326C121.061 240.849 120.757 240.423 120.378 240.076C119.998 239.728 119.552 239.467 119.068 239.31C118.584 239.152 118.073 239.101 117.568 239.16C117.064 239.22 116.577 239.388 116.14 239.654C113.536 241.326 113.284 246.994 113.961 249.721C113.961 249.926 115.012 252.662 115.298 253.342C113.632 252.063 111.991 250.776 110.411 249.435C108.268 247.639 106.238 245.704 104.335 243.642C104.492 243.516 108.536 240.182 109.543 238.018C110.455 236.141 111.114 233.486 110.16 231.492C109.951 231.015 109.647 230.589 109.267 230.242C108.888 229.894 108.441 229.633 107.957 229.476C107.473 229.318 106.962 229.267 106.458 229.326C105.953 229.386 105.467 229.554 105.03 229.82C102.426 231.492 102.174 237.16 102.851 239.887C102.851 240.066 103.658 242.149 104.04 243.132L103.893 243.221C102.041 241.091 100.379 238.793 98.9276 236.356C98.1117 235.032 97.4086 233.674 96.7489 232.413C97.5562 231.868 101.263 229.355 102.417 227.514C103.571 225.672 104.457 223.187 103.719 221.104C103.562 220.606 103.306 220.148 102.966 219.759C102.626 219.37 102.21 219.06 101.746 218.847C101.282 218.635 100.779 218.525 100.271 218.526C99.7633 218.526 99.2611 218.637 98.7974 218.851C96.0459 220.228 95.1865 225.833 95.5598 228.613C95.5598 228.765 95.9504 230.285 96.2368 231.385C95.9504 230.795 95.6466 230.187 95.3688 229.597C94.3619 227.451 93.5721 225.431 92.8777 223.625C92.4957 222.597 92.1746 221.667 91.8795 220.782C92.4089 219.825 94.4835 215.919 94.6918 213.782C94.9001 211.645 94.5789 208.972 92.9558 207.47C92.5939 207.104 92.1611 206.82 91.6856 206.636C91.2101 206.453 90.7025 206.375 90.1958 206.407C89.6891 206.439 89.1946 206.581 88.7445 206.822C88.2943 207.064 87.8985 207.401 87.5829 207.81C85.7601 210.331 87.5047 215.722 89.0845 218.011C89.2147 218.207 91.6885 221.059 91.6885 221.006V220.943C91.9576 221.837 92.2527 222.731 92.5565 223.696C93.2075 225.484 93.9627 227.568 94.9261 229.74C95.9367 232.096 97.0815 234.389 98.3547 236.606C99.7725 239.096 101.399 241.453 103.216 243.651L103.285 243.722C102.521 243.239 100.351 241.934 100.169 241.88C97.6603 240.772 92.1833 240.146 90.1695 242.515C89.8472 242.92 89.6111 243.39 89.4764 243.894C89.3416 244.399 89.3114 244.927 89.3875 245.445C89.4636 245.962 89.6444 246.457 89.9181 246.898C90.1919 247.339 90.5526 247.716 90.9767 248.004C92.7127 249.283 95.3862 249.032 97.3218 248.398C99.5179 247.682 103.216 244.241 103.511 243.928C105.402 246.111 107.432 248.163 109.587 250.069C110.845 251.187 112.147 252.278 113.467 253.342L112.104 252.555C109.595 251.446 104.118 250.82 102.105 253.198C101.782 253.602 101.545 254.07 101.41 254.574C101.275 255.078 101.244 255.605 101.319 256.122C101.394 256.638 101.574 257.133 101.847 257.574C102.12 258.014 102.48 258.391 102.903 258.679C104.639 259.966 107.313 259.707 109.257 259.072C111.201 258.437 114.465 255.568 115.281 254.79L116.808 256.015C119.265 257.946 121.721 259.868 124.074 261.826C124.898 262.514 125.688 263.229 126.487 263.935C125.888 263.587 125.384 263.292 125.297 263.256C122.798 262.147 117.312 261.522 115.307 263.891C114.984 264.295 114.747 264.764 114.612 265.269C114.477 265.773 114.446 266.301 114.521 266.818C114.596 267.336 114.776 267.831 115.049 268.272C115.322 268.714 115.682 269.091 116.105 269.38C117.841 270.658 120.515 270.408 122.459 269.773C124.403 269.138 127.329 266.537 128.327 265.625C129.125 266.376 129.915 267.127 130.653 267.896C131.148 268.423 131.651 268.906 132.12 269.469L133.517 271.096C134.385 272.169 135.253 273.269 136.061 274.333C136.625 275.066 137.154 275.781 137.684 276.496C136.868 275.799 135.236 274.467 135.08 274.377C132.762 272.884 127.441 271.409 125.107 273.483C124.728 273.832 124.425 274.259 124.218 274.737C124.011 275.214 123.904 275.732 123.904 276.255C123.904 276.778 124.011 277.295 124.218 277.773C124.425 278.25 124.728 278.677 125.107 279.026C126.66 280.573 129.316 280.734 131.33 280.412C133.543 280.054 137.562 277.354 138.057 277.015C138.925 278.204 139.793 279.366 140.548 280.483C143.256 284.328 145.366 287.635 146.807 289.969L146.954 290.21L148.82 289.271L148.525 288.815C147.015 286.491 144.819 283.192 142.006 279.375C141.138 278.159 140.158 276.889 139.151 275.593C140.184 274.417 141.152 273.181 142.05 271.892C144.194 272.786 148.673 272.786 149.246 272.786C149.341 274.279 149.419 275.727 149.471 277.095C149.662 281.833 149.654 285.794 149.601 288.565V288.887L151.65 287.859C151.65 285.105 151.554 281.395 151.277 276.997C151.19 275.486 151.068 273.868 150.921 272.214C151.494 272.071 156.129 270.837 157.865 269.398C159.453 268.084 161.129 265.956 161.076 263.739C161.08 263.215 160.977 262.697 160.773 262.217C160.569 261.737 160.27 261.307 159.894 260.955C159.518 260.602 159.074 260.335 158.592 260.171C158.109 260.007 157.598 259.949 157.092 260.002C154.063 260.404 151.52 265.437 151.016 268.209C151.016 268.37 150.86 270.176 150.791 271.311C150.73 270.64 150.678 269.979 150.608 269.282C150.469 267.914 150.296 266.537 150.114 265.071L149.775 262.916C149.68 262.201 149.489 261.459 149.341 260.717C148.977 259.001 148.525 257.293 148.03 255.568C149.194 255.451 153.343 254.942 155.122 253.896C156.901 252.85 158.854 251.008 159.123 248.8C159.205 248.284 159.179 247.755 159.049 247.25C158.918 246.744 158.686 246.273 158.366 245.866C158.047 245.459 157.647 245.127 157.195 244.89C156.742 244.653 156.246 244.517 155.738 244.491C152.683 244.41 149.428 248.961 148.534 251.643C148.473 251.804 148.039 253.789 147.813 254.879C147.51 253.851 147.214 252.823 146.876 251.786C145.886 248.809 144.801 245.832 143.725 242.846L142.762 240.11C143.178 240.066 148.126 239.583 150.114 238.403C151.85 237.357 153.846 235.515 154.115 233.316C154.196 232.799 154.171 232.27 154.04 231.764C153.91 231.258 153.677 230.786 153.358 230.379C153.039 229.971 152.64 229.638 152.187 229.4C151.734 229.162 151.238 229.025 150.73 228.998C147.675 228.926 144.42 233.468 143.525 236.15C143.456 236.356 142.831 239.198 142.701 239.932C141.998 237.92 141.312 235.909 140.722 233.897C139.898 231.188 139.248 228.425 138.778 225.628C138.968 225.628 144.133 225.127 146.173 223.92C147.909 222.874 149.905 221.032 150.174 218.824C150.254 218.308 150.228 217.78 150.097 217.275C149.966 216.77 149.733 216.299 149.414 215.893C149.094 215.487 148.696 215.154 148.244 214.917C147.792 214.679 147.296 214.542 146.789 214.515C143.734 214.435 140.479 218.985 139.585 221.667C139.524 221.846 139.047 224.009 138.838 225.046H138.665C138.266 222.217 138.112 219.357 138.205 216.5C138.205 214.926 138.352 213.424 138.491 211.967C139.463 211.967 143.899 211.967 145.843 211.073C147.787 210.179 149.871 208.633 150.374 206.469C150.51 205.965 150.541 205.437 150.465 204.919C150.389 204.402 150.208 203.906 149.934 203.466C149.659 203.025 149.297 202.65 148.872 202.363C148.447 202.076 147.968 201.885 147.466 201.802C144.437 201.373 140.713 205.566 139.541 208.06C139.472 208.203 138.977 209.679 138.621 210.742C138.699 210.081 138.769 209.401 138.847 208.776C139.159 206.415 139.585 204.306 139.975 202.384C140.21 201.311 140.435 200.345 140.661 199.442C141.616 198.942 145.452 196.876 146.737 195.196C148.022 193.515 149.211 191.119 148.69 188.938C148.406 188.046 147.805 187.298 147.009 186.842C146.213 186.386 145.279 186.257 144.393 186.479Z" fill="#1E5F6E"/>
<path d="M89.1392 235.005C91.5262 234.907 96.3002 232.386 96.3089 232.386C96.3176 232.386 93.7049 229.65 93.5487 229.498C91.4134 227.71 86.2922 225.654 83.749 227.388C83.3328 227.689 82.9829 228.076 82.7222 228.526C82.4615 228.975 82.2958 229.476 82.236 229.996C82.1762 230.516 82.2236 231.043 82.3751 231.542C82.5267 232.042 82.7789 232.503 83.1153 232.895C84.4868 234.621 87.0994 235.121 89.1392 235.005Z" fill="#1E5F6E"/>
<g opacity="0.5">
<path d="M138.485 211.699C138.537 211.699 137.808 207.953 137.73 207.729C136.862 205.047 133.737 200.39 130.682 200.398C130.175 200.415 129.676 200.541 129.219 200.769C128.762 200.996 128.357 201.321 128.029 201.72C127.702 202.12 127.46 202.586 127.318 203.088C127.177 203.591 127.14 204.118 127.21 204.636C127.436 206.844 129.363 208.731 131.107 209.812C133.138 211.091 138.485 211.699 138.485 211.699Z" fill="white"/>
<path d="M144.397 186.479C141.516 187.543 140.057 193.032 140.179 195.839C140.179 196.081 140.726 199.862 140.778 199.836H140.839C140.604 200.73 140.37 201.624 140.127 202.652C139.693 204.538 139.259 206.675 138.86 209.035C138.447 211.577 138.175 214.141 138.044 216.714C137.891 219.593 137.987 222.48 138.33 225.341C138.334 225.377 138.334 225.413 138.33 225.449C137.957 224.608 136.828 222.311 136.716 222.141C135.223 219.79 130.987 216.151 128.036 216.991C127.551 217.146 127.103 217.404 126.72 217.748C126.338 218.092 126.03 218.515 125.817 218.99C125.603 219.464 125.489 219.979 125.481 220.502C125.473 221.025 125.571 221.544 125.77 222.025C126.551 224.09 128.895 225.386 130.857 225.958C133.07 226.611 138 225.842 138.391 225.779C138.808 228.685 139.414 231.558 140.205 234.38C140.656 236.025 141.16 237.67 141.689 239.315C141.342 238.599 141.021 237.965 140.969 237.884C139.467 235.533 135.24 231.894 132.289 232.735C131.803 232.887 131.355 233.143 130.972 233.486C130.589 233.829 130.28 234.252 130.067 234.726C129.853 235.2 129.738 235.715 129.731 236.238C129.724 236.76 129.823 237.279 130.023 237.759C130.804 239.833 133.148 241.129 135.11 241.702C137.071 242.274 141.307 241.702 142.427 241.55C142.635 242.175 142.835 242.81 143.043 243.436C144.05 246.44 145.074 249.444 145.986 252.376C146.307 253.422 146.585 254.468 146.854 255.505C146.541 254.87 146.281 254.343 146.229 254.271C144.736 251.92 140.5 248.281 137.549 249.122C137.063 249.274 136.615 249.53 136.232 249.873C135.849 250.216 135.54 250.639 135.327 251.113C135.113 251.587 134.999 252.102 134.991 252.625C134.984 253.147 135.083 253.666 135.283 254.146C136.065 256.22 138.408 257.516 140.37 258.089C142.332 258.661 146.159 258.16 147.487 257.963C147.748 259.045 148.008 260.118 148.208 261.173C148.338 261.897 148.503 262.585 148.59 263.327C148.677 264.069 148.781 264.767 148.885 265.473C149.024 266.85 149.171 268.271 149.276 269.621C149.354 270.515 149.406 271.409 149.466 272.303C149.163 271.257 148.512 269.219 148.442 269.058C147.361 266.848 145.751 264.959 143.764 263.569C143.653 263.318 143.519 263.079 143.364 262.854C143.089 262.413 142.728 262.038 142.303 261.75C141.878 261.463 141.399 261.271 140.897 261.187C140.396 261.103 139.882 261.128 139.391 261.261C138.899 261.394 138.44 261.632 138.044 261.96C135.735 264.025 136.308 269.666 137.375 272.259C137.436 272.411 138.304 273.984 138.86 274.941C138.443 274.413 138.052 273.895 137.618 273.349C136.75 272.285 135.882 271.239 134.945 270.113L133.513 268.513C133.044 267.967 132.488 267.458 131.968 266.921C130.752 265.706 129.45 264.534 128.122 263.345C128.99 262.577 132.219 259.769 133.139 257.919C134.059 256.068 134.702 253.386 133.747 251.393C133.538 250.916 133.234 250.49 132.855 250.142C132.475 249.795 132.029 249.534 131.545 249.376C131.061 249.218 130.55 249.167 130.045 249.227C129.541 249.286 129.054 249.455 128.617 249.721C126.013 251.393 125.77 257.061 126.438 259.787C126.482 259.957 127.176 261.852 127.576 262.889C126.768 262.21 125.97 261.522 125.136 260.851C122.715 258.929 120.215 257.061 117.724 255.183C116.96 254.611 116.205 254.021 115.45 253.449C115.779 253.172 119.642 249.962 120.658 247.852C121.569 245.975 122.229 243.32 121.274 241.326C121.065 240.849 120.761 240.423 120.382 240.076C120.002 239.728 119.556 239.467 119.072 239.31C118.588 239.152 118.077 239.101 117.572 239.16C117.068 239.22 116.581 239.388 116.144 239.654C113.54 241.326 113.288 246.994 113.965 249.721C113.965 249.926 115.016 252.662 115.302 253.342C113.635 252.063 111.995 250.776 110.415 249.435C108.272 247.639 106.242 245.704 104.339 243.642C104.495 243.516 108.54 240.182 109.547 238.018C110.459 236.141 111.118 233.486 110.163 231.492C109.955 231.015 109.651 230.589 109.271 230.242C108.892 229.894 108.445 229.633 107.961 229.476C107.477 229.318 106.966 229.267 106.462 229.326C105.957 229.386 105.471 229.554 105.034 229.82C102.43 231.492 102.178 237.16 102.855 239.887C102.855 240.066 103.662 242.149 104.044 243.132L103.896 243.221C102.045 241.091 100.383 238.793 98.9315 236.356C98.1156 235.032 97.4125 233.674 96.7529 232.413C97.5601 231.868 101.266 229.355 102.421 227.514C103.575 225.672 104.461 223.187 103.723 221.104C103.566 220.606 103.31 220.148 102.97 219.759C102.63 219.37 102.214 219.06 101.75 218.847C101.286 218.635 100.783 218.525 100.275 218.526C99.7672 218.526 99.265 218.637 98.8013 218.851C96.0498 220.228 95.1905 225.833 95.5637 228.613C95.5637 228.765 95.9543 230.285 96.2407 231.385C95.9543 230.795 95.6505 230.187 95.3727 229.597C94.3659 227.451 93.576 225.431 92.8816 223.625C92.4997 222.597 92.1785 221.667 91.8834 220.782C92.4128 219.825 94.4874 215.919 94.6957 213.782C94.904 211.645 94.5829 208.972 92.9597 207.47C92.5978 207.104 92.165 206.82 91.6895 206.636C91.214 206.453 90.7064 206.375 90.1997 206.407C89.693 206.439 89.1985 206.581 88.7484 206.822C88.2982 207.064 87.9024 207.401 87.5868 207.81C85.764 210.331 87.5086 215.722 89.0884 218.011C89.2186 218.207 91.6924 221.059 91.6924 221.006V220.943C91.9615 221.837 92.2566 222.731 92.5604 223.696C93.2114 225.484 93.9666 227.568 94.9301 229.74C95.9406 232.096 97.0854 234.389 98.3587 236.606C99.7764 239.096 101.403 241.453 103.219 243.651L103.289 243.722C102.525 243.239 100.355 241.934 100.173 241.88C97.6643 240.772 92.1872 240.146 90.1734 242.515C89.8511 242.92 89.615 243.39 89.4803 243.894C89.3456 244.399 89.3153 244.927 89.3914 245.445C89.4675 245.962 89.6483 246.457 89.922 246.898C90.1958 247.339 90.5565 247.716 90.9806 248.004C92.7166 249.283 95.3901 249.032 97.3257 248.398C99.5218 247.682 103.219 244.241 103.515 243.928C105.406 246.111 107.436 248.163 109.591 250.069C110.849 251.187 112.151 252.278 113.471 253.342L112.108 252.555C109.599 251.446 104.122 250.82 102.108 253.198C101.786 253.602 101.549 254.07 101.414 254.574C101.279 255.078 101.248 255.605 101.323 256.122C101.398 256.638 101.578 257.133 101.851 257.574C102.124 258.014 102.484 258.391 102.907 258.679C104.643 259.966 107.316 259.707 109.261 259.072C111.205 258.437 114.469 255.568 115.285 254.79L116.812 256.015C119.269 257.946 121.725 259.868 124.077 261.826C124.902 262.514 125.692 263.229 126.491 263.935C125.892 263.587 125.388 263.292 125.301 263.256C122.802 262.147 117.316 261.522 115.311 263.891C114.988 264.295 114.751 264.764 114.616 265.269C114.481 265.773 114.449 266.301 114.525 266.818C114.6 267.336 114.78 267.831 115.053 268.272C115.326 268.714 115.686 269.091 116.109 269.38C117.845 270.658 120.519 270.408 122.463 269.773C124.407 269.138 127.332 266.537 128.331 265.625C129.129 266.376 129.919 267.127 130.657 267.896C131.152 268.423 131.655 268.906 132.124 269.469L133.521 271.096C134.389 272.169 135.257 273.269 136.065 274.333C136.629 275.066 137.158 275.781 137.688 276.496C136.872 275.799 135.24 274.467 135.084 274.377C132.766 272.884 127.445 271.409 125.11 273.483C124.732 273.832 124.429 274.259 124.222 274.737C124.015 275.214 123.907 275.732 123.907 276.255C123.907 276.778 124.015 277.295 124.222 277.773C124.429 278.25 124.732 278.677 125.11 279.026C126.664 280.573 129.32 280.734 131.334 280.412C133.547 280.054 137.566 277.354 138.061 277.015C138.929 278.204 139.797 279.366 140.552 280.483C143.26 284.328 145.37 287.635 146.81 289.969L146.958 290.21L148.824 289.271L148.529 288.815C147.019 286.491 144.823 283.192 142.01 279.375C141.142 278.159 140.162 276.889 139.155 275.593C140.188 274.417 141.156 273.181 142.054 271.892C144.198 272.786 148.677 272.786 149.249 272.786C149.345 274.279 149.423 275.727 149.475 277.095C149.666 281.833 149.657 285.794 149.605 288.565V288.887L151.654 287.859C151.654 285.105 151.558 281.395 151.281 276.997C151.194 275.486 151.072 273.868 150.925 272.214C151.498 272.071 156.133 270.837 157.869 269.398C159.457 268.084 161.132 265.956 161.08 263.739C161.084 263.215 160.981 262.697 160.777 262.217C160.573 261.737 160.274 261.307 159.898 260.955C159.522 260.602 159.078 260.335 158.596 260.171C158.113 260.007 157.602 259.949 157.096 260.002C154.067 260.404 151.524 265.437 151.02 268.209C151.02 268.37 150.864 270.176 150.795 271.311C150.734 270.64 150.682 269.979 150.612 269.282C150.473 267.914 150.3 266.537 150.117 265.071L149.779 262.916C149.683 262.201 149.493 261.459 149.345 260.717C148.98 259.001 148.529 257.293 148.034 255.568C149.197 255.451 153.346 254.942 155.126 253.896C156.905 252.85 158.858 251.008 159.127 248.8C159.209 248.284 159.183 247.755 159.053 247.25C158.922 246.744 158.689 246.273 158.37 245.866C158.051 245.459 157.651 245.127 157.198 244.89C156.746 244.653 156.249 244.517 155.742 244.491C152.687 244.41 149.432 248.961 148.538 251.643C148.477 251.804 148.043 253.789 147.817 254.879C147.513 253.851 147.218 252.823 146.88 251.786C145.89 248.809 144.805 245.832 143.729 242.846L142.766 240.11C143.182 240.066 148.13 239.583 150.117 238.403C151.853 237.357 153.85 235.515 154.119 233.316C154.2 232.799 154.175 232.27 154.044 231.764C153.914 231.258 153.681 230.786 153.362 230.379C153.043 229.971 152.644 229.638 152.191 229.4C151.738 229.162 151.241 229.025 150.734 228.998C147.678 228.926 144.423 233.468 143.529 236.15C143.46 236.356 142.835 239.198 142.705 239.932C142.002 237.92 141.316 235.909 140.726 233.897C139.902 231.188 139.252 228.425 138.781 225.628C138.972 225.628 144.137 225.127 146.177 223.92C147.913 222.874 149.909 221.032 150.178 218.824C150.258 218.308 150.232 217.78 150.101 217.275C149.969 216.77 149.737 216.299 149.418 215.893C149.098 215.487 148.7 215.154 148.248 214.917C147.795 214.679 147.3 214.542 146.793 214.515C143.738 214.435 140.483 218.985 139.589 221.667C139.528 221.846 139.05 224.009 138.842 225.046H138.669C138.27 222.217 138.116 219.357 138.209 216.5C138.209 214.926 138.356 213.424 138.495 211.967C139.467 211.967 143.903 211.967 145.847 211.073C147.791 210.179 149.874 208.633 150.378 206.469C150.514 205.965 150.545 205.437 150.469 204.919C150.393 204.402 150.212 203.906 149.937 203.466C149.663 203.025 149.301 202.65 148.876 202.363C148.451 202.076 147.972 201.885 147.47 201.802C144.441 201.373 140.717 205.566 139.545 208.06C139.476 208.203 138.981 209.679 138.625 210.742C138.703 210.081 138.773 209.401 138.851 208.776C139.163 206.415 139.589 204.306 139.979 202.384C140.214 201.311 140.439 200.345 140.665 199.442C141.62 198.942 145.456 196.876 146.741 195.196C148.026 193.515 149.215 191.119 148.694 188.938C148.41 188.046 147.809 187.298 147.013 186.842C146.217 186.386 145.283 186.257 144.397 186.479Z" fill="white"/>
<path d="M89.1392 235.005C91.5262 234.907 96.3002 232.386 96.3089 232.386C96.3176 232.386 93.7049 229.65 93.5487 229.498C91.4134 227.71 86.2922 225.654 83.749 227.388C83.3328 227.689 82.9829 228.076 82.7222 228.526C82.4615 228.975 82.2958 229.476 82.236 229.996C82.1762 230.516 82.2236 231.043 82.3751 231.542C82.5267 232.042 82.7789 232.503 83.1153 232.895C84.4868 234.621 87.0994 235.121 89.1392 235.005Z" fill="white"/>
</g>
<path d="M118.311 302.52C118.311 302.52 132.807 266.537 140.922 268.101C149.038 269.666 127.034 325.469 127.034 325.469C127.034 325.469 152.536 275.924 169.931 275.924C187.326 275.924 163.551 330.681 141.53 348.937C141.53 348.937 176.302 310.343 196.587 318.693C216.872 327.043 156.017 366.146 156.017 366.146C156.017 366.146 191.37 354.676 187.317 363.545C183.263 372.413 172.248 373.969 172.248 373.969L212.237 376.061H73.1055L104.406 372.932C104.406 372.932 71.9423 356.241 80.6397 349.464C89.3371 342.688 108.459 357.287 108.459 357.287C108.459 357.287 75.423 319.739 81.7942 305.649C88.1653 291.56 116.575 331.209 116.575 331.209C116.575 331.209 93.3906 280.617 98.0258 271.776C102.661 262.934 118.311 302.52 118.311 302.52Z" fill="#1E5F6E"/>
<path opacity="0.5" d="M118.311 302.52C118.311 302.52 132.807 266.537 140.922 268.101C149.038 269.666 127.034 325.469 127.034 325.469C127.034 325.469 152.536 275.924 169.931 275.924C187.326 275.924 163.551 330.681 141.53 348.937C141.53 348.937 176.302 310.343 196.587 318.693C216.872 327.043 156.017 366.146 156.017 366.146C156.017 366.146 191.37 354.676 187.317 363.545C183.263 372.413 172.248 373.969 172.248 373.969L212.237 376.061H73.1055L104.406 372.932C104.406 372.932 71.9423 356.241 80.6397 349.464C89.3371 342.688 108.459 357.287 108.459 357.287C108.459 357.287 75.423 319.739 81.7942 305.649C88.1653 291.56 116.575 331.209 116.575 331.209C116.575 331.209 93.3906 280.617 98.0258 271.776C102.661 262.934 118.311 302.52 118.311 302.52Z" fill="white"/>
<path d="M113.675 304.416C126.426 343.225 126.426 370.688 126.426 370.688C126.426 370.688 111.357 371.278 95.707 359.343" stroke="#263238" stroke-linecap="round" stroke-linejoin="round"/>
<path d="M120.055 325.318C122.676 313.715 126.158 302.337 130.471 291.283" stroke="#263238" stroke-linecap="round" stroke-linejoin="round"/>
<path d="M157.726 302.628L125.271 352.182C125.271 352.182 103.241 333.078 95.707 322.332" stroke="#263238" stroke-linecap="round" stroke-linejoin="round"/>
<path d="M125.855 364.117C125.855 364.117 160.046 347.399 173.96 337.852" stroke="#263238" stroke-linecap="round" stroke-linejoin="round"/>
<path d="M305.303 302.52C305.303 302.52 290.817 266.537 282.735 268.101C274.654 269.666 296.623 325.469 296.623 325.469C296.623 325.469 271.122 275.924 253.736 275.924C236.35 275.924 260.107 330.681 282.137 348.937C282.137 348.937 247.356 310.343 227.071 318.693C206.785 327.043 267.65 366.146 267.65 366.146C267.65 366.146 232.287 354.676 236.35 363.545C240.412 372.413 251.418 373.969 251.418 373.969L211.395 376.061H350.518L319.217 372.932C319.217 372.932 351.672 356.241 342.983 349.464C334.295 342.688 315.155 357.287 315.155 357.287C315.155 357.287 348.2 319.739 341.82 305.649C335.44 291.56 307.039 331.209 307.039 331.209C307.039 331.209 330.232 280.617 325.589 271.749C320.945 262.88 305.303 302.52 305.303 302.52Z" fill="#1E5F6E"/>
<path opacity="0.5" d="M305.303 302.52C305.303 302.52 290.817 266.537 282.735 268.101C274.654 269.666 296.623 325.469 296.623 325.469C296.623 325.469 271.122 275.924 253.736 275.924C236.35 275.924 260.107 330.681 282.137 348.937C282.137 348.937 247.356 310.343 227.071 318.693C206.785 327.043 267.65 366.146 267.65 366.146C267.65 366.146 232.287 354.676 236.35 363.545C240.412 372.413 251.418 373.969 251.418 373.969L211.395 376.061H350.518L319.217 372.932C319.217 372.932 351.672 356.241 342.983 349.464C334.295 342.688 315.155 357.287 315.155 357.287C315.155 357.287 348.2 319.739 341.82 305.649C335.44 291.56 307.039 331.209 307.039 331.209C307.039 331.209 330.232 280.617 325.589 271.749C320.945 262.88 305.303 302.52 305.303 302.52Z" fill="white"/>
<path d="M309.938 304.416C297.188 343.225 297.188 370.688 297.188 370.688C297.188 370.688 312.256 371.278 327.906 359.343" stroke="#263238" stroke-linecap="round" stroke-linejoin="round"/>
<path d="M303.568 325.318C300.947 313.715 297.465 302.337 293.152 291.283" stroke="#263238" stroke-linecap="round" stroke-linejoin="round"/>
<path d="M265.887 302.628L298.35 352.182C298.35 352.182 320.371 333.078 327.905 322.332" stroke="#263238" stroke-linecap="round" stroke-linejoin="round"/>
<path d="M297.77 364.117C297.77 364.117 263.57 347.399 249.656 337.852" stroke="#263238" stroke-linecap="round" stroke-linejoin="round"/>
<path d="M281.906 108.621H147.886C144.651 108.621 142.027 111.323 142.027 114.656V373.102C142.027 376.435 144.651 379.137 147.886 379.137H281.906C285.141 379.137 287.765 376.435 287.765 373.102V114.656C287.765 111.323 285.141 108.621 281.906 108.621Z" fill="#263238" stroke="#263238" stroke-miterlimit="10"/>
<path d="M224.972 124.785H206.831C206.586 124.785 206.343 124.735 206.117 124.638C205.89 124.542 205.685 124.4 205.511 124.222C205.338 124.043 205.201 123.831 205.107 123.598C205.013 123.365 204.965 123.115 204.965 122.862C204.965 122.61 205.013 122.361 205.107 122.128C205.201 121.895 205.339 121.684 205.512 121.506C205.685 121.329 205.891 121.188 206.118 121.092C206.344 120.997 206.586 120.948 206.831 120.949H224.972C225.465 120.949 225.937 121.151 226.286 121.51C226.634 121.868 226.83 122.355 226.83 122.862C226.831 123.114 226.784 123.364 226.691 123.597C226.598 123.83 226.461 124.042 226.289 124.221C226.116 124.4 225.911 124.541 225.685 124.638C225.459 124.735 225.217 124.785 224.972 124.785Z" fill="#1E5F6E"/>
<path d="M278.557 354.962H151.238V125.008H181.419L184.813 127.904C185.996 128.923 187.489 129.48 189.031 129.478H242.274C243.872 129.469 245.413 128.866 246.614 127.779L249.678 125.008H278.53L278.557 354.962Z" fill="white" stroke="#263238" stroke-width="0.938618" stroke-linecap="round" stroke-linejoin="round"/>
<path d="M202.086 141.958L200.35 135.95H157.02V141.958V342.75V348.767H273.167V141.958H202.086Z" fill="#1E5F6E"/>
<path d="M269.077 152.785H161.098V342.152H269.077V152.785Z" fill="white"/>
<path d="M218.966 362.07C218.968 361.479 218.799 360.901 218.482 360.409C218.164 359.917 217.712 359.532 217.183 359.305C216.653 359.078 216.07 359.017 215.507 359.131C214.944 359.246 214.426 359.529 214.02 359.947C213.614 360.364 213.337 360.896 213.224 361.475C213.112 362.055 213.169 362.656 213.388 363.202C213.607 363.748 213.979 364.215 214.456 364.543C214.932 364.872 215.493 365.047 216.067 365.047C216.834 365.045 217.569 364.731 218.111 364.173C218.654 363.616 218.962 362.86 218.966 362.07Z" fill="#1E5F6E"/>
<path d="M206.979 333.882C226.615 333.882 242.532 310.555 242.532 281.78C242.532 253.005 226.615 229.678 206.979 229.678C187.344 229.678 171.426 253.005 171.426 281.78C171.426 310.555 187.344 333.882 206.979 333.882Z" fill="#1E5F6E"/>
<path opacity="0.5" d="M206.979 333.882C226.615 333.882 242.532 310.555 242.532 281.78C242.532 253.005 226.615 229.678 206.979 229.678C187.344 229.678 171.426 253.005 171.426 281.78C171.426 310.555 187.344 333.882 206.979 333.882Z" fill="white"/>
<path d="M212.022 223.625C212.022 223.625 209.8 219.799 207.76 219.611C205.72 219.423 181.433 235.122 177.718 243.293C174.003 251.464 170.488 267.86 180.322 283.639C189.914 298.989 204.948 298.48 212.742 297.711C220.537 296.942 225.762 294.332 233.661 287.805C241.56 281.279 248.808 271.669 249.858 265.142C250.908 258.616 247.046 254.987 244.58 254.084C242.115 253.181 227.854 253.36 217.464 242.462C207.074 231.564 212.022 223.625 212.022 223.625Z" fill="#263238" stroke="#263238" stroke-linecap="round" stroke-linejoin="round"/>
<path d="M215.175 218.654C215.175 218.654 208.873 221.14 204.976 225.529C201.078 229.919 198.674 236.803 198.492 246.923C198.309 257.043 201.46 268.495 213.69 273.465C225.921 278.436 236.866 274.61 240.39 271.168C243.914 267.726 248.202 257.999 248.202 257.999C248.202 257.999 228.742 263.363 219.471 252.072C210.201 240.781 215.175 218.654 215.175 218.654Z" fill="white" stroke="#263238" stroke-linecap="round" stroke-linejoin="round"/>
<path d="M324.089 225.708C319.332 218.36 307.979 216.187 299.004 213.192C290.028 210.198 284.742 204.252 287.121 189.537C289.499 174.822 301.877 150.916 301.642 146.563C301.408 142.209 258.867 142.486 254.9 143.881C250.934 145.275 250.152 144.962 246.455 149.861C244.406 152.507 242.551 155.307 240.908 158.238L245.491 148.315H245.83C246.328 147.011 247.035 145.802 247.922 144.739C251.955 139.92 254.24 133.809 254.388 127.449C254.562 118.089 248.095 118.992 246.871 121.87C245.648 124.749 238.487 134.655 236.386 137.354C234.285 140.054 229.919 147.439 229.919 147.439L225.067 164.764C225.067 164.764 224.008 169.932 217.932 189.519C211.856 209.107 214.504 218.136 214.504 218.136C214.504 218.136 212.915 217.323 209.218 229.016C205.52 240.71 207.108 255.666 213.705 262.738C220.302 269.809 229.025 269.541 238.799 265.465C244.811 262.811 249.819 258.21 253.06 252.359C253.06 252.359 263.363 249.677 271.019 243.66C278.675 237.643 284.482 231.421 295.592 231.966C306.703 232.512 319.358 239.038 323.585 238.761C327.812 238.484 328.845 233.048 324.089 225.708Z" fill="white"/>
<mask id="mask0_427_3164" style="mask-type:luminance" maskUnits="userSpaceOnUse" x="207" y="119" width="121" height="150">
<path d="M324.089 225.708C319.332 218.36 307.979 216.187 299.004 213.192C290.028 210.198 284.742 204.252 287.121 189.537C289.499 174.822 301.877 150.916 301.642 146.563C301.408 142.209 258.867 142.486 254.9 143.881C250.934 145.275 250.152 144.962 246.455 149.861C244.406 152.507 242.551 155.307 240.908 158.238L245.491 148.315H245.83C246.328 147.011 247.035 145.802 247.922 144.739C251.955 139.92 254.24 133.809 254.388 127.449C254.562 118.089 248.095 118.992 246.871 121.87C245.648 124.749 238.487 134.655 236.386 137.354C234.285 140.054 229.919 147.439 229.919 147.439L225.067 164.764C225.067 164.764 224.008 169.932 217.932 189.519C211.856 209.107 214.504 218.136 214.504 218.136C214.504 218.136 212.915 217.323 209.218 229.016C205.52 240.71 207.108 255.666 213.705 262.738C220.302 269.809 229.025 269.541 238.799 265.465C244.811 262.811 249.819 258.21 253.06 252.359C253.06 252.359 263.363 249.677 271.019 243.66C278.675 237.643 284.482 231.421 295.592 231.966C306.703 232.512 319.358 239.038 323.585 238.761C327.812 238.484 328.845 233.048 324.089 225.708Z" fill="white"/>
</mask>
<g mask="url(#mask0_427_3164)">
<path d="M255.976 200.256C226.595 204.771 217.359 211.995 220.293 221.936C220.902 223.907 221.891 225.732 223.201 227.3C223.201 227.488 223.201 227.693 223.253 227.908C223.253 227.908 223.774 228.23 224.555 228.802C225.583 229.825 226.696 230.755 227.879 231.582C229.806 233.468 231.534 235.829 231.178 238.019C230.423 242.686 219.894 250.839 214.573 251.232C209.252 251.626 207.403 246.181 206.648 252.01C205.893 257.839 217.593 272.214 228.912 270.659C240.231 269.103 249.666 252.779 249.666 252.779C249.666 252.779 248.156 250.097 255.742 241.899C260.724 236.535 267.851 234.166 273.31 231.966C278.465 230.405 283.489 228.42 288.335 226.03C301.763 219.254 317.717 223.777 317.717 223.777C317.717 223.777 285.358 195.688 255.976 200.256Z" fill="#1E5F6E"/>
<path opacity="0.5" d="M255.976 200.256C226.595 204.771 217.359 211.995 220.293 221.936C220.902 223.907 221.891 225.732 223.201 227.3C223.201 227.488 223.201 227.693 223.253 227.908C223.253 227.908 223.774 228.23 224.555 228.802C225.583 229.825 226.696 230.755 227.879 231.582C229.806 233.468 231.534 235.829 231.178 238.019C230.423 242.686 219.894 250.839 214.573 251.232C209.252 251.626 207.403 246.181 206.648 252.01C205.893 257.839 217.593 272.214 228.912 270.659C240.231 269.103 249.666 252.779 249.666 252.779C249.666 252.779 248.156 250.097 255.742 241.899C260.724 236.535 267.851 234.166 273.31 231.966C278.465 230.405 283.489 228.42 288.335 226.03C301.763 219.254 317.717 223.777 317.717 223.777C317.717 223.777 285.358 195.688 255.976 200.256Z" fill="white"/>
</g>
<path d="M324.089 225.708C319.332 218.36 307.979 216.187 299.004 213.192C290.028 210.198 284.742 204.252 287.121 189.537C289.499 174.822 301.877 150.916 301.642 146.563C301.408 142.209 258.867 142.486 254.9 143.881C250.934 145.275 250.152 144.962 246.455 149.861C244.406 152.507 242.551 155.307 240.908 158.238L245.491 148.315H245.83C246.328 147.011 247.035 145.802 247.922 144.739C251.955 139.92 254.24 133.809 254.388 127.449C254.562 118.089 248.095 118.992 246.871 121.87C245.648 124.749 238.487 134.655 236.386 137.354C234.285 140.054 229.919 147.439 229.919 147.439L225.067 164.764C225.067 164.764 224.008 169.932 217.932 189.519C211.856 209.107 214.504 218.136 214.504 218.136C214.504 218.136 212.915 217.323 209.218 229.016C205.52 240.71 207.108 255.666 213.705 262.738C220.302 269.809 229.025 269.541 238.799 265.465C244.811 262.811 249.819 258.21 253.06 252.359C253.06 252.359 263.363 249.677 271.019 243.66C278.675 237.643 284.482 231.421 295.592 231.966C306.703 232.512 319.358 239.038 323.585 238.761C327.812 238.484 328.845 233.048 324.089 225.708Z" stroke="#263238" stroke-linecap="round" stroke-linejoin="round"/>
<path d="M324.237 238.698C324.237 238.698 324.792 236.41 318.491 233.334C312.189 230.259 309.594 232.378 309.594 233.906C309.594 235.435 323.265 238.698 324.237 238.698Z" fill="white" stroke="#263238" stroke-linecap="round" stroke-linejoin="round"/>
<path d="M264.527 133.949L248.625 146.554H269.952C269.952 146.554 269.952 131.07 264.527 133.949Z" fill="white" stroke="#263238" stroke-linecap="round" stroke-linejoin="round"/>
<path d="M244.582 224.868C246.841 222.239 249.656 220.181 252.811 218.852" stroke="#263238" stroke-linecap="round" stroke-linejoin="round"/>
<path d="M241.691 229.758C241.935 229.031 242.252 228.333 242.638 227.675" stroke="#263238" stroke-linecap="round" stroke-linejoin="round"/>
<path d="M235.355 246.744C234.504 245.973 233.709 245.14 232.977 244.25" stroke="#263238" stroke-linecap="round" stroke-linejoin="round"/>
<path d="M253.062 252.359C248.158 252.934 243.204 251.888 238.914 249.373" stroke="#263238" stroke-linecap="round" stroke-linejoin="round"/>
<path d="M312.519 145.472H232.385C221.318 145.472 212.352 154.295 212.352 165.14V204.029C212.352 213.487 219.131 221.39 228.175 223.294L223.948 236.177L243.513 223.768H312.519C323.577 223.768 332.552 214.944 332.552 204.1V165.211C332.552 154.295 323.577 145.472 312.519 145.472Z" fill="#1E5F6E" stroke="#263238" stroke-width="2" stroke-miterlimit="10"/>
<path d="M225.398 171.657H315.479" stroke="#263238" stroke-width="2.06409" stroke-miterlimit="10" stroke-linecap="round"/>
<path d="M225.398 181.214H315.479" stroke="#263238" stroke-width="2.06409" stroke-miterlimit="10" stroke-linecap="round"/>
<path d="M225.398 190.762H315.479" stroke="#263238" stroke-width="2.06409" stroke-miterlimit="10" stroke-linecap="round"/>
<path d="M225.398 200.31H315.479" stroke="#263238" stroke-width="2.06409" stroke-miterlimit="10" stroke-linecap="round"/>
<path d="M331.823 179.56C337.993 179.56 342.995 174.641 342.995 168.573C342.995 162.505 337.993 157.586 331.823 157.586C325.654 157.586 320.652 162.505 320.652 168.573C320.652 174.641 325.654 179.56 331.823 179.56Z" fill="#263238"/>
<path d="M330.954 176.333C330.586 175.578 330.422 174.735 330.476 173.892V164.952L328.515 166.079C328.303 166.205 328.064 166.272 327.82 166.275C327.637 166.277 327.456 166.239 327.288 166.164C327.121 166.088 326.971 165.977 326.848 165.837C326.592 165.564 326.452 165.198 326.457 164.818C326.452 164.56 326.524 164.307 326.666 164.094C326.868 163.845 327.109 163.63 327.377 163.459L331.179 161.457C331.604 161.143 332.1 160.949 332.62 160.894C333.913 160.894 334.556 161.895 334.556 163.897V174.205C334.556 176.163 333.879 177.138 332.516 177.138C332.209 177.165 331.9 177.105 331.624 176.963C331.348 176.821 331.116 176.603 330.954 176.333Z" fill="white"/>
<path d="M288.96 139.714C288.96 139.714 289.316 146.911 295.609 150.335C301.902 153.759 309.94 153.017 310.113 148.717C310.287 144.417 305.391 139.893 302.076 134.127C298.76 128.36 291.408 131.615 288.266 135.575" fill="white"/>
<path d="M288.96 139.714C288.96 139.714 289.316 146.911 295.609 150.335C301.902 153.759 309.94 153.017 310.113 148.717C310.287 144.417 305.391 139.893 302.076 134.127C298.76 128.36 291.408 131.615 288.266 135.575" stroke="#263238" stroke-linecap="round" stroke-linejoin="round"/>
<path d="M299.804 145.472C299.275 148.35 301.202 149.942 302.946 150.836C304.691 151.73 308.154 151.202 310.116 148.681C310.203 146.571 309.083 144.426 307.512 142.11C305.325 142.396 300.212 143.219 299.804 145.472Z" fill="white" stroke="#263238" stroke-linecap="round" stroke-linejoin="round"/>
<path d="M275.855 139.714C275.855 139.714 276.203 146.911 282.496 150.335C288.789 153.759 296.835 153.017 297.009 148.717C297.182 144.417 292.287 139.893 288.962 134.127C285.638 128.36 278.303 131.615 275.152 135.575" fill="white"/>
<path d="M275.855 139.714C275.855 139.714 276.203 146.911 282.496 150.335C288.789 153.759 296.835 153.017 297.009 148.717C297.182 144.417 292.287 139.893 288.962 134.127C285.638 128.36 278.303 131.615 275.152 135.575" stroke="#263238" stroke-linecap="round" stroke-linejoin="round"/>
<path d="M286.695 145.472C286.165 148.35 288.092 149.942 289.837 150.836C291.582 151.73 295.045 151.202 297.007 148.681C297.085 146.571 295.965 144.426 294.403 142.11C292.215 142.396 287.103 143.219 286.695 145.472Z" fill="white" stroke="#263238" stroke-linecap="round" stroke-linejoin="round"/>
<path d="M263.66 139.714C263.66 139.714 264.007 146.911 270.3 150.335C276.593 153.759 284.631 153.017 284.805 148.717C284.978 144.417 280.091 139.893 276.767 134.127C273.442 128.36 266.099 131.615 262.957 135.575" fill="white"/>
<path d="M263.66 139.714C263.66 139.714 264.007 146.911 270.3 150.335C276.593 153.759 284.631 153.017 284.805 148.717C284.978 144.417 280.091 139.893 276.767 134.127C273.442 128.36 266.099 131.615 262.957 135.575" stroke="#263238" stroke-linecap="round" stroke-linejoin="round"/>
<path d="M274.493 145.472C273.972 148.35 275.891 149.942 277.644 150.836C279.397 151.73 282.852 151.202 284.805 148.681C284.892 146.571 283.772 144.426 282.201 142.11C280.014 142.396 274.901 143.219 274.493 145.472Z" fill="white" stroke="#263238" stroke-linecap="round" stroke-linejoin="round"/>
<path d="M214.504 218.137C214.504 218.137 214.99 229.204 220.918 236.651" stroke="#263238" stroke-linecap="round" stroke-linejoin="round"/>
<path d="M197.248 264.33C197.248 266.582 195.79 268.406 193.993 268.406C192.197 268.406 190.738 266.618 190.738 264.33C190.738 262.041 192.197 260.253 193.993 260.253C195.79 260.253 197.248 262.077 197.248 264.33Z" fill="white"/>
<path d="M189.151 269.407C189.151 271.66 187.692 273.484 185.896 273.484C184.099 273.484 182.641 271.696 182.641 269.407C182.641 267.118 184.099 265.321 185.896 265.321C187.692 265.321 189.151 267.154 189.151 269.407Z" stroke="#263238" stroke-linecap="round" stroke-linejoin="round"/>
</svg>
