<svg width="428" height="286" viewBox="0 0 428 286" fill="none" xmlns="http://www.w3.org/2000/svg">
<path d="M197.967 244.816C197.757 242.292 198.225 239.758 199.325 237.478C200.425 235.198 202.115 233.255 204.218 231.853C206.322 230.45 208.763 229.64 211.286 229.505C213.809 229.371 216.322 229.917 218.562 231.088C219.647 228.182 220.76 225.225 222.677 222.794C224.594 220.363 227.493 218.498 230.586 218.612V244.816H197.967Z" fill="#EBEBEB"/>
<path d="M112.026 143.303L95.3509 177.028L100.333 177.217L86.1974 204.015H93.6218L82.043 227.821H146.768L132.513 204.015L139.344 203.717L125.688 176.931L130.732 176.633L112.026 143.303Z" fill="#EBEBEB"/>
<path d="M114.851 182.422C114.931 182.422 114.788 196.722 114.531 214.317C114.274 231.911 114.001 246.211 113.915 246.206C113.829 246.2 113.978 231.906 114.235 214.311C114.491 196.716 114.765 182.422 114.851 182.422Z" fill="#E0E0E0"/>
<path d="M122.783 190.287C122.463 190.834 122.098 191.355 121.693 191.843C120.991 192.781 119.981 194.045 118.84 195.429L115.929 198.959C115.546 199.464 115.129 199.941 114.68 200.389C114.996 199.838 115.358 199.315 115.764 198.827C116.472 197.895 117.476 196.625 118.617 195.241L121.528 191.711C121.91 191.206 122.329 190.729 122.783 190.287Z" fill="#E0E0E0"/>
<path d="M114.702 200.389C113.429 199.578 112.21 198.688 111.05 197.723C109.829 196.832 108.668 195.861 107.574 194.817C108.849 195.627 110.071 196.517 111.232 197.483C112.453 198.372 113.612 199.342 114.702 200.389Z" fill="#E0E0E0"/>
<path d="M114.253 216.925C113.815 216.642 113.406 216.316 113.032 215.953C112.301 215.329 111.32 214.471 110.179 213.545C109.037 212.618 107.999 211.8 107.245 211.211C106.818 210.913 106.417 210.578 106.047 210.21C106.513 210.442 106.954 210.72 107.365 211.039C108.158 211.611 109.225 212.384 110.367 213.327C111.508 214.271 112.495 215.146 113.192 215.81C113.58 216.147 113.936 216.52 114.253 216.925Z" fill="#E0E0E0"/>
<path d="M123.472 206.703C123.39 206.867 123.288 207.021 123.17 207.161C122.964 207.441 122.65 207.836 122.251 208.305C121.446 209.26 120.282 210.53 118.964 211.908C117.645 213.287 116.464 214.522 115.625 215.443C115.194 215.958 114.735 216.449 114.25 216.913C114.324 216.748 114.425 216.595 114.547 216.461C114.752 216.175 115.066 215.781 115.466 215.317C116.27 214.356 117.434 213.087 118.753 211.714C120.071 210.341 121.252 209.094 122.091 208.173C122.523 207.658 122.984 207.167 123.472 206.703Z" fill="#E0E0E0"/>
<path d="M247.789 181.678H315.413L328.048 163.694L341.293 182.187L356.855 181.936L340.083 159.29L264.681 159.605L247.789 181.678Z" fill="#E0E0E0"/>
<path d="M281.605 181.935V244.976H349.132V181.935H341.394L328.046 163.694L315.372 181.661L281.605 181.935Z" fill="#F5F5F5"/>
<path d="M306.944 217.646H291.148V244.976H306.944V217.646Z" fill="#E0E0E0"/>
<path d="M341.291 216.873H316.41V232.323H341.291V216.873Z" fill="#E0E0E0"/>
<path d="M323.879 216.873H323.309V232.466H323.879V216.873Z" fill="#EBEBEB"/>
<path d="M334.227 216.873H333.656V232.466H334.227V216.873Z" fill="#EBEBEB"/>
<path d="M333.94 224.853H323.594V225.425H333.94V224.853Z" fill="#EBEBEB"/>
<path d="M341.291 185.957H316.41V201.407H341.291V185.957Z" fill="#E0E0E0"/>
<path d="M323.879 185.957H323.309V201.55H323.879V185.957Z" fill="#EBEBEB"/>
<path d="M334.227 185.957H333.656V201.55H334.227V185.957Z" fill="#EBEBEB"/>
<path d="M333.94 193.937H323.594V194.509H333.94V193.937Z" fill="#EBEBEB"/>
<path d="M305.295 186.094H289.602V200.989H305.295V186.094Z" fill="#E0E0E0"/>
<path d="M281.612 181.936H254.203V244.97H281.612V181.936Z" fill="#E0E0E0"/>
<path d="M297.731 186.094H297.16V200.989H297.731V186.094Z" fill="#EBEBEB"/>
<path d="M305.295 193.622H289.602V194.194H305.295V193.622Z" fill="#EBEBEB"/>
<path d="M328.011 179.064C329.848 179.064 331.338 177.571 331.338 175.729C331.338 173.888 329.848 172.395 328.011 172.395C326.173 172.395 324.684 173.888 324.684 175.729C324.684 177.571 326.173 179.064 328.011 179.064Z" fill="#E0E0E0"/>
<path d="M304.277 171.64L308.472 166.446V153.959H299.684V171.737L304.277 171.64Z" fill="#F5F5F5"/>
<path d="M304.277 171.64V153.959H308.472V166.446L304.277 171.64Z" fill="#EBEBEB"/>
<path d="M309.066 152.123H298.703V153.959H309.066V152.123Z" fill="#EBEBEB"/>
<path d="M281.604 209.512H230.609V244.976H281.604V209.512Z" fill="#F5F5F5"/>
<path d="M262.538 209.512H230.609V244.976H262.538V209.512Z" fill="#E0E0E0"/>
<path d="M257.787 220.946H236.906V244.913H257.787V220.946Z" fill="#F5F5F5"/>
<path d="M278.798 220.849H265.348V224.281H278.798V220.849Z" fill="#EBEBEB"/>
<path d="M247.789 181.678V183.503H315.373V181.661L247.789 181.678Z" fill="#EBEBEB"/>
<path d="M315.371 183.503L328.011 165.719L328.046 163.694L315.411 181.678L315.371 183.503Z" fill="#EBEBEB"/>
<path d="M356.529 181.936H341.395V183.114H356.529V181.936Z" fill="#EBEBEB"/>
<path d="M301.556 213.459H295.969V215.587H301.556V213.459Z" fill="#E0E0E0"/>
<path d="M385.297 244.977C385.297 245.057 308.6 245.125 214.006 245.125C119.412 245.125 42.7031 245.057 42.7031 244.977C42.7031 244.896 119.384 244.816 214 244.816C308.617 244.816 385.297 244.891 385.297 244.977Z" fill="#263238"/>
<path d="M252.766 79.062C240.126 61.6331 221.751 53.5107 202.548 53.5107C202.548 53.5107 155.587 53.5107 141.68 95.65C136.544 111.18 137.686 128.042 143.906 143.166C146.241 148.915 149.184 154.398 152.683 159.52C164.832 177.08 202.588 225.019 202.588 225.019H210.794C221.328 210.353 247.847 161.636 255.791 146.015C265.749 126.412 267.278 99.0705 252.766 79.062ZM210.406 157.008C202.471 157.008 194.714 154.65 188.117 150.231C181.519 145.812 176.377 139.532 173.341 132.184C170.305 124.836 169.511 116.75 171.059 108.95C172.608 101.149 176.429 93.9844 182.04 88.3609C187.651 82.7374 194.8 78.9081 202.583 77.3572C210.365 75.8063 218.432 76.6034 225.762 79.6478C233.093 82.6922 239.358 87.8471 243.765 94.4606C248.173 101.074 250.525 108.849 250.524 116.803C250.522 127.466 246.295 137.693 238.771 145.233C231.248 152.773 221.045 157.008 210.406 157.008Z" fill="#1E5F6E"/>
<path opacity="0.4" d="M252.766 79.062C240.126 61.6331 221.751 53.5107 202.548 53.5107C202.548 53.5107 155.587 53.5107 141.68 95.65C136.544 111.18 137.686 128.042 143.906 143.166C146.241 148.915 149.184 154.398 152.683 159.52C164.832 177.08 202.588 225.019 202.588 225.019H210.794C221.328 210.353 247.847 161.636 255.791 146.015C265.749 126.412 267.278 99.0705 252.766 79.062ZM210.406 157.008C202.471 157.008 194.714 154.65 188.117 150.231C181.519 145.812 176.377 139.532 173.341 132.184C170.305 124.836 169.511 116.75 171.059 108.95C172.608 101.149 176.429 93.9844 182.04 88.3609C187.651 82.7374 194.8 78.9081 202.583 77.3572C210.365 75.8063 218.432 76.6034 225.762 79.6478C233.093 82.6922 239.358 87.8471 243.765 94.4606C248.173 101.074 250.525 108.849 250.524 116.803C250.522 127.466 246.295 137.693 238.771 145.233C231.248 152.773 221.045 157.008 210.406 157.008Z" fill="black"/>
<path d="M261.024 79.3883C248.383 61.9652 230.008 53.8428 210.805 53.8428C210.805 53.8428 163.845 53.8428 149.938 95.982C144.802 111.512 145.943 128.374 152.169 143.498C154.501 149.248 157.442 154.73 160.94 159.852C173.09 177.406 210.828 225.368 210.828 225.368C210.828 225.368 254.432 165.246 264.031 146.37C274.006 126.733 275.541 99.4026 261.024 79.3883ZM210.457 157.34C202.522 157.34 194.766 154.982 188.169 150.564C181.571 146.145 176.429 139.865 173.393 132.517C170.356 125.169 169.562 117.084 171.11 109.284C172.658 101.484 176.479 94.3187 182.089 88.695C187.7 83.0713 194.848 79.2415 202.63 77.6899C210.412 76.1383 218.479 76.9347 225.809 79.9782C233.14 83.0217 239.405 88.1757 243.814 94.7885C248.222 101.401 250.575 109.176 250.575 117.129C250.614 122.421 249.604 127.667 247.601 132.564C245.599 137.46 242.646 141.909 238.913 145.651C235.179 149.393 230.741 152.353 225.856 154.36C220.971 156.367 215.736 157.38 210.457 157.34Z" fill="#1E5F6E"/>
<path d="M210.406 76.5908C202.116 76.5908 194.029 79.1651 187.258 83.9598C180.487 88.7545 175.364 95.534 172.594 103.366C175.689 96.5093 180.939 90.857 187.542 87.2732C194.145 83.6894 201.736 82.3714 209.157 83.5206C216.577 84.6698 223.418 88.2229 228.634 93.6369C233.85 99.0509 237.153 106.028 238.04 113.501C238.926 120.975 237.346 128.534 233.542 135.022C229.738 141.511 223.919 146.573 216.974 149.434C210.029 152.295 202.341 152.797 195.084 150.865C187.827 148.932 181.401 144.671 176.788 138.733C180.58 144.571 185.82 149.321 191.995 152.519C198.17 155.716 205.068 157.25 212.013 156.97C218.957 156.691 225.71 154.608 231.61 150.925C237.509 147.242 242.353 142.086 245.666 135.962C248.979 129.838 250.647 122.956 250.508 115.991C250.369 109.026 248.427 102.217 244.872 96.2312C241.317 90.2451 236.271 85.2876 230.229 81.8446C224.187 78.4016 217.356 76.5912 210.406 76.5908Z" fill="#1E5F6E"/>
<path opacity="0.4" d="M210.406 76.5908C202.116 76.5908 194.029 79.1651 187.258 83.9598C180.487 88.7545 175.364 95.534 172.594 103.366C175.689 96.5093 180.939 90.857 187.542 87.2732C194.145 83.6894 201.736 82.3714 209.157 83.5206C216.577 84.6698 223.418 88.2229 228.634 93.6369C233.85 99.0509 237.153 106.028 238.04 113.501C238.926 120.975 237.346 128.534 233.542 135.022C229.738 141.511 223.919 146.573 216.974 149.434C210.029 152.295 202.341 152.797 195.084 150.865C187.827 148.932 181.401 144.671 176.788 138.733C180.58 144.571 185.82 149.321 191.995 152.519C198.17 155.716 205.068 157.25 212.013 156.97C218.957 156.691 225.71 154.608 231.61 150.925C237.509 147.242 242.353 142.086 245.666 135.962C248.979 129.838 250.647 122.956 250.508 115.991C250.369 109.026 248.427 102.217 244.872 96.2312C241.317 90.2451 236.271 85.2876 230.229 81.8446C224.187 78.4016 217.356 76.5912 210.406 76.5908Z" fill="black"/>
<path d="M290.396 135.238C288.783 134.126 286.824 133.633 284.878 133.848C281.591 134.225 276.826 134.712 276.826 134.712V134.866L253.811 136.285L246.763 121.956L236.086 129.009C236.086 129.009 237.49 131.262 243.476 142.342C244.645 144.505 246.447 146.256 248.64 147.358C250.834 148.461 253.312 148.862 255.74 148.508L282.841 144.504V144.453C285.643 144.298 288.673 144.035 289.118 143.629C289.963 142.863 290.727 140.06 290.727 140.06C290.727 140.06 295.555 142.92 296.485 143C297.415 143.08 297.587 142.285 298.163 141.461C298.574 140.952 293.598 137.423 290.396 135.238Z" fill="#FFBE9D"/>
<path d="M248.199 121.041C248.199 121.041 243.725 112.41 239.639 104.259C234.606 94.2542 223.507 92.2465 223.507 92.2465L207.425 90.1301C207.425 90.1301 193.969 84.0383 181.471 99.1677L171.199 110.671L173.385 112.644L183.571 121.796L185.586 123.615L190.197 118.856L188.057 130.908L184.273 147.713L192.451 146.724L197.981 112.833L229.162 115.321L226.674 136.708C227.176 136.634 230.948 135.89 232.175 130.754C232.569 129.114 232.569 127.405 232.175 125.766L233.978 130.393L248.199 121.041Z" fill="#455A64"/>
<path d="M197.942 112.851L192.412 146.742L184.234 147.731C189.697 152.455 196.33 155.613 203.435 156.871C210.539 158.13 217.851 157.442 224.598 154.881L226.675 136.709L229.123 115.339L197.942 112.851Z" fill="#263238"/>
<path d="M199.791 88.449L199.117 115.979L204.299 116.803L204.995 88.9009C204.995 88.9009 203.186 88.0429 199.791 88.449Z" fill="#263238"/>
<path d="M221.797 116.116L226.083 92.4697C226.328 92.2065 229.843 93.4707 230.905 94.6719L227.058 116.608L221.797 116.116Z" fill="#263238"/>
<path d="M204.507 112.753C204.562 112.903 204.589 113.062 204.586 113.222C204.625 113.656 204.625 114.092 204.586 114.526C204.546 115.191 204.323 115.833 203.942 116.379C203.706 116.705 203.395 116.969 203.034 117.146C202.636 117.326 202.192 117.38 201.762 117.3C201.359 117.215 200.978 117.047 200.642 116.808C200.306 116.569 200.023 116.263 199.81 115.91C199.48 115.338 199.285 114.699 199.239 114.04C199.201 113.606 199.201 113.169 199.239 112.736C199.236 112.573 199.266 112.412 199.325 112.261C199.376 112.261 199.325 112.947 199.445 114.017C199.524 114.624 199.728 115.208 200.044 115.733C200.241 116.049 200.5 116.321 200.805 116.534C201.11 116.748 201.455 116.897 201.819 116.974C202.179 117.038 202.551 116.998 202.889 116.858C203.228 116.718 203.519 116.485 203.73 116.185C204.095 115.68 204.321 115.088 204.387 114.469C204.512 113.439 204.45 112.753 204.507 112.753Z" fill="#455A64"/>
<path d="M201.444 115.184C201.151 115.067 200.917 114.838 200.792 114.548C200.668 114.258 200.663 113.93 200.78 113.637C200.896 113.343 201.124 113.108 201.414 112.983C201.703 112.858 202.03 112.853 202.323 112.97C202.468 113.028 202.6 113.114 202.712 113.223C202.824 113.332 202.914 113.462 202.975 113.606C203.037 113.749 203.07 113.904 203.072 114.06C203.074 114.217 203.046 114.372 202.988 114.517C202.93 114.663 202.845 114.795 202.736 114.907C202.627 115.02 202.497 115.109 202.354 115.171C202.211 115.233 202.056 115.266 201.9 115.268C201.744 115.27 201.589 115.242 201.444 115.184Z" fill="#455A64"/>
<path d="M225.827 115.332C225.828 115.569 225.759 115.801 225.629 115.998C225.498 116.195 225.312 116.35 225.094 116.441C224.877 116.532 224.637 116.557 224.405 116.511C224.173 116.466 223.96 116.352 223.793 116.185C223.625 116.018 223.511 115.805 223.465 115.573C223.418 115.341 223.442 115.101 223.532 114.882C223.622 114.663 223.775 114.476 223.971 114.344C224.167 114.213 224.398 114.143 224.634 114.143C224.949 114.143 225.252 114.268 225.475 114.491C225.699 114.714 225.825 115.016 225.827 115.332Z" fill="#455A64"/>
<path d="M227.416 114.509C227.407 114.984 227.316 115.454 227.148 115.899C226.988 116.404 226.716 116.867 226.355 117.254C226.123 117.494 225.841 117.679 225.529 117.794C225.217 117.908 224.882 117.951 224.551 117.918C223.89 117.846 223.28 117.53 222.839 117.031C222.496 116.624 222.268 116.132 222.177 115.607C222.111 115.262 222.099 114.909 222.143 114.56C222.15 114.43 222.185 114.303 222.246 114.188C222.254 114.651 222.299 115.112 222.383 115.567C222.494 116.043 222.721 116.483 223.045 116.848C223.447 117.283 223.992 117.557 224.58 117.62C224.87 117.651 225.164 117.615 225.438 117.516C225.713 117.417 225.962 117.257 226.166 117.048C226.511 116.7 226.78 116.283 226.954 115.824C227.251 115.029 227.365 114.492 227.416 114.509Z" fill="#455A64"/>
<path d="M201.35 125.84C201.31 125.84 201.293 125.611 201.304 125.268C201.304 125.091 201.304 124.873 201.333 124.639C201.333 124.513 201.333 124.387 201.361 124.267V124.073V123.97V123.872L201.527 123.724C202.197 123.746 202.86 123.868 203.496 124.084C202.828 124.159 202.153 124.136 201.493 124.015C201.458 124.05 201.806 123.735 201.658 123.872V123.958V124.061V124.261C201.658 124.387 201.63 124.507 201.612 124.639C201.612 124.879 201.55 125.091 201.521 125.274C201.447 125.6 201.39 125.84 201.35 125.84Z" fill="#455A64"/>
<path d="M200.517 133.7C200.442 133.039 200.463 132.37 200.579 131.715C200.6 131.049 200.72 130.39 200.933 129.759C201.016 130.419 200.996 131.089 200.876 131.744C200.85 132.41 200.729 133.068 200.517 133.7Z" fill="#455A64"/>
<path d="M201.673 140.524C201.021 140.363 200.396 140.106 199.818 139.763C199.818 139.797 199.664 139.483 199.732 139.614V139.529V139.426V139.225L199.784 138.854C199.818 138.619 199.852 138.402 199.881 138.224C199.949 137.87 200.006 137.652 200.046 137.652C200.086 137.652 200.103 137.887 200.092 138.224C200.092 138.407 200.08 138.619 200.058 138.859C200.058 138.991 200.058 139.111 200.023 139.237V139.431V139.534V139.626C200.098 139.757 199.926 139.443 199.944 139.477C200.568 139.739 201.151 140.092 201.673 140.524Z" fill="#455A64"/>
<path d="M206.949 143.149C205.989 142.9 205.088 142.46 204.301 141.856C204.792 141.937 205.261 142.116 205.682 142.383C206.151 142.552 206.581 142.812 206.949 143.149Z" fill="#455A64"/>
<path d="M213.224 144.596C212.672 144.981 212.066 145.281 211.427 145.489H211.284H211.238L211.147 145.443L210.97 145.351L210.639 145.18L210.069 144.865C209.76 144.682 209.578 144.551 209.595 144.51C209.612 144.47 209.829 144.51 210.166 144.676C210.331 144.745 210.531 144.831 210.736 144.934L211.073 145.094L211.255 145.18L211.347 145.22H211.392H211.295C211.904 144.917 212.554 144.707 213.224 144.596Z" fill="#455A64"/>
<path d="M217.487 142.863C217.516 142.943 217.065 143.194 216.477 143.435C215.889 143.675 215.387 143.806 215.336 143.732C215.284 143.658 215.758 143.4 216.346 143.16C216.934 142.92 217.453 142.788 217.487 142.863Z" fill="#455A64"/>
<path d="M221.675 139.254C221.75 139.923 221.731 140.598 221.618 141.262L221.521 141.387H221.475L221.378 141.428L221.196 141.502L220.847 141.633C220.619 141.714 220.419 141.788 220.243 141.839C219.9 141.954 219.672 142.005 219.672 141.965C219.672 141.925 219.854 141.811 220.174 141.645L220.745 141.376L221.093 141.227L221.275 141.153L221.367 141.113H221.418L221.327 141.239C221.343 140.563 221.46 139.894 221.675 139.254Z" fill="#455A64"/>
<path d="M222.436 131.841C222.512 133.089 222.383 134.341 222.054 135.547C221.974 134.927 221.99 134.298 222.1 133.683C222.115 133.055 222.229 132.433 222.436 131.841Z" fill="#455A64"/>
<path d="M221.039 125.932C221.707 125.857 222.381 125.88 223.042 126L223.173 126.16V126.252V126.355V126.549C223.173 126.675 223.145 126.795 223.128 126.921C223.093 127.161 223.065 127.373 223.031 127.556C222.968 127.911 222.905 128.128 222.865 128.128C222.825 128.128 222.814 127.894 222.82 127.556C222.82 127.373 222.82 127.156 222.854 126.915L222.882 126.544V126.343V126.155L223.014 126.315C222.34 126.285 221.675 126.156 221.039 125.932Z" fill="#455A64"/>
<path d="M214.035 125.176C215.216 125.103 216.401 125.231 217.539 125.554C216.951 125.637 216.354 125.624 215.77 125.514C215.178 125.495 214.592 125.381 214.035 125.176Z" fill="#455A64"/>
<path d="M207.035 124.416C207.622 124.333 208.22 124.346 208.804 124.456C209.388 124.478 209.966 124.592 210.516 124.794C209.335 124.867 208.15 124.74 207.012 124.416H207.035Z" fill="#455A64"/>
<path d="M170.346 114.726C170.306 115.413 170.289 116.105 170.289 116.803C170.287 119.519 170.561 122.229 171.105 124.891V124.971C171.174 125.303 171.254 125.629 171.333 125.955C171.642 127.247 172.012 128.523 172.423 129.781C172.475 129.936 172.526 130.096 172.583 130.25C174.055 129.919 178.324 126.212 183.237 121.585L173.057 112.433C171.647 113.828 170.808 114.566 170.346 114.726Z" fill="#FFBE9D"/>
<path d="M234.614 55.3184C234.968 59.2709 239.459 62.5999 243.419 62.4798C245.599 62.4112 247.808 61.4388 249.902 62.0451C253.417 63.069 254.838 67.9824 258.462 68.6402C261.156 69.1322 263.638 66.9242 266.372 66.7984C268.38 66.6897 270.275 67.6964 271.941 68.829C273.608 69.9616 275.194 71.2714 277.077 71.9178C278.96 72.5642 280.73 71.4202 282.653 70.831C283.126 72.0551 283.44 73.5652 284.051 74.835C284.661 76.1048 285.403 78.4558 284.319 78.9591C284.319 78.9591 281.289 80.5321 279.537 80.4463C280.244 81.1615 281.128 81.6767 282.098 81.9399C283.068 82.203 284.09 82.2048 285.061 81.945C285.546 84.885 285.911 88.277 283.92 90.4906C282.989 91.4503 281.799 92.1163 280.496 92.4068C274.138 94.0542 267.49 89.5983 261.036 90.811C258.388 91.3143 255.963 92.7443 253.286 93.0989C251.966 93.2629 250.627 93.1607 249.347 92.7982C248.067 92.4357 246.872 91.8203 245.833 90.9883C243.288 88.9234 241.536 85.4685 238.306 84.9251C236.874 84.6906 235.424 85.1024 234.02 85.4971C232.617 85.8918 231.167 86.2693 229.735 85.9661C228.302 85.663 226.978 84.4503 227.041 82.9974" fill="#263238"/>
<path d="M221.992 93.7051C222.705 89.7011 223.527 85.5427 223.527 85.5427C223.527 85.5427 228.8 85.5942 231.043 79.0791C233.177 72.8672 234.718 57.9151 234.718 57.9151C231.336 55.8047 227.39 54.7831 223.411 54.9876C219.432 55.1921 215.611 56.613 212.462 59.0591L207.206 91.5201C206.595 95.2896 209.34 98.8131 213.369 99.4366C217.427 100.1 221.29 97.5032 221.992 93.7051Z" fill="#FFBE9D"/>
<path d="M230.774 69.1146C230.738 69.3386 230.615 69.5395 230.433 69.6742C230.25 69.8088 230.023 69.8667 229.798 69.8353C229.687 69.8254 229.579 69.7932 229.481 69.7406C229.382 69.6879 229.295 69.616 229.225 69.529C229.154 69.4421 229.102 69.3418 229.072 69.2343C229.041 69.1267 229.032 69.0141 229.045 68.903C229.083 68.6784 229.207 68.4776 229.39 68.343C229.573 68.2084 229.802 68.1508 230.027 68.1822C230.137 68.1929 230.245 68.2256 230.343 68.2785C230.441 68.3315 230.527 68.4035 230.597 68.4904C230.666 68.5773 230.718 68.6773 230.748 68.7845C230.779 68.8917 230.788 69.0039 230.774 69.1146Z" fill="#263238"/>
<path d="M232.329 68.4001C232.203 68.4916 231.638 67.8967 230.714 67.7365C229.789 67.5764 229.036 67.9139 228.956 67.788C228.876 67.6622 229.059 67.5421 229.39 67.3819C229.839 67.1728 230.341 67.1089 230.828 67.1989C231.306 67.286 231.744 67.5199 232.083 67.8681C232.329 68.1369 232.392 68.3543 232.329 68.4001Z" fill="#263238"/>
<path d="M221.302 67.6107C221.264 67.8352 221.14 68.0361 220.957 68.1706C220.773 68.3052 220.545 68.3629 220.32 68.3314C220.209 68.3208 220.102 68.288 220.004 68.2351C219.906 68.1822 219.82 68.1101 219.75 68.0232C219.68 67.9364 219.629 67.8364 219.598 67.7292C219.568 67.6219 219.559 67.5097 219.573 67.399C219.61 67.1745 219.734 66.9737 219.917 66.8391C220.101 66.7045 220.329 66.6469 220.554 66.6783C220.665 66.689 220.772 66.7217 220.87 66.7746C220.968 66.8276 221.054 66.8996 221.124 66.9865C221.194 67.0734 221.245 67.1734 221.276 67.2806C221.306 67.3878 221.315 67.5 221.302 67.6107Z" fill="#263238"/>
<path d="M222.645 67.0327C222.519 67.1243 221.955 66.5294 221.03 66.3692C220.106 66.209 219.352 66.5523 219.267 66.4207C219.181 66.2891 219.369 66.1805 219.706 66.0146C220.154 65.8104 220.654 65.7486 221.138 65.8372C221.619 65.9195 222.061 66.154 222.4 66.5065C222.645 66.7753 222.708 66.9927 222.645 67.0327Z" fill="#263238"/>
<path d="M224.785 74.4866C225.299 74.4208 225.818 74.4208 226.332 74.4866C226.571 74.4866 226.805 74.4866 226.874 74.3436C226.935 74.1034 226.923 73.8504 226.84 73.6171C226.72 73.0051 226.594 72.3644 226.457 71.6952C225.938 68.9667 225.613 66.7359 225.721 66.7131C225.829 66.6902 226.337 68.8924 226.862 71.6266C226.982 72.2958 227.102 72.9364 227.21 73.5485C227.311 73.8596 227.297 74.1965 227.171 74.498C227.122 74.575 227.057 74.6401 226.98 74.6886C226.903 74.7371 226.816 74.7677 226.725 74.7783C226.589 74.7936 226.451 74.7936 226.315 74.7783C225.795 74.7447 225.281 74.6467 224.785 74.4866Z" fill="#263238"/>
<path d="M223.504 85.5431C220.345 85.027 217.391 83.6407 214.973 81.5391C214.973 81.5391 216.337 86.5269 223.139 87.076L223.504 85.5431Z" fill="#EB996E"/>
<path d="M224.005 76.6482C223.867 76.3975 223.668 76.1855 223.427 76.0316C223.185 75.8778 222.909 75.7869 222.624 75.7674C222.418 75.7514 222.212 75.7765 222.016 75.8413C221.82 75.9062 221.639 76.0093 221.483 76.1449C221.332 76.2778 221.226 76.4541 221.179 76.6496C221.133 76.8451 221.147 77.0503 221.22 77.2374C221.339 77.4264 221.511 77.5763 221.713 77.6688C221.916 77.7613 222.142 77.7923 222.362 77.7579C222.823 77.6771 223.265 77.5081 223.663 77.2603C223.781 77.2041 223.887 77.1265 223.977 77.0315C224.02 76.9866 224.048 76.9299 224.058 76.8687C224.068 76.8075 224.06 76.7446 224.034 76.6883" fill="#EB996E"/>
<path d="M221.992 74.6461C222.146 74.6461 221.992 75.6642 222.699 76.5279C223.407 77.3917 224.52 77.4717 224.502 77.6147C224.485 77.7577 224.229 77.7635 223.778 77.7005C223.19 77.6052 222.655 77.3055 222.265 76.854C221.89 76.4198 221.699 75.8548 221.735 75.281C221.74 74.8577 221.895 74.6232 221.992 74.6461Z" fill="#263238"/>
<path d="M216.984 54.2659C218.771 58.2185 224.557 63.0233 229.031 64.7278C228.62 63.9156 226.109 61.6219 225.704 60.8096C227.507 62.7716 230.115 65.4371 232.872 66.1063C233.189 66.2117 233.53 66.2217 233.853 66.1349C234.031 66.0438 234.186 65.9128 234.306 65.7521C234.426 65.5915 234.507 65.4054 234.544 65.2083C235.078 63.216 235.396 61.1716 235.491 59.1108C235.585 57.3728 235.014 55.6644 233.893 54.3346C232.37 52.6186 229.899 51.7949 227.49 51.2801C225.508 50.7674 223.445 50.6508 221.418 50.9369C219.438 51.3144 217.589 52.4584 216.996 54.1458" fill="#263238"/>
<path d="M206.322 69.1439C206.289 67.6165 206.346 66.0885 206.493 64.5679C206.944 61.0787 208.034 48.3974 219.709 51.6578L218.465 54.9125C218.465 54.9125 219.361 63.075 213.369 67.4565C213.369 67.4565 213.398 75.6075 209.243 78.5476C209.243 78.5476 206.35 73.022 206.322 69.1668" fill="#263238"/>
<path d="M213.618 66.8845C212.928 66.6041 212.174 66.519 211.438 66.6386C210.704 66.7662 210.049 67.1768 209.612 67.7826C209.216 68.4203 209.076 69.1845 209.219 69.9219C209.366 70.6536 209.674 71.3433 210.12 71.941C210.409 72.3904 210.8 72.7648 211.262 73.0335C211.497 73.1602 211.759 73.2265 212.026 73.2265C212.293 73.2265 212.556 73.1602 212.791 73.0335" fill="#FFBE9D"/>
<path d="M212.461 71.1573C212.535 71.1973 212.147 71.5749 211.525 71.2831C211.362 71.1939 211.218 71.0732 211.101 70.9279C210.985 70.7826 210.898 70.6156 210.846 70.4366C210.714 70.0331 210.664 69.6072 210.698 69.1839C210.722 68.7312 210.908 68.3025 211.223 67.977C211.354 67.8372 211.515 67.7295 211.694 67.6621C211.873 67.5946 212.065 67.5693 212.256 67.588C212.935 67.691 213.06 68.1943 212.981 68.1943C212.901 68.1943 212.701 67.9484 212.239 67.977C211.952 68.0339 211.696 68.1913 211.515 68.4209C211.334 68.6505 211.24 68.9373 211.251 69.2297C211.2 69.9847 211.366 70.7111 211.725 70.9457C212.085 71.1802 212.427 71.0887 212.461 71.1573Z" fill="#EB996E"/>
<path d="M281.226 67.4332C281.147 67.6058 281.041 67.7643 280.912 67.9022C280.538 68.2997 280.056 68.5782 279.525 68.703C278.683 68.9144 277.796 68.8523 276.991 68.5257C275.958 68.0693 274.997 67.4642 274.138 66.7296C273.156 65.986 272.061 65.1051 270.657 64.802C269.931 64.6645 269.183 64.6958 268.471 64.8935C267.711 65.1153 266.975 65.4123 266.274 65.7801C265.544 66.1519 264.802 66.5637 263.991 66.9241C263.185 67.3202 262.308 67.5535 261.412 67.6105C260.466 67.6418 259.535 67.3714 258.753 66.8383C257.979 66.2747 257.304 65.5867 256.755 64.802C255.614 63.2805 254.69 61.6274 253.297 60.5463C252.621 60.0141 251.815 59.6743 250.963 59.5625C250.139 59.4693 249.305 59.506 248.492 59.6711C246.894 59.9686 245.399 60.4777 243.927 60.6664C242.561 60.8318 241.175 60.711 239.858 60.3118C237.947 59.7416 236.238 58.6363 234.933 57.1257C234.454 56.5808 234.054 55.9702 233.746 55.3125C233.78 55.346 233.809 55.3846 233.832 55.4269C233.889 55.5241 233.963 55.6385 234.054 55.7815C235.414 57.8938 237.499 59.4325 239.915 60.1059C241.21 60.4869 242.571 60.594 243.91 60.4205C245.348 60.226 246.831 59.7112 248.475 59.4023C249.315 59.2239 250.179 59.1833 251.032 59.2822C251.932 59.3978 252.786 59.7534 253.503 60.3118C254.963 61.4558 255.894 63.126 257.024 64.6247C257.551 65.3834 258.201 66.0484 258.947 66.5923C259.676 67.0923 260.546 67.3467 261.429 67.3188C262.29 67.2653 263.132 67.0418 263.906 66.661C264.688 66.3178 265.424 65.9117 266.16 65.517C266.879 65.14 267.634 64.8372 268.414 64.6132C269.159 64.4119 269.939 64.3825 270.697 64.5274C272.018 64.9226 273.235 65.6086 274.258 66.5351C275.096 67.2671 276.033 67.8758 277.043 68.3427C277.814 68.6674 278.667 68.7453 279.485 68.5657C280.001 68.4501 280.476 68.1971 280.86 67.8336C281.123 67.5991 281.214 67.4275 281.226 67.4332Z" fill="#263238"/>
<path d="M149.787 181.061L139.435 201.99L142.522 202.104L133.751 218.738H138.362L131.172 233.513H171.341L162.496 218.738L166.736 218.549L158.261 201.927L161.394 201.744L149.787 181.061Z" fill="#455A64"/>
<path d="M151.534 205.348C151.619 205.348 151.534 214.214 151.397 225.145C151.26 236.075 151.037 244.936 150.957 244.936C150.878 244.936 150.957 236.07 151.1 225.139C151.243 214.208 151.454 205.348 151.534 205.348Z" fill="#263238"/>
<path d="M156.458 210.719C156.3 211.055 156.09 211.363 155.836 211.634C155.273 212.321 154.671 212.977 154.033 213.596C153.303 214.334 152.641 214.992 152.178 215.489C151.946 215.776 151.686 216.038 151.402 216.273C151.559 215.936 151.767 215.625 152.019 215.352C152.586 214.667 153.187 214.012 153.822 213.39C154.558 212.652 155.22 211.994 155.682 211.497C155.911 211.209 156.172 210.948 156.458 210.719Z" fill="#263238"/>
<path d="M151.437 216.484C150.623 216.028 149.858 215.489 149.154 214.877C148.384 214.337 147.673 213.717 147.031 213.029C147.845 213.485 148.61 214.024 149.314 214.637C150.085 215.176 150.796 215.795 151.437 216.484Z" fill="#263238"/>
<path d="M151.164 226.752C150.268 226.117 149.409 225.431 148.591 224.698C147.708 224.042 146.864 223.336 146.062 222.582C147.04 223.097 147.952 223.729 148.779 224.464C149.665 225.125 150.467 225.893 151.164 226.752Z" fill="#263238"/>
<path d="M156.887 220.402C156.961 220.46 155.786 221.992 154.131 223.68L152.048 225.865C151.785 226.19 151.488 226.488 151.163 226.752C151.089 226.694 152.265 225.161 153.92 223.474L156.003 221.295C156.267 220.968 156.563 220.669 156.887 220.402Z" fill="#263238"/>
</svg>
