<svg width="30" height="30" viewBox="0 0 30 30" fill="none" xmlns="http://www.w3.org/2000/svg">
<circle cx="15" cy="15" r="15" fill="#1E5F6E"/>
<path d="M13.1461 6.24792C13.2956 5.87864 13.5519 5.56238 13.8822 5.3397C14.2125 5.11701 14.6018 4.99805 15.0001 4.99805C15.3985 4.99805 15.7878 5.11701 16.1181 5.3397C16.4484 5.56238 16.7047 5.87864 16.8541 6.24792C18.3329 6.65461 19.6373 7.53548 20.5669 8.75526C21.4966 9.97504 22.0001 11.4663 22.0002 12.9999V17.6969L23.8322 20.4449C23.9326 20.5955 23.9903 20.7706 23.9991 20.9514C24.0079 21.1322 23.9674 21.3121 23.882 21.4717C23.7966 21.6313 23.6695 21.7648 23.5142 21.8578C23.3588 21.9508 23.1812 22 23.0002 21.9999H18.4651C18.3447 22.833 17.9282 23.5949 17.2919 24.1459C16.6555 24.6969 15.8419 25.0001 15.0001 25.0001C14.1584 25.0001 13.3448 24.6969 12.7084 24.1459C12.0721 23.5949 11.6556 22.833 11.5351 21.9999H7.00015C6.81911 22 6.64145 21.9508 6.48614 21.8578C6.33083 21.7648 6.20369 21.6313 6.11828 21.4717C6.03287 21.3121 5.99239 21.1322 6.00118 20.9514C6.00996 20.7706 6.06767 20.5955 6.16815 20.4449L8.00015 17.6969V12.9999C8.00015 9.77592 10.1801 7.05992 13.1461 6.24792ZM13.5862 21.9999C13.6894 22.2926 13.8809 22.546 14.1343 22.7252C14.3876 22.9045 14.6903 23.0007 15.0006 23.0007C15.311 23.0007 15.6137 22.9045 15.867 22.7252C16.1204 22.546 16.3119 22.2926 16.4151 21.9999H13.5851H13.5862ZM15.0001 7.99992C13.6741 7.99992 12.4023 8.52671 11.4646 9.46439C10.5269 10.4021 10.0001 11.6738 10.0001 12.9999V17.9999C10.0002 18.1975 9.94174 18.3906 9.83215 18.5549L8.86915 19.9999H21.1301L20.1671 18.5549C20.0579 18.3905 19.9998 18.1974 20.0001 17.9999V12.9999C20.0001 11.6738 19.4734 10.4021 18.5357 9.46439C17.598 8.52671 16.3262 7.99992 15.0001 7.99992Z" fill="#E9EFF1"/>
</svg>
