<svg width="24" height="24" viewBox="0 0 24 24" fill="none" xmlns="http://www.w3.org/2000/svg">
<path d="M21.7495 20.69L16.0855 15.026C17.4466 13.3919 18.1253 11.2961 17.9805 9.17438C17.8356 7.05268 16.8784 5.0685 15.3079 3.63459C13.7374 2.20068 11.6745 1.42746 9.54844 1.47577C7.42236 1.52408 5.39674 2.3902 3.89298 3.89396C2.38922 5.39772 1.5231 7.42333 1.47479 9.54942C1.42648 11.6755 2.19971 13.7384 3.63361 15.3089C5.06752 16.8794 7.0517 17.8366 9.1734 17.9815C11.2951 18.1263 13.391 17.4475 15.025 16.0865L20.689 21.7505L21.7495 20.69ZM2.99948 9.75045C2.99948 8.41543 3.39536 7.11039 4.13706 6.00035C4.87876 4.89032 5.93296 4.02516 7.16636 3.51427C8.39976 3.00337 9.75696 2.8697 11.0663 3.13015C12.3757 3.3906 13.5784 4.03348 14.5224 4.97748C15.4665 5.92149 16.1093 7.12422 16.3698 8.43359C16.6302 9.74296 16.4966 11.1002 15.9857 12.3336C15.4748 13.567 14.6096 14.6212 13.4996 15.3629C12.3895 16.1046 11.0845 16.5005 9.74948 16.5005C7.95987 16.4985 6.24414 15.7867 4.9787 14.5212C3.71326 13.2558 3.00146 11.5401 2.99948 9.75045Z" fill="#828383"/>
</svg>
